{
classes = (
{
code = "ka-deva qa-deva k_ra-deva k_na-deva";
name = "iiLetters-alt1";
},
{
code = "cha-deva ha-deva da-deva n_ha-deva m_ha-deva";
name = "iiLetters-alt3";
},
{
code = "ttha-deva ss_ttha-deva ra-deva rra-deva";
name = "iiLetters-alt4";
},
{
code = "pha-deva fa-deva ph_ra-deva f_ra-deva f_za-deva f_fa-deva";
name = "iiLetters-alt5";
},
{
code = "iiMatra-deva\012iiMatra_reph_anusvara-deva\012iiMatra_reph-deva";
name = iiMatra;
},
{
code = "iiMatra-deva.alt1\012iiMatra_reph_anusvara-deva.alt1\012iiMatra_reph-deva.alt1";
name = "iiMatra-alt1";
},
{
code = "iiMatra-deva.alt2\012iiMatra_reph_anusvara-deva.alt2\012iiMatra_reph-deva.alt2";
name = "iiMatra-alt2";
},
{
code = "iiMatra-deva.alt3\012iiMatra_reph_anusvara-deva.alt3\012iiMatra_reph-deva.alt3";
name = "iiMatra-alt3";
},
{
code = "iiMatra-deva.alt4\012iiMatra_reph_anusvara-deva.alt4\012iiMatra_reph-deva.alt4";
name = "iiMatra-alt4";
},
{
code = "iiMatra-deva.alt5\012iiMatra_reph_anusvara-deva.alt5\012iiMatra_reph-deva.alt5";
name = "iiMatra-alt5";
},
{
code = "ka-deva tta-deva ttha-deva ddha-deva da-deva qa-deva rha-deva ha-deva\012\012k_na-deva k_ra-deva\012tt_tta-deva tt_ttha-deva tt_ra-deva tt_va-deva\012tth_ttha-deva\012ddh_ddha-deva\012d_ga-deva d_na-deva d_ba-deva d_ra-deva d_va-deva\012h_ra-deva";
name = "iLetters-alt1";
},
{
code = "ja-deva za-deva la-deva\012ny_ca-deva ny_ja-deva ny_ra-deva\012l_ra-deva";
name = "iLetters-alt2";
},
{
code = "gha-deva tha-deva dha-deva\012gh_na-deva gh_ra-deva\012th_ra-deva\012dh_ra-deva\012d_ya-deva";
name = "iLetters-alt3";
},
{
code = "ra-deva rra-deva";
name = "iLetters-alt4";
},
{
code = "na-deva nnna-deva va-deva ba-deva dda-deva nga-deva dddha-deva\012\012ng_ka-deva ng_ga-deva ng_ma-deva\012\012dd_ga-deva dd_dda-deva dd_ra-deva dd_ddha-deva\012\012n_ra-deva\012\012b_ra-deva\012\012v_ra-deva\012\012h_nna-deva h_na-deva h_la-deva h_va-deva";
name = "iLetters-alt5";
},
{

glyphs = (
{
glyphname = A;
lastChange = "2014-08-17 18:20:40 +0530";
layers = (
{
anchors = (
{
name = top.cap;
position = "{244, 550}";
}
);
layerId = "CFA4B904-E3F1-48B6-A7F6-47DC1FF2A3E1";
name = Regular;
paths = (
{
closed = 1;
nodes = (
"399 0 LINE",
"347 161 LINE",
"137 161 LINE",
"85 0 LINE",
"16 0 LINE",
"204 550 LINE",
"284 550 LINE",
"473 0 LINE"
);
},
{
closed = 1;
nodes = (
"156 218 LINE",
"328 218 LINE",
"241 481 LINE"
);
}
);
width = 488;
}
);
unicode = 0041;
},
{
glyphname = Aogonek;
lastChange = "2014-08-18 12:56:28 +0530";
layers = (
{
layerId = "CFA4B904-E3F1-48B6-A7F6-47DC1FF2A3E1";
name = Regular;
paths = (
{
closed = 1;
nodes = (
"339 218 LINE",
"153 218 LINE",
"247 486 LINE"
);
},
{
closed = 1;
nodes = (
"381 -4 LINE SMOOTH",
"333 -36 OFFCURVE",
"299 -82 OFFCURVE",
"299 -129 CURVE SMOOTH",
"299 -181 OFFCURVE",
"332 -210 OFFCURVE",
"378 -210 CURVE SMOOTH",
"409 -210 OFFCURVE",
"446 -197 OFFCURVE",
"480 -172 CURVE",
"460 -136 LINE",
"435 -151 OFFCURVE",
"415 -159 OFFCURVE",
"395 -159 CURVE SMOOTH",
"372 -159 OFFCURVE",
"355 -147 OFFCURVE",
"355 -118 CURVE SMOOTH",
"355 -93 OFFCURVE",
"373 -66 OFFCURVE",
"410 -38 CURVE SMOOTH",
"478 10 LINE",
"287 550 LINE",
"212 550 LINE",
"16 0 LINE",
"78 0 LINE",
"133 161 LINE",
"360 161 LINE",
"410 16 LINE"
);
}
);
width = 493;
}
);
unicode = 0104;
},
{
glyphname = Aring;
lastChange = "2014-08-17 19:10:11 +0530";
layers = (
{
layerId = "CFA4B904-E3F1-48B6-A7F6-47DC1FF2A3E1";
name = Regular;
paths = (
{
closed = 1;
nodes = (
"145 587 OFFCURVE",
"171 552 OFFCURVE",
"207 536 CURVE",
"16 0 LINE",
"78 0 LINE",
"133 161 LINE",
"360 161 LINE",
"416 0 LINE",
"483 0 LINE",
"292 538 LINE",
"326 554 OFFCURVE",
"351 588 OFFCURVE",
"351 627 CURVE SMOOTH",
"351 681 OFFCURVE",
"304 727 OFFCURVE",
"248 727 CURVE SMOOTH",
"191 727 OFFCURVE",
"145 681 OFFCURVE",
"145 627 CURVE SMOOTH"
);
},
{
closed = 1;
nodes = (
"339 218 LINE",
"153 218 LINE",
"247 486 LINE"
);
},
{
closed = 1;
nodes = (
"305 596 OFFCURVE",
"279 570 OFFCURVE",
"246 570 CURVE SMOOTH",
"212 570 OFFCURVE",
"190 595 OFFCURVE",
"190 627 CURVE SMOOTH",
"190 660 OFFCURVE",
"212 684 OFFCURVE",
"247 684 CURVE SMOOTH",
"279 684 OFFCURVE",
"306 658 OFFCURVE",
"305 627 CURVE SMOOTH"
);
}
);
width = 499;
}
);
unicode = 00C5;
},
{
glyphname = AE;
lastChange = "2014-08-17 19:10:57 +0530";
layers = (
{
layerId = "CFA4B904-E3F1-48B6-A7F6-47DC1FF2A3E1";
name = Regular;
paths = (
{
closed = 1;
nodes = (
"231 550 LINE",
"16 0 LINE",
"80 0 LINE",
"141 161 LINE",
"333 161 LINE",
"333 0 LINE",
"634 0 LINE",
"634 58 LINE",
"394 58 LINE",
"394 256 LINE",
"613 256 LINE",
"613 313 LINE",
"394 313 LINE",
"394 494 LINE",
"634 494 LINE",
"634 550 LINE"
);
},
{
closed = 1;
nodes = (
"164 218 LINE",
"270 494 LINE",
"333 494 LINE",
"333 218 LINE"
);
}
);
width = 685;
}
);
unicode = 00C6;
},
{
glyphname = B;
lastChange = "2014-08-17 11:42:37 +0530";
layers = (
{
layerId = "CFA4B904-E3F1-48B6-A7F6-47DC1FF2A3E1";
name = Regular;
paths = (
{
closed = 1;
nodes = (
"350 474 OFFCURVE",
"307 493 OFFCURVE",
"239 493 CURVE SMOOTH",
"133 493 LINE",
"133 321 LINE",
"207 321 LINE SMOOTH",
"302 321 OFFCURVE",
"350 352 OFFCURVE",
"350 415 CURVE SMOOTH"
);
},
{
closed = 1;
nodes = (
"393 206 OFFCURVE",
"371 232 OFFCURVE",
"339 247 CURVE SMOOTH",
"307 262 OFFCURVE",
"266 266 OFFCURVE",
"229 266 CURVE SMOOTH",
"133 266 LINE",
"133 58 LINE",
"256 58 LINE SMOOTH",
"293 58 OFFCURVE",
"327 65 OFFCURVE",
"352 82 CURVE SMOOTH",
"377 98 OFFCURVE",
"393 124 OFFCURVE",
"393 161 CURVE SMOOTH"
);
},
{
closed = 1;
nodes = (
"373 297 OFFCURVE",
"403 281 OFFCURVE",
"424 258 CURVE SMOOTH",
"445 234 OFFCURVE",
"459 203 OFFCURVE",
"459 167 CURVE SMOOTH",
"459 127 OFFCURVE",
"447 82 OFFCURVE",
"412 50 CURVE SMOOTH",
"375 18 OFFCURVE",
"315 0 OFFCURVE",
"246 0 CURVE SMOOTH",
"67 0 LINE",
"67 550 LINE",
"261 550 LINE SMOOTH",
"306 550 OFFCURVE",
"347 539 OFFCURVE",
"374 515 CURVE SMOOTH",
"400 492 OFFCURVE",
"413 460 OFFCURVE",
"413 419 CURVE SMOOTH",
"413 372 OFFCURVE",
"388 325 OFFCURVE",
"341 302 CURVE"
);
}
);
width = 498;
}
);
unicode = 0042;
},
{
glyphname = C;
lastChange = "2014-08-17 19:04:49 +0530";
layers = (
{
anchors = (
{
name = top.cap;
position = "{315, 550}";
}
);
layerId = "CFA4B904-E3F1-48B6-A7F6-47DC1FF2A3E1";
name = Regular;
paths = (
{
closed = 1;
nodes = (
"464 475 LINE",
"420 490 OFFCURVE",
"389 498 OFFCURVE",
"334 498 CURVE SMOOTH",
"291 498 OFFCURVE",
"247 493 OFFCURVE",
"212 474 CURVE",
"151 438 OFFCURVE",
"117 370 OFFCURVE",
"117 277 CURVE SMOOTH",
"117 184 OFFCURVE",
"160 117 OFFCURVE",
"221 81 CURVE",
"256 62 OFFCURVE",
"297 52 OFFCURVE",
"344 52 CURVE SMOOTH",
"388 52 OFFCURVE",
"428 62 OFFCURVE",
"473 79 CURVE",
"489 27 LINE",
"440 3 OFFCURVE",
"385 -9 OFFCURVE",
"324 -9 CURVE SMOOTH",
"236 -9 OFFCURVE",
"164 27 OFFCURVE",
"119 71 CURVE SMOOTH",
"69 123 OFFCURVE",
"44 191 OFFCURVE",
"44 276 CURVE SMOOTH",
"44 364 OFFCURVE",
"71 434 OFFCURVE",
"116 478 CURVE",
"136 499 OFFCURVE",
"166 521 OFFCURVE",
"202 535 CURVE SMOOTH",
"237 549 OFFCURVE",
"276 558 OFFCURVE",
"315 558 CURVE SMOOTH",
"351 558 OFFCURVE",
"381 556 OFFCURVE",
"407 551 CURVE SMOOTH",
"433 546 OFFCURVE",
"456 538 OFFCURVE",
"483 529 CURVE"
);
}
);
width = 518;
}
);
unicode = 0043;
},
{
glyphname = Ccedilla;
lastChange = "2014-08-17 19:12:41 +0530";
layers = (
{
layerId = "CFA4B904-E3F1-48B6-A7F6-47DC1FF2A3E1";
name = Regular;
paths = (
{
closed = 1;
nodes = (
"273 -171 OFFCURVE",
"251 -166 OFFCURVE",
"217 -157 CURVE",
"205 -153 LINE",
"189 -206 LINE",
"228 -217 OFFCURVE",
"258 -226 OFFCURVE",
"292 -226 CURVE SMOOTH",
"345 -226 OFFCURVE",
"384 -190 OFFCURVE",
"384 -145 CURVE SMOOTH",
"384 -82 OFFCURVE",
"335 -65 OFFCURVE",
"300 -55 CURVE",
"288 -52 LINE",
"298 -8 LINE",
"306 -9 OFFCURVE",
"313 -9 OFFCURVE",
"320 -9 CURVE SMOOTH",
"384 -9 OFFCURVE",
"438 3 OFFCURVE",
"486 27 CURVE",
"470 79 LINE",
"427 62 OFFCURVE",
"385 52 OFFCURVE",
"340 52 CURVE SMOOTH",
"297 52 OFFCURVE",
"258 62 OFFCURVE",
"225 81 CURVE SMOOTH",
"162 117 OFFCURVE",
"119 184 OFFCURVE",
"119 277 CURVE SMOOTH",
"119 341 OFFCURVE",
"139 393 OFFCURVE",
"177 435 CURVE SMOOTH",
"208 468 OFFCURVE",
"264 498 OFFCURVE",
"326 498 CURVE SMOOTH",
"388 498 OFFCURVE",
"410 493 OFFCURVE",
"462 475 CURVE",
"479 529 LINE",
"427 549 OFFCURVE",
"387 558 OFFCURVE",
"314 558 CURVE SMOOTH",
"233 558 OFFCURVE",
"162 522 OFFCURVE",
"121 478 CURVE SMOOTH",
"78 434 OFFCURVE",
"44 363 OFFCURVE",
"44 276 CURVE SMOOTH",
"44 192 OFFCURVE",
"69 123 OFFCURVE",
"119 71 CURVE SMOOTH",
"149 41 OFFCURVE",
"189 14 OFFCURVE",
"240 2 CURVE",
"219 -91 LINE",
"284 -106 LINE SMOOTH",
"310 -112 OFFCURVE",
"326 -121 OFFCURVE",
"326 -142 CURVE SMOOTH",
"326 -164 OFFCURVE",
"308 -174 OFFCURVE",
"284 -172 CURVE SMOOTH"
);
}
);
width = 516;
}
);
unicode = 00C7;
},
{
glyphname = D;
lastChange = "2014-08-18 12:22:43 +0530";
layers = (
{
anchors = (
{
name = top.cap;
position = "{219, 550}";
}
);
layerId = "CFA4B904-E3F1-48B6-A7F6-47DC1FF2A3E1";
name = Regular;
paths = (
{
closed = 1;
nodes = (
"256 58 LINE SMOOTH",
"351 58 OFFCURVE",
"399 100 OFFCURVE",
"427 159 CURVE SMOOTH",
"443 192 OFFCURVE",
"447 232 OFFCURVE",
"447 275 CURVE SMOOTH",
"447 318 OFFCURVE",
"439 356 OFFCURVE",
"424 389 CURVE",
"409 418 OFFCURVE",
"392 444 OFFCURVE",
"365 463 CURVE SMOOTH",
"338 482 OFFCURVE",
"304 493 OFFCURVE",
"256 493 CURVE SMOOTH",
"133 493 LINE",
"133 58 LINE"
);
},
{
closed = 1;
nodes = (
"67 0 LINE",
"67 550 LINE",
"261 550 LINE SMOOTH",
"374 550 OFFCURVE",
"448 500 OFFCURVE",
"488 424 CURVE SMOOTH",
"509 381 OFFCURVE",
"520 332 OFFCURVE",
"520 275 CURVE SMOOTH",
"520 219 OFFCURVE",
"511 170 OFFCURVE",
"488 127 CURVE SMOOTH",
"448 48 OFFCURVE",
"374 0 OFFCURVE",
"261 0 CURVE SMOOTH"
);
}
);
width = 558;
}
);
unicode = 0044;
},
{
glyphname = Eth;
lastChange = "2014-08-17 19:08:17 +0530";
layers = (
{
layerId = "CFA4B904-E3F1-48B6-A7F6-47DC1FF2A3E1";
name = Regular;
paths = (
{
closed = 1;
nodes = (
"554 354 OFFCURVE",
"542 403 OFFCURVE",
"518 439 CURVE SMOOTH",
"465 520 OFFCURVE",
"390 550 OFFCURVE",
"260 550 CURVE SMOOTH",
"106 550 LINE",
"106 308 LINE",
"13 308 LINE",
"13 256 LINE",
"106 256 LINE",
"106 0 LINE",
"275 0 LINE SMOOTH",
"460 5 OFFCURVE",
"554 107 OFFCURVE",
"554 296 CURVE SMOOTH"
);
},
{
closed = 1;
nodes = (
"296 256 LINE",
"296 308 LINE",
"172 308 LINE",
"172 494 LINE",
"279 494 LINE SMOOTH",
"299 494 OFFCURVE",
"317 493 OFFCURVE",
"331 490 CURVE",
"417 475 OFFCURVE",
"488 395 OFFCURVE",
"488 287 CURVE SMOOTH",
"488 237 OFFCURVE",
"478 192 OFFCURVE",
"463 159 CURVE SMOOTH",
"439 110 OFFCURVE",
"392 72 OFFCURVE",
"332 63 CURVE",
"311 61 OFFCURVE",
"284 58 OFFCURVE",
"252 58 CURVE SMOOTH",
"172 58 LINE",
"172 256 LINE"
);
}
);
width = 592;
}
);
unicode = 00D0;
},
{
glyphname = E;
lastChange = "2014-08-17 18:33:54 +0530";
layers = (
{
anchors = (
{
name = top.cap;
position = "{228, 550}";
}
);
layerId = "CFA4B904-E3F1-48B6-A7F6-47DC1FF2A3E1";
name = Regular;
paths = (
{
closed = 1;
nodes = (
"67 550 LINE",
"389 550 LINE",
"389 494 LINE",
"133 494 LINE",
"133 313 LINE",
"369 313 LINE",
"369 256 LINE",
"133 256 LINE",
"133 58 LINE",
"389 58 LINE",
"389 0 LINE",
"67 0 LINE"
);
}
);
width = 442;
}
);
unicode = 0045;
},
{
glyphname = Eogonek;
lastChange = "2014-08-17 19:16:12 +0530";
layers = (
{
layerId = "CFA4B904-E3F1-48B6-A7F6-47DC1FF2A3E1";
name = Regular;
paths = (
{
closed = 1;
nodes = (
"266 -93 OFFCURVE",
"284 -66 OFFCURVE",
"322 -38 CURVE SMOOTH",
"389 10 LINE",
"389 58 LINE",
"133 58 LINE",
"133 256 LINE",
"368 256 LINE",
"368 313 LINE",
"133 313 LINE",
"133 494 LINE",
"389 494 LINE",
"389 550 LINE",
"67 550 LINE",
"67 0 LINE",
"300 0 LINE",
"292 -6 LINE",
"245 -37 OFFCURVE",
"210 -82 OFFCURVE",
"210 -129 CURVE SMOOTH",
"210 -181 OFFCURVE",
"242 -210 OFFCURVE",
"288 -210 CURVE SMOOTH",
"321 -210 OFFCURVE",
"358 -197 OFFCURVE",
"391 -172 CURVE",
"370 -136 LINE",
"344 -151 OFFCURVE",
"324 -159 OFFCURVE",
"305 -159 CURVE SMOOTH",
"283 -159 OFFCURVE",
"266 -147 OFFCURVE",
"266 -118 CURVE SMOOTH"
);
}
);
width = 442;
}
);
unicode = 0118;
},
{
glyphname = F;
lastChange = "2014-08-17 11:44:31 +0530";
layers = (
{
layerId = "CFA4B904-E3F1-48B6-A7F6-47DC1FF2A3E1";
name = Regular;
paths = (
{
closed = 1;
nodes = (
"133 313 LINE",
"364 313 LINE",
"364 256 LINE",
"133 256 LINE",
"133 0 LINE",
"67 0 LINE",
"67 550 LINE",
"387 550 LINE",
"387 494 LINE",
"133 494 LINE"
);
}
);
width = 424;
}
);
unicode = 0046;
},
{
glyphname = G;
lastChange = "2014-08-19 10:21:23 +0530";
layers = (
{
anchors = (
{
name = bottom;
position = "{308, 0}";
},
{
name = top.cap;
position = "{315, 550}";
}
);
layerId = "CFA4B904-E3F1-48B6-A7F6-47DC1FF2A3E1";
name = Regular;
paths = (
{
closed = 1;
nodes = (
"430 483 OFFCURVE",
"369 500 OFFCURVE",
"321 500 CURVE SMOOTH",
"240 500 OFFCURVE",
"170 451 OFFCURVE",
"140 387 CURVE SMOOTH",
"125 355 OFFCURVE",
"117 318 OFFCURVE",
"117 276 CURVE SMOOTH",
"117 184 OFFCURVE",
"160 116 OFFCURVE",
"220 81 CURVE SMOOTH",
"256 61 OFFCURVE",
"288 50 OFFCURVE",
"333 50 CURVE SMOOTH",
"376 50 OFFCURVE",
"427 66 OFFCURVE",
"458 91 CURVE",
"458 237 LINE",
"300 237 LINE",
"300 291 LINE",
"519 291 LINE",
"519 70 LINE",
"502 53 OFFCURVE",
"477 34 OFFCURVE",
"442 19 CURVE SMOOTH",
"407 3 OFFCURVE",
"364 -8 OFFCURVE",
"309 -8 CURVE SMOOTH",
"206 -8 OFFCURVE",
"122 49 OFFCURVE",
"79 130 CURVE SMOOTH",
"56 173 OFFCURVE",
"44 220 OFFCURVE",
"44 271 CURVE SMOOTH",
"44 388 OFFCURVE",
"101 477 OFFCURVE",
"177 521 CURVE SMOOTH",
"218 546 OFFCURVE",
"264 558 OFFCURVE",
"315 558 CURVE SMOOTH",
"388 558 OFFCURVE",
"443 541 OFFCURVE",
"496 510 CURVE",
"470 462 LINE"
);
}
);
width = 563;
}
);
unicode = 0047;
},
{
glyphname = H;
lastChange = "2014-08-17 19:06:47 +0530";
layers = (
{
anchors = (
{
name = top.cap;
position = "{286, 550}";
}
);
layerId = "CFA4B904-E3F1-48B6-A7F6-47DC1FF2A3E1";
name = Regular;
paths = (
{
closed = 1;
nodes = (
"505 550 LINE",
"505 0 LINE",
"439 0 LINE",
"439 247 LINE",
"133 247 LINE",
"133 0 LINE",
"67 0 LINE",
"67 550 LINE",
"133 550 LINE",
"133 307 LINE",
"439 307 LINE",
"439 550 LINE"
);
}
);
width = 573;
}
);
unicode = 0048;
},
{
glyphname = I;
lastChange = "2014-08-17 18:35:06 +0530";
layers = (
{
anchors = (
{
name = top.cap;
position = "{108, 550}";
}
);
layerId = "CFA4B904-E3F1-48B6-A7F6-47DC1FF2A3E1";
name = Regular;
paths = (
{
closed = 1;
nodes = (
"141 550 LINE",
"141 0 LINE",
"76 0 LINE",
"76 550 LINE"
);
}
);
width = 217;
}
);
unicode = 0049;
},
{
glyphname = IJ;
lastChange = "2014-08-19 08:29:23 +0530";
layers = (
{
layerId = "CFA4B904-E3F1-48B6-A7F6-47DC1FF2A3E1";
name = Regular;
paths = (
{
closed = 1;
nodes = (
"369 161 LINE SMOOTH",
"369 145 OFFCURVE",
"368 130 OFFCURVE",
"365 121 CURVE",
"353 77 OFFCURVE",
"312 50 OFFCURVE",
"256 50 CURVE SMOOTH",
"237 50 OFFCURVE",
"219 53 OFFCURVE",
"199 58 CURVE",
"189 2 LINE",
"216 -4 OFFCURVE",
"240 -7 OFFCURVE",
"264 -7 CURVE SMOOTH",
"323 -7 OFFCURVE",
"367 9 OFFCURVE",
"396 42 CURVE",
"426 72 OFFCURVE",
"435 105 OFFCURVE",
"435 165 CURVE SMOOTH",
"435 550 LINE",
"369 550 LINE"
);
},
{
closed = 1;
nodes = (
"76 0 LINE",
"141 0 LINE",
"141 550 LINE",
"76 550 LINE"
);
}
);
width = 495;
}
);
unicode = 0132;
},
{
glyphname = Iogonek;
lastChange = "2014-08-19 08:27:30 +0530";
layers = (
{
layerId = "CFA4B904-E3F1-48B6-A7F6-47DC1FF2A3E1";
name = Regular;
paths = (
{
closed = 1;
nodes = (
"39 -5 LINE",
"-10 -36 OFFCURVE",
"-44 -82 OFFCURVE",
"-44 -129 CURVE SMOOTH",
"-44 -181 OFFCURVE",
"-11 -210 OFFCURVE",
"34 -210 CURVE SMOOTH",
"66 -210 OFFCURVE",
"104 -197 OFFCURVE",
"137 -172 CURVE",
"117 -136 LINE",
"91 -151 OFFCURVE",
"72 -159 OFFCURVE",
"51 -159 CURVE SMOOTH",
"29 -159 OFFCURVE",
"11 -147 OFFCURVE",
"11 -118 CURVE SMOOTH",
"11 -93 OFFCURVE",
"29 -66 OFFCURVE",
"67 -38 CURVE SMOOTH",
"136 10 LINE",
"136 550 LINE",
"69 550 LINE",
"69 16 LINE"
);
}
);
width = 212;
}
);
unicode = 012E;
},
{
glyphname = J;
lastChange = "2014-08-17 18:37:22 +0530";
layers = (
{
anchors = (
{
name = top.cap;
position = "{220, 550}";
}
);
layerId = "CFA4B904-E3F1-48B6-A7F6-47DC1FF2A3E1";
name = Regular;
paths = (
{
closed = 1;
nodes = (
"253 550 LINE",
"253 165 LINE SMOOTH",
"253 105 OFFCURVE",
"244 73 OFFCURVE",
"216 42 CURVE SMOOTH",
"185 9 OFFCURVE",
"141 -7 OFFCURVE",
"83 -7 CURVE SMOOTH",
"58 -7 OFFCURVE",
"33 -4 OFFCURVE",
"9 2 CURVE",
"18 58 LINE",
"39 53 OFFCURVE",
"58 50 OFFCURVE",
"73 50 CURVE SMOOTH",
"132 50 OFFCURVE",
"172 77 OFFCURVE",
"184 121 CURVE",
"187 130 OFFCURVE",
"188 145 OFFCURVE",
"188 161 CURVE SMOOTH",
"188 550 LINE"
);
}
);
width = 313;
}
);
unicode = 004A;
},
{
glyphname = K;
lastChange = "2014-08-19 08:33:44 +0530";
layers = (
{
anchors = (
{
name = bottom;
position = "{254, 0}";
}
);
layerId = "CFA4B904-E3F1-48B6-A7F6-47DC1FF2A3E1";
name = Regular;
paths = (
{
closed = 1;
nodes = (
"133 550 LINE",
"133 0 LINE",
"67 0 LINE",
"67 550 LINE"
);
},
{
closed = 1;
nodes = (
"459 550 LINE",
"225 288 LINE",
"474 0 LINE",
"388 0 LINE",
"142 282 LINE",
"375 550 LINE"
);
}
);
width = 497;
}
);
unicode = 004B;
},
{
glyphname = L;
lastChange = "2014-08-19 08:38:06 +0530";
layers = (
{
anchors = (
{
name = bottom;
position = "{223, 0}";
},
{
name = top.cap;
position = "{176, 550}";
}
);
layerId = "CFA4B904-E3F1-48B6-A7F6-47DC1FF2A3E1";
name = Regular;
paths = (
{
closed = 1;
nodes = (
"133 550 LINE",
"133 58 LINE",
"380 58 LINE",
"380 0 LINE",
"67 0 LINE",
"67 550 LINE"
);
}
);
width = 400;
}
);
unicode = 004C;
},
{
glyphname = Lcaron;
layers = (
{
layerId = "CFA4B904-E3F1-48B6-A7F6-47DC1FF2A3E1";
name = Regular;
paths = (
{
closed = 1;
nodes = (
"67 0 LINE",
"380 0 LINE",
"380 58 LINE",
"133 58 LINE",
"133 550 LINE",
"67 550 LINE"
);
},
{
closed = 1;
nodes = (
"208 435 LINE",
"259 435 LINE",
"307 586 LINE",
"240 586 LINE"
);
}
);
width = 400;
}
);
unicode = 013D;
},
{
glyphname = Lslash;
lastChange = "2014-08-19 08:54:21 +0530";
layers = (
{
layerId = "CFA4B904-E3F1-48B6-A7F6-47DC1FF2A3E1";
name = Regular;
paths = (
{
closed = 1;
nodes = (
"85 282 LINE",
"9 238 LINE",
"9 170 LINE",
"85 215 LINE",
"85 0 LINE",
"398 0 LINE",
"398 58 LINE",
"151 58 LINE",
"151 253 LINE",
"252 312 LINE",
"252 380 LINE",
"151 321 LINE",
"151 550 LINE",
"85 550 LINE"
);
}
);
width = 418;
}
);
unicode = 0141;
},
{
glyphname = M;
lastChange = "2014-08-17 11:54:15 +0530";
layers = (
{
layerId = "CFA4B904-E3F1-48B6-A7F6-47DC1FF2A3E1";
name = Regular;
paths = (
{
closed = 1;
nodes = (
"161 550 LINE",
"336 217 LINE",
"517 550 LINE",
"604 550 LINE",
"604 0 LINE",
"538 0 LINE",
"538 457 LINE",
"369 158 LINE",
"302 158 LINE",
"133 457 LINE",
"133 0 LINE",
"67 0 LINE",
"67 550 LINE"
);
}
);
width = 672;
}
);
unicode = 004D;
},
{
glyphname = N;
lastChange = "2014-08-19 08:34:56 +0530";
layers = (
{
anchors = (
{
name = bottom;
position = "{278, 0}";
},
{
name = top.cap;
position = "{296, 550}";
}
);
layerId = "CFA4B904-E3F1-48B6-A7F6-47DC1FF2A3E1";
name = Regular;
paths = (
{
closed = 1;
nodes = (
"147 550 LINE",
"446 89 LINE",
"446 550 LINE",
"514 550 LINE",
"514 0 LINE",
"429 0 LINE",
"129 463 LINE",
"129 0 LINE",
"63 0 LINE",
"63 550 LINE"
);
}
);
width = 574;
}
);
unicode = 004E;
},
{
glyphname = O;
lastChange = "2014-08-17 18:37:54 +0530";
layers = (
{
anchors = (
{
name = top.cap;
position = "{302, 550}";
}
);
layerId = "CFA4B904-E3F1-48B6-A7F6-47DC1FF2A3E1";
name = Regular;
paths = (
{
closed = 1;
nodes = (
"189 556 OFFCURVE",
"116 500 OFFCURVE",
"76 424 CURVE SMOOTH",
"53 380 OFFCURVE",
"44 331 OFFCURVE",
"44 275 CURVE SMOOTH",
"44 219 OFFCURVE",
"53 169 OFFCURVE",
"76 127 CURVE SMOOTH",
"116 49 OFFCURVE",
"189 -7 OFFCURVE",
"302 -7 CURVE SMOOTH",
"415 -7 OFFCURVE",
"490 49 OFFCURVE",
"530 127 CURVE SMOOTH",
"550 169 OFFCURVE",
"562 219 OFFCURVE",
"562 275 CURVE SMOOTH",
"562 331 OFFCURVE",
"550 380 OFFCURVE",
"530 424 CURVE",
"490 500 OFFCURVE",
"415 556 OFFCURVE",
"302 556 CURVE SMOOTH"
);
},
{
closed = 1;
nodes = (
"212 51 OFFCURVE",
"168 101 OFFCURVE",
"140 161 CURVE",
"123 194 OFFCURVE",
"117 232 OFFCURVE",
"117 275 CURVE SMOOTH",
"117 317 OFFCURVE",
"123 355 OFFCURVE",
"140 389 CURVE SMOOTH",
"168 447 OFFCURVE",
"212 498 OFFCURVE",
"302 498 CURVE SMOOTH",
"392 498 OFFCURVE",
"438 447 OFFCURVE",
"465 389 CURVE SMOOTH",
"481 355 OFFCURVE",
"489 317 OFFCURVE",
"489 275 CURVE SMOOTH",
"489 232 OFFCURVE",
"481 194 OFFCURVE",
"465 161 CURVE SMOOTH",
"438 101 OFFCURVE",
"392 51 OFFCURVE",
"302 51 CURVE SMOOTH"
);
}
);
width = 606;
}
);
unicode = 004F;
},
{
glyphname = Oslash;
layers = (
{
layerId = "CFA4B904-E3F1-48B6-A7F6-47DC1FF2A3E1";
name = Regular;
paths = (
{
closed = 1;
nodes = (
"72 -8 LINE",
"144 62 LINE",
"187 20 OFFCURVE",
"244 -7 OFFCURVE",
"323 -7 CURVE SMOOTH",
"435 -7 OFFCURVE",
"508 49 OFFCURVE",
"548 127 CURVE SMOOTH",
"568 169 OFFCURVE",
"579 219 OFFCURVE",
"579 275 CURVE SMOOTH",
"579 331 OFFCURVE",
"568 383 OFFCURVE",
"539 437 CURVE",
"617 511 LINE",
"575 556 LINE",
"502 486 LINE",
"459 529 OFFCURVE",
"402 556 OFFCURVE",
"323 556 CURVE SMOOTH",
"209 556 OFFCURVE",
"136 500 OFFCURVE",
"97 424 CURVE SMOOTH",
"76 380 OFFCURVE",
"65 331 OFFCURVE",
"65 275 CURVE SMOOTH",
"65 219 OFFCURVE",
"76 169 OFFCURVE",
"97 127 CURVE SMOOTH",
"106 109 LINE",
"30 37 LINE"
);
},
{
closed = 1;
nodes = (
"136 317 OFFCURVE",
"144 355 OFFCURVE",
"160 389 CURVE SMOOTH",
"188 447 OFFCURVE",
"232 498 OFFCURVE",
"323 498 CURVE SMOOTH",
"385 498 OFFCURVE",
"425 475 OFFCURVE",
"454 440 CURVE",
"160 160 LINE",
"160 161 LINE",
"144 194 OFFCURVE",
"136 232 OFFCURVE",
"136 275 CURVE SMOOTH"
);
},
{
closed = 1;
nodes = (
"260 51 OFFCURVE",
"221 74 OFFCURVE",
"193 107 CURVE",
"485 387 LINE",
"502 353 OFFCURVE",
"509 315 OFFCURVE",
"509 275 CURVE SMOOTH",
"509 232 OFFCURVE",
"502 194 OFFCURVE",
"485 161 CURVE",
"458 101 OFFCURVE",
"412 51 OFFCURVE",
"323 51 CURVE SMOOTH"
);
}
);
width = 647;
}
);
unicode = 00D8;
},
{
glyphname = OE;
lastChange = "2014-08-18 12:36:10 +0530";
layers = (
{
layerId = "CFA4B904-E3F1-48B6-A7F6-47DC1FF2A3E1";
name = Regular;
paths = (
{
closed = 1;
nodes = (
"109 390 OFFCURVE",
"167 473 OFFCURVE",
"272 489 CURVE SMOOTH",
"289 491 OFFCURVE",
"314 494 OFFCURVE",
"346 494 CURVE SMOOTH",
"368 494 LINE",
"368 58 LINE",
"318 58 LINE SMOOTH",
"297 58 OFFCURVE",
"279 59 OFFCURVE",
"267 62 CURVE",
"180 77 OFFCURVE",
"109 153 OFFCURVE",
"109 264 CURVE SMOOTH"
);
},
{
closed = 1;
nodes = (
"311 550 OFFCURVE",
"262 547 OFFCURVE",
"230 539 CURVE SMOOTH",
"109 510 OFFCURVE",
"44 419 OFFCURVE",
"44 272 CURVE SMOOTH",
"44 205 OFFCURVE",
"58 149 OFFCURVE",
"86 105 CURVE SMOOTH",
"136 28 OFFCURVE",
"208 0 OFFCURVE",
"337 0 CURVE SMOOTH",
"674 0 LINE",
"674 58 LINE",
"434 58 LINE",
"434 256 LINE",
"653 256 LINE",
"653 313 LINE",
"434 313 LINE",
"434 494 LINE",
"674 494 LINE",
"674 550 LINE",
"372 550 LINE SMOOTH"
);
}
);
width = 725;
}
);
unicode = 0152;
},
{
glyphname = P;
lastChange = "2014-08-17 11:55:24 +0530";
layers = (
{
layerId = "CFA4B904-E3F1-48B6-A7F6-47DC1FF2A3E1";
name = Regular;
paths = (
{
closed = 1;
nodes = (
"184 286 OFFCURVE",
"160 287 OFFCURVE",
"133 289 CURVE",
"133 494 LINE",
"205 494 LINE SMOOTH",
"240 494 OFFCURVE",
"264 493 OFFCURVE",
"275 490 CURVE",
"329 485 OFFCURVE",
"367 452 OFFCURVE",
"367 392 CURVE SMOOTH",
"367 296 OFFCURVE",
"294 286 OFFCURVE",
"205 286 CURVE SMOOTH"
);
},
{
closed = 1;
nodes = (
"433 465 OFFCURVE",
"395 519 OFFCURVE",
"331 541 CURVE",
"316 545 OFFCURVE",
"300 550 OFFCURVE",
"240 550 CURVE SMOOTH",
"67 550 LINE",
"67 0 LINE",
"133 0 LINE",
"133 230 LINE",
"157 228 OFFCURVE",
"179 228 OFFCURVE",
"199 228 CURVE SMOOTH",
"245 228 OFFCURVE",
"301 233 OFFCURVE",
"331 243 CURVE SMOOTH",
"389 262 OFFCURVE",
"430 314 OFFCURVE",
"433 388 CURVE"
);
}
);
width = 465;
}
);
unicode = 0050;
},
{
glyphname = Thorn;
lastChange = "2014-08-18 12:42:12 +0530";
layers = (
{
layerId = "CFA4B904-E3F1-48B6-A7F6-47DC1FF2A3E1";
name = Regular;
paths = (
{
closed = 1;
nodes = (
"201 450 OFFCURVE",
"168 448 OFFCURVE",
"129 445 CURVE",
"129 550 LINE",
"63 550 LINE",
"63 0 LINE",
"129 0 LINE",
"129 129 LINE",
"153 127 OFFCURVE",
"175 126 OFFCURVE",
"196 126 CURVE SMOOTH",
"237 126 OFFCURVE",
"296 132 OFFCURVE",
"319 139 CURVE SMOOTH",
"388 159 OFFCURVE",
"430 216 OFFCURVE",
"430 292 CURVE SMOOTH",
"430 396 OFFCURVE",
"357 450 OFFCURVE",
"231 450 CURVE SMOOTH"
);
},
{
closed = 1;
nodes = (
"364 205 OFFCURVE",
"304 185 OFFCURVE",
"209 185 CURVE SMOOTH",
"187 185 OFFCURVE",
"160 185 OFFCURVE",
"129 188 CURVE",
"129 388 LINE",
"160 389 OFFCURVE",
"187 390 OFFCURVE",
"210 390 CURVE SMOOTH",
"299 390 OFFCURVE",
"364 370 OFFCURVE",
"364 292 CURVE SMOOTH"
);
}
);
width = 464;
}
);
unicode = 00DE;
},
{
glyphname = Q;
lastChange = "2014-08-17 11:56:18 +0530";
layers = (
{
layerId = "CFA4B904-E3F1-48B6-A7F6-47DC1FF2A3E1";
name = Regular;
paths = (
{
closed = 1;
nodes = (
"190 556 OFFCURVE",
"116 500 OFFCURVE",
"76 424 CURVE SMOOTH",
"53 380 OFFCURVE",
"44 331 OFFCURVE",
"44 275 CURVE SMOOTH",
"44 219 OFFCURVE",
"53 169 OFFCURVE",
"76 127 CURVE SMOOTH",
"116 49 OFFCURVE",
"190 -7 OFFCURVE",
"304 -7 CURVE SMOOTH",
"370 -7 OFFCURVE",
"427 13 OFFCURVE",
"466 47 CURVE",
"541 -22 LINE",
"582 21 LINE",
"507 89 LINE",
"516 101 OFFCURVE",
"523 113 OFFCURVE",
"530 127 CURVE SMOOTH",
"552 169 OFFCURVE",
"562 219 OFFCURVE",
"562 275 CURVE SMOOTH",
"562 331 OFFCURVE",
"552 380 OFFCURVE",
"530 424 CURVE SMOOTH",
"490 500 OFFCURVE",
"416 556 OFFCURVE",
"304 556 CURVE SMOOTH"
);
},
{
closed = 1;
nodes = (
"302 204 LINE",
"423 90 LINE",
"393 66 OFFCURVE",
"354 51 OFFCURVE",
"304 51 CURVE SMOOTH",
"214 51 OFFCURVE",
"169 101 OFFCURVE",
"141 161 CURVE SMOOTH",
"125 194 OFFCURVE",
"117 232 OFFCURVE",
"117 275 CURVE SMOOTH",
"117 317 OFFCURVE",
"125 355 OFFCURVE",
"141 389 CURVE SMOOTH",
"169 447 OFFCURVE",
"214 498 OFFCURVE",
"304 498 CURVE SMOOTH",
"393 498 OFFCURVE",
"439 447 OFFCURVE",
"466 389 CURVE SMOOTH",
"483 355 OFFCURVE",
"490 317 OFFCURVE",
"490 275 CURVE SMOOTH",
"490 225 OFFCURVE",
"480 175 OFFCURVE",
"459 136 CURVE",
"344 245 LINE"
);
}
);
width = 610;
}
);
unicode = 0051;
},
{
glyphname = R;
lastChange = "2014-08-19 08:36:38 +0530";
layers = (
{
anchors = (
{
name = bottom;
position = "{259, 0}";
},
{
name = top.cap;
position = "{222, 550}";
}
);
layerId = "CFA4B904-E3F1-48B6-A7F6-47DC1FF2A3E1";
name = Regular;
paths = (
{
closed = 1;
nodes = (
"463 0 LINE",
"307 237 LINE",
"383 257 OFFCURVE",
"432 313 OFFCURVE",
"433 388 CURVE SMOOTH",
"433 464 OFFCURVE",
"395 519 OFFCURVE",
"331 541 CURVE",
"316 545 OFFCURVE",
"300 550 OFFCURVE",
"240 550 CURVE SMOOTH",
"67 550 LINE",
"67 0 LINE",
"133 0 LINE",
"133 228 LINE",
"238 228 LINE",
"388 0 LINE"
);
},
{
closed = 1;
nodes = (
"184 286 OFFCURVE",
"160 287 OFFCURVE",
"133 289 CURVE",
"133 494 LINE",
"205 494 LINE SMOOTH",
"240 494 OFFCURVE",
"264 493 OFFCURVE",
"275 490 CURVE",
"329 485 OFFCURVE",
"367 452 OFFCURVE",
"367 392 CURVE SMOOTH",
"367 296 OFFCURVE",
"294 286 OFFCURVE",
"205 286 CURVE SMOOTH"
);
}
);
width = 496;
}
);
unicode = 0052;
},
{
glyphname = S;
lastChange = "2014-08-22 19:26:13 +0530";
layers = (
{
anchors = (
{
name = bottom;
position = "{209, 2}";
},
{
name = top.cap;
position = "{238, 549}";
}
);
background = {
paths = (
{
closed = 1;
nodes = (
"171 60 OFFCURVE",
"127 69 OFFCURVE",
"63 93 CURVE",
"40 29 LINE",
"97 9 OFFCURVE",
"137 -8 OFFCURVE",
"207 -8 CURVE SMOOTH",
"315 -8 OFFCURVE",
"420 40 OFFCURVE",
"420 149 CURVE SMOOTH",
"420 190 OFFCURVE",
"404 226 OFFCURVE",
"370 249 CURVE",
"319 287 OFFCURVE",
"231 313 OFFCURVE",
"169 345 CURVE",
"137 360 OFFCURVE",
"121 386 OFFCURVE",
"121 415 CURVE SMOOTH",
"121 468 OFFCURVE",
"169 497 OFFCURVE",
"246 497 CURVE SMOOTH",
"285 497 OFFCURVE",
"330 481 OFFCURVE",
"370 465 CURVE",
"389 524 LINE",
"344 543 OFFCURVE",
"288 562 OFFCURVE",
"238 562 CURVE SMOOTH",
"180 562 OFFCURVE",
"141 550 OFFCURVE",
"102 521 CURVE SMOOTH",
"71 497 OFFCURVE",
"53 459 OFFCURVE",
"53 408 CURVE SMOOTH",
"53 359 OFFCURVE",
"85 315 OFFCURVE",
"117 296 CURVE SMOOTH",
"167 266 OFFCURVE",
"233 246 OFFCURVE",
"290 220 CURVE",
"329 204 OFFCURVE",
"349 178 OFFCURVE",
"349 145 CURVE SMOOTH",
"349 85 OFFCURVE",
"282 60 OFFCURVE",
"209 60 CURVE SMOOTH"
);
}
);
};
layerId = "CFA4B904-E3F1-48B6-A7F6-47DC1FF2A3E1";
name = Regular;
paths = (
{
closed = 1;
nodes = (
"171 60 OFFCURVE",
"127 69 OFFCURVE",
"63 93 CURVE",
"40 29 LINE",
"97 9 OFFCURVE",
"137 -8 OFFCURVE",
"207 -8 CURVE SMOOTH",
"315 -8 OFFCURVE",
"420 40 OFFCURVE",
"420 149 CURVE SMOOTH",
"420 253 OFFCURVE",
"323 278 OFFCURVE",
"238 313 CURVE SMOOTH",
"189 333 OFFCURVE",
"121 357 OFFCURVE",
"121 415 CURVE SMOOTH",
"121 468 OFFCURVE",
"169 497 OFFCURVE",
"246 497 CURVE SMOOTH",
"285 497 OFFCURVE",
"330 481 OFFCURVE",
"370 465 CURVE",
"389 524 LINE",
"344 543 OFFCURVE",
"288 562 OFFCURVE",
"238 562 CURVE SMOOTH",
"180 562 OFFCURVE",
"141 550 OFFCURVE",
"102 521 CURVE SMOOTH",
"71 497 OFFCURVE",
"53 459 OFFCURVE",
"53 408 CURVE SMOOTH",
"53 324 OFFCURVE",
"119 290 OFFCURVE",
"202 257 CURVE SMOOTH",
"265 232 OFFCURVE",
"349 209 OFFCURVE",
"349 145 CURVE SMOOTH",
"349 85 OFFCURVE",
"282 60 OFFCURVE",
"209 60 CURVE SMOOTH"
);
}
);
width = 462;
}
);
unicode = 0053;
},
{
glyphname = T;
lastChange = "2014-08-19 10:09:49 +0530";
layers = (
{
anchors = (
{
name = bottom;
position = "{219, 0}";
},
{
name = top.cap;
position = "{223, 550}";
}
);
layerId = "CFA4B904-E3F1-48B6-A7F6-47DC1FF2A3E1";
name = Regular;
paths = (
{
closed = 1;
nodes = (
"442 550 LINE",
"442 494 LINE",
"257 494 LINE",
"257 0 LINE",
"191 0 LINE",
"191 494 LINE",
"9 494 LINE",
"9 550 LINE"
);
}
);
width = 451;
}
);
unicode = 0054;
},
{
glyphname = Tcedilla;
lastChange = "2014-08-19 10:13:17 +0530";
layers = (
{
layerId = "CFA4B904-E3F1-48B6-A7F6-47DC1FF2A3E1";
name = Regular;
paths = (
{
closed = 1;
nodes = (
"228 -171 OFFCURVE",
"206 -166 OFFCURVE",
"171 -157 CURVE",
"160 -153 LINE",
"145 -206 LINE",
"158 -209 LINE",
"202 -221 LINE",
"214 -225 OFFCURVE",
"224 -226 OFFCURVE",
"241 -226 CURVE SMOOTH",
"299 -226 OFFCURVE",
"337 -190 OFFCURVE",
"337 -145 CURVE SMOOTH",
"337 -82 OFFCURVE",
"291 -67 OFFCURVE",
"256 -57 CURVE",
"244 -52 LINE",
"257 0 LINE",
"257 494 LINE",
"442 494 LINE",
"442 550 LINE",
"9 550 LINE",
"9 494 LINE",
"191 494 LINE",
"191 0 LINE",
"171 -91 LINE",
"238 -106 LINE SMOOTH",
"256 -110 OFFCURVE",
"279 -121 OFFCURVE",
"279 -142 CURVE SMOOTH",
"279 -164 OFFCURVE",
"261 -174 OFFCURVE",
"238 -172 CURVE SMOOTH"
);
}
);
width = 451;
}
);
unicode = 0162;
},
{
glyphname = U;
lastChange = "2014-08-17 18:44:28 +0530";
layers = (
{
anchors = (
{
name = top.cap;
position = "{271, 550}";
}
);
layerId = "CFA4B904-E3F1-48B6-A7F6-47DC1FF2A3E1";
name = Regular;
paths = (
{
closed = 1;
nodes = (
"421 -9 OFFCURVE",
"480 66 OFFCURVE",
"480 210 CURVE SMOOTH",
"480 550 LINE",
"415 550 LINE",
"415 194 LINE SMOOTH",
"415 161 OFFCURVE",
"408 133 OFFCURVE",
"396 110 CURVE SMOOTH",
"375 69 OFFCURVE",
"334 49 OFFCURVE",
"271 49 CURVE SMOOTH",
"207 49 OFFCURVE",
"167 69 OFFCURVE",
"145 110 CURVE SMOOTH",
"133 133 OFFCURVE",
"127 161 OFFCURVE",
"127 194 CURVE SMOOTH",
"127 550 LINE",
"62 550 LINE",
"62 210 LINE SMOOTH",
"62 66 OFFCURVE",
"121 -9 OFFCURVE",
"271 -9 CURVE SMOOTH"
);
}
);
width = 542;
}
);
unicode = 0055;
},
{
glyphname = Uogonek;
lastChange = "2014-08-19 10:26:54 +0530";
layers = (
{
background = {
paths = (
{
closed = 1;
nodes = (
"315 -211 OFFCURVE",
"358 -200 OFFCURVE",
"393 -174 CURVE",
"372 -133 LINE",
"348 -150 OFFCURVE",
"324 -159 OFFCURVE",
"298 -159 CURVE SMOOTH",
"271 -159 OFFCURVE",
"260 -142 OFFCURVE",
"260 -118 CURVE SMOOTH",
"260 -95 OFFCURVE",
"273 -69 OFFCURVE",
"299 -41 CURVE",
"333 -11 OFFCURVE",
"377 10 OFFCURVE",
"421 34 CURVE",
"460 62 OFFCURVE",
"479 116 OFFCURVE",
"480 177 CURVE SMOOTH",
"480 550 LINE",
"415 550 LINE",
"415 194 LINE SMOOTH",
"415 171 OFFCURVE",
"413 152 OFFCURVE",
"408 137 CURVE",
"394 81 OFFCURVE",
"339 49 OFFCURVE",
"271 49 CURVE SMOOTH",
"221 49 OFFCURVE",
"181 64 OFFCURVE",
"158 91 CURVE SMOOTH",
"133 119 OFFCURVE",
"128 145 OFFCURVE",
"128 194 CURVE SMOOTH",
"128 550 LINE",
"62 550 LINE",
"62 240 LINE",
"62 202 LINE SMOOTH",
"62 182 OFFCURVE",
"62 165 OFFCURVE",
"63 149 CURVE SMOOTH",
"71 46 OFFCURVE",
"149 -10 OFFCURVE",
"270 -10 CURVE",
"256 -22 OFFCURVE",
"237 -38 OFFCURVE",
"225 -60 CURVE",
"210 -82 OFFCURVE",
"205 -105 OFFCURVE",
"205 -132 CURVE SMOOTH",
"205 -175 OFFCURVE",
"239 -211 OFFCURVE",
"288 -211 CURVE SMOOTH"
);
}
);
};
layerId = "CFA4B904-E3F1-48B6-A7F6-47DC1FF2A3E1";
name = Regular;
paths = (
{
closed = 1;
nodes = (
"315 -211 OFFCURVE",
"358 -200 OFFCURVE",
"393 -174 CURVE",
"372 -133 LINE",
"348 -150 OFFCURVE",
"324 -159 OFFCURVE",
"298 -159 CURVE SMOOTH",
"271 -159 OFFCURVE",
"260 -142 OFFCURVE",
"260 -118 CURVE SMOOTH",
"260 -58 OFFCURVE",
"335 -12 OFFCURVE",
"384 14 CURVE SMOOTH",
"446 47 OFFCURVE",
"480 90 OFFCURVE",
"480 182 CURVE SMOOTH",
"480 550 LINE",
"415 550 LINE",
"415 194 LINE SMOOTH",
"415 171 OFFCURVE",
"413 152 OFFCURVE",
"408 137 CURVE",
"394 81 OFFCURVE",
"339 49 OFFCURVE",
"271 49 CURVE SMOOTH",
"221 49 OFFCURVE",
"181 64 OFFCURVE",
"158 91 CURVE SMOOTH",
"133 119 OFFCURVE",
"128 145 OFFCURVE",
"128 194 CURVE SMOOTH",
"128 550 LINE",
"62 550 LINE",
"62 245 LINE",
"62 207 LINE SMOOTH",
"62 187 OFFCURVE",
"62 170 OFFCURVE",
"63 154 CURVE SMOOTH",
"71 51 OFFCURVE",
"149 -10 OFFCURVE",
"270 -10 CURVE",
"256 -22 OFFCURVE",
"237 -38 OFFCURVE",
"225 -60 CURVE",
"210 -82 OFFCURVE",
"205 -105 OFFCURVE",
"205 -132 CURVE SMOOTH",
"205 -175 OFFCURVE",
"239 -211 OFFCURVE",
"288 -211 CURVE SMOOTH"
);
}
);
width = 542;
}
);
unicode = 0172;
},
{
glyphname = V;
lastChange = "2014-08-17 13:31:57 +0530";
layers = (
{
layerId = "CFA4B904-E3F1-48B6-A7F6-47DC1FF2A3E1";
name = Regular;
paths = (
{
closed = 1;
nodes = (
"88 550 LINE",
"245 69 LINE",
"404 550 LINE",
"476 550 LINE",
"284 0 LINE",
"201 0 LINE",
"9 550 LINE"
);
}
);
width = 485;
}
);
unicode = 0056;
},
{
glyphname = W;
lastChange = "2014-08-17 13:32:14 +0530";
layers = (
{
layerId = "CFA4B904-E3F1-48B6-A7F6-47DC1FF2A3E1";
name = Regular;
paths = (
{
closed = 1;
nodes = (
"81 550 LINE",
"219 88 LINE",
"358 550 LINE",
"425 550 LINE",
"568 88 LINE",
"703 550 LINE",
"768 550 LINE",
"603 0 LINE",
"533 0 LINE",
"388 460 LINE",
"252 0 LINE",
"182 0 LINE",
"9 550 LINE"
);
}
);
width = 777;
}
);
unicode = 0057;
},
{
glyphname = X;
lastChange = "2014-08-17 13:32:41 +0530";
layers = (
{
layerId = "CFA4B904-E3F1-48B6-A7F6-47DC1FF2A3E1";
name = Regular;
paths = (
{
closed = 1;
nodes = (
"463 550 LINE",
"288 289 LINE",
"484 0 LINE",
"399 0 LINE",
"244 232 LINE",
"89 0 LINE",
"9 0 LINE",
"207 288 LINE",
"30 550 LINE",
"111 550 LINE",
"251 344 LINE",
"388 550 LINE"
);
}
);
width = 493;
}
);
unicode = 0058;
},
{
glyphname = Y;
lastChange = "2014-08-17 18:57:03 +0530";
layers = (
{
anchors = (
{
name = top.cap;
position = "{228, 550}";
}
);
guideLines = (
{
angle = 90;
position = "{228, 453}";
}
);
layerId = "CFA4B904-E3F1-48B6-A7F6-47DC1FF2A3E1";
name = Regular;
paths = (
{
closed = 1;
nodes = (
"191 0 LINE",
"191 261 LINE",
"9 550 LINE",
"87 550 LINE",
"228 324 LINE",
"370 550 LINE",
"445 550 LINE",
"257 261 LINE",
"257 0 LINE"
);
}
);
width = 454;
}
);
unicode = 0059;
},
{
glyphname = Z;
lastChange = "2014-08-18 12:04:18 +0530";
layers = (
{
anchors = (
{
name = top.cap;
position = "{242, 550}";
}
);
layerId = "CFA4B904-E3F1-48B6-A7F6-47DC1FF2A3E1";
name = Regular;
paths = (
{
closed = 1;
nodes = (
"437 550 LINE",
"437 509 LINE",
"119 58 LINE",
"439 58 LINE",
"439 0 LINE",
"36 0 LINE",
"36 43 LINE",
"352 494 LINE",
"47 494 LINE",
"47 550 LINE"
);
}
);
width = 475;
}
);
unicode = 005A;
},
{
glyphname = a;
lastChange = "2014-08-17 17:45:35 +0530";
layers = (
{
anchors = (
{
name = top;
position = "{189, 384}";
}
);
background = {
paths = (
{
closed = 1;
nodes = (
"228 333 OFFCURVE",
"257 318 OFFCURVE",
"268 288 CURVE",
"273 276 OFFCURVE",
"276 256 OFFCURVE",
"276 228 CURVE SMOOTH",
"276 225 LINE",
"217 225 OFFCURVE",
"169 218 OFFCURVE",
"131 208 CURVE SMOOTH",
"81 196 OFFCURVE",
"38 159 OFFCURVE",
"38 96 CURVE SMOOTH",
"38 33 OFFCURVE",
"93 -10 OFFCURVE",
"161 -10 CURVE SMOOTH",
"204 -10 OFFCURVE",
"242 7 OFFCURVE",
"278 36 CURVE",
"292 0 LINE",
"341 0 LINE",
"341 248 LINE SMOOTH",
"341 312 OFFCURVE",
"328 339 OFFCURVE",
"288 368 CURVE",
"266 381 OFFCURVE",
"232 388 OFFCURVE",
"189 388 CURVE SMOOTH",
"148 388 OFFCURVE",
"105 379 OFFCURVE",
"64 365 CURVE",
"77 317 LINE",
"109 327 OFFCURVE",
"153 333 OFFCURVE",
"180 333 CURVE SMOOTH"
);
},
{
closed = 1;
nodes = (
"161 42 OFFCURVE",
"151 44 OFFCURVE",
"143 47 CURVE",
"121 58 OFFCURVE",
"101 77 OFFCURVE",
"101 103 CURVE SMOOTH",
"101 113 OFFCURVE",
"105 121 OFFCURVE",
"110 131 CURVE",
"123 152 OFFCURVE",
"145 165 OFFCURVE",
"174 171 CURVE SMOOTH",
"189 174 OFFCURVE",
"224 177 OFFCURVE",
"276 178 CURVE",
"276 86 LINE",
"248 60 OFFCURVE",
"217 42 OFFCURVE",
"170 42 CURVE SMOOTH"
);
}
);
};
layerId = "CFA4B904-E3F1-48B6-A7F6-47DC1FF2A3E1";
name = Regular;
paths = (
{
closed = 1;
nodes = (
"228 333 OFFCURVE",
"257 318 OFFCURVE",
"268 288 CURVE",
"273 276 OFFCURVE",
"276 256 OFFCURVE",
"276 228 CURVE SMOOTH",
"276 225 LINE",
"217 224 OFFCURVE",
"171 220 OFFCURVE",
"133 210 CURVE SMOOTH",
"83 198 OFFCURVE",
"38 159 OFFCURVE",
"38 96 CURVE SMOOTH",
"38 33 OFFCURVE",
"93 -10 OFFCURVE",
"161 -10 CURVE SMOOTH",
"204 -10 OFFCURVE",
"242 7 OFFCURVE",
"278 36 CURVE",
"292 0 LINE",
"341 0 LINE",
"341 248 LINE SMOOTH",
"341 312 OFFCURVE",
"328 339 OFFCURVE",
"288 368 CURVE",
"266 381 OFFCURVE",
"232 388 OFFCURVE",
"189 388 CURVE SMOOTH",
"148 388 OFFCURVE",
"105 379 OFFCURVE",
"64 365 CURVE",
"77 317 LINE",
"109 327 OFFCURVE",
"153 333 OFFCURVE",
"180 333 CURVE SMOOTH"
);
},
{
closed = 1;
nodes = (
"136 42 OFFCURVE",
"101 62 OFFCURVE",
"101 103 CURVE SMOOTH",
"101 141 OFFCURVE",
"127 160 OFFCURVE",
"174 170 CURVE SMOOTH",
"189 173 OFFCURVE",
"224 177 OFFCURVE",
"276 178 CURVE",
"276 86 LINE",
"248 60 OFFCURVE",
"217 42 OFFCURVE",
"170 42 CURVE SMOOTH"
);
}
);
width = 393;
}
);
unicode = 0061;
},
{
glyphname = aogonek;
lastChange = "2014-08-18 12:59:36 +0530";
layers = (
{
background = {
paths = (
{
closed = 1;
nodes = (
"341 312 OFFCURVE",
"328 339 OFFCURVE",
"288 368 CURVE",
"266 381 OFFCURVE",
"232 388 OFFCURVE",
"189 388 CURVE SMOOTH",
"148 388 OFFCURVE",
"105 379 OFFCURVE",
"64 365 CURVE",
"77 317 LINE",
"109 327 OFFCURVE",
"153 333 OFFCURVE",
"180 333 CURVE SMOOTH",
"228 333 OFFCURVE",
"257 318 OFFCURVE",
"268 288 CURVE",
"273 276 OFFCURVE",
"276 256 OFFCURVE",
"276 228 CURVE SMOOTH",
"276 225 LINE",
"217 224 OFFCURVE",
"171 220 OFFCURVE",
"133 210 CURVE SMOOTH",
"83 198 OFFCURVE",
"38 159 OFFCURVE",
"38 96 CURVE SMOOTH",
"38 33 OFFCURVE",
"93 -10 OFFCURVE",
"161 -10 CURVE SMOOTH",
"204 -10 OFFCURVE",
"242 7 OFFCURVE",
"278 36 CURVE",
"289 8 LINE",
"244 -19 LINE SMOOTH",
"181 -57 OFFCURVE",
"148 -93 OFFCURVE",
"148 -144 CURVE SMOOTH",
"148 -190 OFFCURVE",
"185 -214 OFFCURVE",
"227 -214 CURVE SMOOTH",
"260 -214 OFFCURVE",
"293 -200 OFFCURVE",
"332 -177 CURVE",
"313 -142 LINE",
"288 -157 OFFCURVE",
"265 -164 OFFCURVE",
"248 -164 CURVE SMOOTH",
"225 -164 OFFCURVE",
"208 -151 OFFCURVE",
"208 -123 CURVE SMOOTH",
"208 -99 OFFCURVE",
"226 -78 OFFCURVE",
"259 -57 CURVE",
"272 -48 OFFCURVE",
"304 -29 OFFCURVE",
"341 -11 CURVE",
"341 248 LINE SMOOTH"
);
},
{
closed = 1;
nodes = (
"136 42 OFFCURVE",
"101 62 OFFCURVE",
"101 103 CURVE SMOOTH",
"101 141 OFFCURVE",
"127 160 OFFCURVE",
"174 170 CURVE SMOOTH",
"189 173 OFFCURVE",
"224 177 OFFCURVE",
"276 178 CURVE",
"276 86 LINE",
"248 60 OFFCURVE",
"217 42 OFFCURVE",
"170 42 CURVE SMOOTH"
);
}
);
};
layerId = "CFA4B904-E3F1-48B6-A7F6-47DC1FF2A3E1";
name = Regular;
paths = (
{
closed = 1;
nodes = (
"341 312 OFFCURVE",
"328 339 OFFCURVE",
"288 368 CURVE",
"266 381 OFFCURVE",
"232 388 OFFCURVE",
"189 388 CURVE SMOOTH",
"148 388 OFFCURVE",
"105 379 OFFCURVE",
"64 365 CURVE",
"77 317 LINE",
"109 327 OFFCURVE",
"153 333 OFFCURVE",
"180 333 CURVE SMOOTH",
"228 333 OFFCURVE",
"257 318 OFFCURVE",
"268 288 CURVE",
"273 276 OFFCURVE",
"276 256 OFFCURVE",
"276 228 CURVE SMOOTH",
"276 225 LINE",
"217 224 OFFCURVE",
"171 220 OFFCURVE",
"133 210 CURVE SMOOTH",
"83 198 OFFCURVE",
"38 159 OFFCURVE",
"38 96 CURVE SMOOTH",
"38 33 OFFCURVE",
"93 -10 OFFCURVE",
"161 -10 CURVE SMOOTH",
"214 -10 OFFCURVE",
"249 13 OFFCURVE",
"282 40 CURVE",
"289 8 LINE",
"244 -19 LINE SMOOTH",
"180 -57 OFFCURVE",
"148 -93 OFFCURVE",
"148 -144 CURVE SMOOTH",
"148 -190 OFFCURVE",
"185 -214 OFFCURVE",
"227 -214 CURVE SMOOTH",
"260 -214 OFFCURVE",
"293 -200 OFFCURVE",
"332 -177 CURVE",
"313 -142 LINE",
"288 -157 OFFCURVE",
"265 -164 OFFCURVE",
"248 -164 CURVE SMOOTH",
"225 -164 OFFCURVE",
"208 -151 OFFCURVE",
"208 -123 CURVE SMOOTH",
"208 -99 OFFCURVE",
"226 -78 OFFCURVE",
"259 -57 CURVE",
"272 -48 OFFCURVE",
"304 -29 OFFCURVE",
"341 -11 CURVE",
"341 248 LINE SMOOTH"
);
},
{
closed = 1;
nodes = (
"136 42 OFFCURVE",
"101 62 OFFCURVE",
"101 103 CURVE SMOOTH",
"101 141 OFFCURVE",
"127 160 OFFCURVE",
"174 170 CURVE SMOOTH",
"189 173 OFFCURVE",
"224 177 OFFCURVE",
"276 178 CURVE",
"276 86 LINE",
"248 60 OFFCURVE",
"217 42 OFFCURVE",
"170 42 CURVE SMOOTH"
);
}
);
width = 393;
}
);
unicode = 0105;
},
{
glyphname = ae;
lastChange = "2014-08-18 12:37:37 +0530";
layers = (
{
layerId = "CFA4B904-E3F1-48B6-A7F6-47DC1FF2A3E1";
name = Regular;
paths = (
{
closed = 1;
nodes = (
"384 389 OFFCURVE",
"351 370 OFFCURVE",
"319 333 CURVE",
"313 346 OFFCURVE",
"304 356 OFFCURVE",
"288 368 CURVE",
"266 381 OFFCURVE",
"232 388 OFFCURVE",
"189 388 CURVE SMOOTH",
"148 388 OFFCURVE",
"105 379 OFFCURVE",
"64 365 CURVE",
"77 317 LINE",
"109 327 OFFCURVE",
"153 333 OFFCURVE",
"180 333 CURVE SMOOTH",
"228 333 OFFCURVE",
"257 318 OFFCURVE",
"268 288 CURVE",
"273 276 OFFCURVE",
"276 256 OFFCURVE",
"276 228 CURVE SMOOTH",
"276 225 LINE",
"217 225 OFFCURVE",
"169 218 OFFCURVE",
"131 208 CURVE SMOOTH",
"81 196 OFFCURVE",
"38 159 OFFCURVE",
"38 96 CURVE SMOOTH",
"38 33 OFFCURVE",
"93 -10 OFFCURVE",
"161 -10 CURVE SMOOTH",
"225 -10 OFFCURVE",
"275 14 OFFCURVE",
"308 58 CURVE",
"335 14 OFFCURVE",
"385 -8 OFFCURVE",
"456 -8 CURVE SMOOTH",
"498 -8 OFFCURVE",
"540 0 OFFCURVE",
"579 13 CURVE",
"567 61 LINE",
"534 50 OFFCURVE",
"503 46 OFFCURVE",
"474 46 CURVE SMOOTH",
"425 46 OFFCURVE",
"395 58 OFFCURVE",
"372 81 CURVE",
"351 105 OFFCURVE",
"335 137 OFFCURVE",
"335 172 CURVE",
"589 172 LINE",
"594 180 LINE",
"594 215 LINE SMOOTH",
"594 325 OFFCURVE",
"538 389 OFFCURVE",
"437 389 CURVE SMOOTH"
);
},
{
closed = 1;
nodes = (
"121 42 OFFCURVE",
"101 67 OFFCURVE",
"101 103 CURVE SMOOTH",
"101 180 OFFCURVE",
"214 177 OFFCURVE",
"276 178 CURVE",
"276 86 LINE",
"248 60 OFFCURVE",
"217 42 OFFCURVE",
"170 42 CURVE SMOOTH"
);
},
{
closed = 1;
nodes = (
"336 224 LINE",
"344 284 OFFCURVE",
"369 338 OFFCURVE",
"443 338 CURVE SMOOTH",
"503 338 OFFCURVE",
"529 286 OFFCURVE",
"529 224 CURVE"
);
}
);
width = 629;
}
);
unicode = 00E6;
},
{
glyphname = b;
lastChange = "2014-08-17 13:37:44 +0530";
layers = (
{
layerId = "CFA4B904-E3F1-48B6-A7F6-47DC1FF2A3E1";
name = Regular;
paths = (
{
closed = 1;
nodes = (
"171 47 OFFCURVE",
"150 56 OFFCURVE",
"123 70 CURVE",
"123 324 LINE",
"151 335 OFFCURVE",
"179 339 OFFCURVE",
"208 339 CURVE SMOOTH",
"294 339 OFFCURVE",
"333 278 OFFCURVE",
"333 192 CURVE SMOOTH",
"333 91 OFFCURVE",
"294 47 OFFCURVE",
"209 47 CURVE SMOOTH"
);
},
{
closed = 1;
nodes = (
"149 5 OFFCURVE",
"186 -8 OFFCURVE",
"225 -8 CURVE SMOOTH",
"341 -8 OFFCURVE",
"401 73 OFFCURVE",
"401 188 CURVE SMOOTH",
"401 253 OFFCURVE",
"384 308 OFFCURVE",
"348 344 CURVE SMOOTH",
"312 378 OFFCURVE",
"268 392 OFFCURVE",
"216 392 CURVE SMOOTH",
"185 392 OFFCURVE",
"153 388 OFFCURVE",
"123 374 CURVE",
"123 532 LINE",
"58 532 LINE",
"58 0 LINE",
"104 0 LINE",
"116 27 LINE"
);
}
);
width = 439;
}
);
unicode = 0062;
},
{
glyphname = c;
lastChange = "2014-08-17 18:02:26 +0530";
layers = (
{
anchors = (
{
name = top;
position = "{212, 384}";
}
);
background = {
paths = (
{
closed = 1;
nodes = (
"227 -9 LINE SMOOTH",
"264 -9 OFFCURVE",
"297 -1 OFFCURVE",
"334 13 CURVE",
"319 58 LINE",
"295 49 OFFCURVE",
"268 45 OFFCURVE",
"246 45 CURVE SMOOTH",
"240 45 OFFCURVE",
"235 45 OFFCURVE",
"228 46 CURVE SMOOTH",
"143 56 OFFCURVE",
"104 102 OFFCURVE",
"104 197 CURVE SMOOTH",
"104 286 OFFCURVE",
"149 335 OFFCURVE",
"240 335 CURVE SMOOTH",
"262 335 OFFCURVE",
"291 332 OFFCURVE",
"319 320 CURVE",
"335 368 LINE",
"300 383 OFFCURVE",
"268 389 OFFCURVE",
"237 389 CURVE SMOOTH",
"170 389 OFFCURVE",
"121 370 OFFCURVE",
"88 333 CURVE",
"58 296 OFFCURVE",
"38 246 OFFCURVE",
"38 185 CURVE SMOOTH",
"38 63 OFFCURVE",
"105 -9 OFFCURVE",
"224 -9 CURVE SMOOTH"
);
}
);
};
layerId = "CFA4B904-E3F1-48B6-A7F6-47DC1FF2A3E1";
name = Regular;
paths = (
{
closed = 1;
nodes = (
"264 -9 OFFCURVE",
"297 -1 OFFCURVE",
"334 13 CURVE",
"319 58 LINE",
"295 49 OFFCURVE",
"268 45 OFFCURVE",
"246 45 CURVE SMOOTH",
"181 45 OFFCURVE",
"104 70 OFFCURVE",
"104 197 CURVE SMOOTH",
"104 286 OFFCURVE",
"149 335 OFFCURVE",
"240 335 CURVE SMOOTH",
"262 335 OFFCURVE",
"291 332 OFFCURVE",
"319 320 CURVE",
"335 368 LINE",
"300 383 OFFCURVE",
"268 389 OFFCURVE",
"237 389 CURVE SMOOTH",
"170 389 OFFCURVE",
"121 370 OFFCURVE",
"88 333 CURVE",
"58 296 OFFCURVE",
"38 246 OFFCURVE",
"38 185 CURVE SMOOTH",
"38 63 OFFCURVE",
"105 -9 OFFCURVE",
"224 -9 CURVE SMOOTH"
);
}
);
width = 363;
}
);
unicode = 0063;
},
{
glyphname = ccedilla;
lastChange = "2014-08-18 12:38:38 +0530";
layers = (
{
layerId = "CFA4B904-E3F1-48B6-A7F6-47DC1FF2A3E1";
name = Regular;
paths = (
{
closed = 1;
nodes = (
"205 -158 OFFCURVE",
"181 -155 OFFCURVE",
"148 -145 CURVE",
"136 -142 LINE",
"122 -188 LINE",
"134 -192 LINE",
"165 -201 OFFCURVE",
"189 -207 OFFCURVE",
"218 -207 CURVE SMOOTH",
"276 -207 OFFCURVE",
"306 -178 OFFCURVE",
"306 -136 CURVE SMOOTH",
"306 -82 OFFCURVE",
"267 -64 OFFCURVE",
"232 -53 CURVE SMOOTH",
"218 -49 LINE",
"228 -9 LINE",
"260 -8 OFFCURVE",
"292 0 OFFCURVE",
"328 13 CURVE",
"312 58 LINE",
"288 48 OFFCURVE",
"264 45 OFFCURVE",
"242 45 CURVE SMOOTH",
"237 45 OFFCURVE",
"230 45 OFFCURVE",
"225 46 CURVE",
"140 56 OFFCURVE",
"100 102 OFFCURVE",
"100 197 CURVE SMOOTH",
"100 286 OFFCURVE",
"145 335 OFFCURVE",
"237 335 CURVE SMOOTH",
"259 335 OFFCURVE",
"287 332 OFFCURVE",
"315 320 CURVE",
"332 368 LINE",
"297 383 OFFCURVE",
"264 389 OFFCURVE",
"232 389 CURVE SMOOTH",
"166 389 OFFCURVE",
"117 370 OFFCURVE",
"85 332 CURVE SMOOTH",
"53 295 OFFCURVE",
"38 246 OFFCURVE",
"38 185 CURVE SMOOTH",
"38 78 OFFCURVE",
"87 9 OFFCURVE",
"180 -6 CURVE",
"161 -81 LINE",
"215 -96 LINE",
"232 -100 OFFCURVE",
"256 -109 OFFCURVE",
"256 -131 CURVE SMOOTH",
"256 -153 OFFCURVE",
"238 -160 OFFCURVE",
"215 -159 CURVE"
);
}
);
width = 358;
}
);
unicode = 00E7;
},
{
glyphname = d;
lastChange = "2014-08-17 13:39:37 +0530";
layers = (
{
layerId = "CFA4B904-E3F1-48B6-A7F6-47DC1FF2A3E1";
name = Regular;
paths = (
{
closed = 1;
nodes = (
"145 47 OFFCURVE",
"105 107 OFFCURVE",
"105 192 CURVE SMOOTH",
"105 278 OFFCURVE",
"145 339 OFFCURVE",
"230 339 CURVE SMOOTH",
"260 339 OFFCURVE",
"288 335 OFFCURVE",
"315 324 CURVE",
"315 70 LINE",
"289 56 OFFCURVE",
"268 47 OFFCURVE",
"229 47 CURVE SMOOTH"
);
},
{
closed = 1;
nodes = (
"253 -8 OFFCURVE",
"290 5 OFFCURVE",
"324 27 CURVE",
"335 0 LINE",
"383 0 LINE",
"383 532 LINE",
"315 532 LINE",
"315 374 LINE",
"286 388 OFFCURVE",
"256 392 OFFCURVE",
"225 392 CURVE SMOOTH",
"171 392 OFFCURVE",
"128 375 OFFCURVE",
"93 341 CURVE SMOOTH",
"57 305 OFFCURVE",
"38 253 OFFCURVE",
"38 188 CURVE SMOOTH",
"38 73 OFFCURVE",
"98 -8 OFFCURVE",
"216 -8 CURVE SMOOTH"
);
}
);
width = 439;
}
);
unicode = 0064;
},
{
glyphname = eth;
lastChange = "2014-08-18 12:53:14 +0530";
layers = (
{
layerId = "CFA4B904-E3F1-48B6-A7F6-47DC1FF2A3E1";
name = Regular;
paths = (
{
closed = 1;
nodes = (
"375 523 LINE",
"321 486 LINE",
"372 431 OFFCURVE",
"406 353 OFFCURVE",
"406 246 CURVE SMOOTH",
"406 105 OFFCURVE",
"352 -8 OFFCURVE",
"220 -8 CURVE SMOOTH",
"105 -8 OFFCURVE",
"36 79 OFFCURVE",
"36 177 CURVE SMOOTH",
"36 284 OFFCURVE",
"105 366 OFFCURVE",
"210 366 CURVE SMOOTH",
"248 366 OFFCURVE",
"289 353 OFFCURVE",
"332 332 CURVE",
"323 380 OFFCURVE",
"304 420 OFFCURVE",
"271 452 CURVE",
"199 403 LINE",
"177 439 LINE",
"237 480 LINE",
"216 493 OFFCURVE",
"193 505 OFFCURVE",
"165 515 CURVE",
"189 566 LINE",
"224 555 OFFCURVE",
"258 538 OFFCURVE",
"288 515 CURVE",
"354 560 LINE"
);
},
{
closed = 1;
nodes = (
"340 257 OFFCURVE",
"340 267 OFFCURVE",
"339 276 CURVE",
"296 300 OFFCURVE",
"259 313 OFFCURVE",
"228 313 CURVE SMOOTH",
"142 313 OFFCURVE",
"102 252 OFFCURVE",
"102 180 CURVE SMOOTH",
"102 109 OFFCURVE",
"146 45 OFFCURVE",
"224 45 CURVE SMOOTH",
"268 45 OFFCURVE",
"293 66 OFFCURVE",
"314 103 CURVE SMOOTH",
"330 131 OFFCURVE",
"340 180 OFFCURVE",
"340 247 CURVE SMOOTH"
);
}
);
width = 444;
}
);
unicode = 00F0;
},
{
glyphname = dcaron;
layers = (
{
layerId = "CFA4B904-E3F1-48B6-A7F6-47DC1FF2A3E1";
name = Regular;
paths = (
{
closed = 1;
nodes = (
"145 47 OFFCURVE",
"105 107 OFFCURVE",
"105 192 CURVE SMOOTH",
"105 278 OFFCURVE",
"145 339 OFFCURVE",
"230 339 CURVE SMOOTH",
"260 339 OFFCURVE",
"288 335 OFFCURVE",
"315 324 CURVE",
"315 70 LINE",
"289 56 OFFCURVE",
"268 47 OFFCURVE",
"229 47 CURVE SMOOTH"
);
},
{
closed = 1;
nodes = (
"253 -8 OFFCURVE",
"290 5 OFFCURVE",
"324 27 CURVE",
"335 0 LINE",
"383 0 LINE",
"383 532 LINE",
"315 532 LINE",
"315 374 LINE",
"286 388 OFFCURVE",
"256 392 OFFCURVE",
"225 392 CURVE SMOOTH",
"171 392 OFFCURVE",
"128 375 OFFCURVE",
"93 341 CURVE SMOOTH",
"57 305 OFFCURVE",
"38 253 OFFCURVE",
"38 188 CURVE SMOOTH",
"38 73 OFFCURVE",
"98 -8 OFFCURVE",
"216 -8 CURVE SMOOTH"
);
},
{
closed = 1;
nodes = (
"420 435 LINE",
"466 435 LINE",
"503 586 LINE",
"443 586 LINE"
);
}
);
width = 496;
}
);
unicode = 010F;
},
{
glyphname = dcroat;
lastChange = "2014-08-18 12:24:07 +0530";
layers = (
{
layerId = "CFA4B904-E3F1-48B6-A7F6-47DC1FF2A3E1";
name = Regular;
paths = (
{
closed = 1;
nodes = (
"253 -8 OFFCURVE",
"290 5 OFFCURVE",
"324 27 CURVE",
"335 0 LINE",
"383 0 LINE",
"383 439 LINE",
"439 439 LINE",
"439 485 LINE",
"383 485 LINE",
"383 532 LINE",
"315 532 LINE",
"315 485 LINE",
"212 485 LINE",
"212 439 LINE",
"315 439 LINE",
"315 374 LINE",
"286 388 OFFCURVE",
"256 392 OFFCURVE",
"225 392 CURVE SMOOTH",
"171 392 OFFCURVE",
"128 375 OFFCURVE",
"93 341 CURVE SMOOTH",
"57 305 OFFCURVE",
"38 253 OFFCURVE",
"38 188 CURVE SMOOTH",
"38 73 OFFCURVE",
"98 -8 OFFCURVE",
"216 -8 CURVE SMOOTH"
);
},
{
closed = 1;
nodes = (
"145 47 OFFCURVE",
"105 107 OFFCURVE",
"105 192 CURVE SMOOTH",
"105 278 OFFCURVE",
"145 339 OFFCURVE",
"230 339 CURVE SMOOTH",
"260 339 OFFCURVE",
"288 335 OFFCURVE",
"315 324 CURVE",
"315 70 LINE",
"289 56 OFFCURVE",
"268 47 OFFCURVE",
"229 47 CURVE SMOOTH"
);
}
);
width = 446;
}
);
unicode = 0111;
},
{
glyphname = e;
lastChange = "2014-08-17 17:53:01 +0530";
layers = (
{
anchors = (
{
name = top;
position = "{210, 384}";
}
);
layerId = "CFA4B904-E3F1-48B6-A7F6-47DC1FF2A3E1";
name = Regular;
paths = (
{
closed = 1;
nodes = (
"155 389 OFFCURVE",
"112 370 OFFCURVE",
"81 330 CURVE SMOOTH",
"51 290 OFFCURVE",
"38 242 OFFCURVE",
"38 185 CURVE SMOOTH",
"38 62 OFFCURVE",
"105 -8 OFFCURVE",
"229 -8 CURVE SMOOTH",
"272 -8 OFFCURVE",
"314 0 OFFCURVE",
"352 13 CURVE",
"340 61 LINE",
"308 50 OFFCURVE",
"276 46 OFFCURVE",
"247 46 CURVE SMOOTH",
"199 46 OFFCURVE",
"161 58 OFFCURVE",
"138 81 CURVE",
"117 105 OFFCURVE",
"101 137 OFFCURVE",
"101 172 CURVE",
"364 172 LINE",
"368 180 LINE",
"368 215 LINE SMOOTH",
"368 325 OFFCURVE",
"312 389 OFFCURVE",
"210 389 CURVE SMOOTH"
);
},
{
closed = 1;
nodes = (
"102 224 LINE",
"109 284 OFFCURVE",
"142 338 OFFCURVE",
"217 338 CURVE SMOOTH",
"276 338 OFFCURVE",
"302 286 OFFCURVE",
"302 224 CURVE"
);
}
);
width = 404;
}
);
unicode = 0065;
},
{
glyphname = f;
lastChange = "2014-08-17 13:42:13 +0530";
layers = (
{
layerId = "CFA4B904-E3F1-48B6-A7F6-47DC1FF2A3E1";
name = Regular;
paths = (
{
closed = 1;
nodes = (
"248 503 OFFCURVE",
"268 498 OFFCURVE",
"293 491 CURVE",
"304 539 LINE",
"276 547 OFFCURVE",
"244 554 OFFCURVE",
"211 554 CURVE SMOOTH",
"157 554 OFFCURVE",
"118 534 OFFCURVE",
"96 495 CURVE SMOOTH",
"87 479 OFFCURVE",
"83 455 OFFCURVE",
"83 423 CURVE SMOOTH",
"83 384 LINE",
"28 384 LINE",
"28 333 LINE",
"85 333 LINE",
"85 0 LINE",
"150 0 LINE",
"150 333 LINE",
"276 333 LINE",
"276 384 LINE",
"149 384 LINE",
"149 419 LINE SMOOTH",
"149 429 OFFCURVE",
"150 440 OFFCURVE",
"151 446 CURVE SMOOTH",
"156 478 OFFCURVE",
"186 503 OFFCURVE",
"231 503 CURVE SMOOTH"
);
}
);
width = 288;
}
);
unicode = 0066;
},
{
glyphname = g;
lastChange = "2014-08-17 18:12:49 +0530";
layers = (
{
anchors = (
{
name = top;
position = "{218, 384}";
}
);
layerId = "CFA4B904-E3F1-48B6-A7F6-47DC1FF2A3E1";
name = Regular;
paths = (
{
closed = 1;
nodes = (
"315 8 LINE SMOOTH",
"315 -18 OFFCURVE",
"315 -37 OFFCURVE",
"314 -48 CURVE SMOOTH",
"306 -118 OFFCURVE",
"261 -159 OFFCURVE",
"180 -159 CURVE SMOOTH",
"153 -159 OFFCURVE",
"123 -151 OFFCURVE",
"89 -139 CURVE",
"72 -185 LINE",
"104 -200 OFFCURVE",
"152 -210 OFFCURVE",
"189 -210 CURVE SMOOTH",
"248 -210 OFFCURVE",
"297 -192 OFFCURVE",
"328 -162 CURVE SMOOTH",
"367 -126 OFFCURVE",
"381 -89 OFFCURVE",
"381 -18 CURVE SMOOTH",
"381 384 LINE",
"334 384 LINE",
"327 360 LINE",
"308 369 LINE SMOOTH",
"276 384 OFFCURVE",
"246 389 OFFCURVE",
"218 389 CURVE SMOOTH",
"196 389 OFFCURVE",
"174 387 OFFCURVE",
"153 377 CURVE",
"83 348 OFFCURVE",
"38 282 OFFCURVE",
"38 185 CURVE SMOOTH",
"38 135 OFFCURVE",
"50 97 OFFCURVE",
"73 63 CURVE SMOOTH",
"102 21 OFFCURVE",
"148 -8 OFFCURVE",
"214 -8 CURVE SMOOTH",
"252 -8 OFFCURVE",
"282 1 OFFCURVE",
"315 18 CURVE"
);
},
{
closed = 1;
nodes = (
"208 45 OFFCURVE",
"189 49 OFFCURVE",
"171 59 CURVE SMOOTH",
"129 81 OFFCURVE",
"104 132 OFFCURVE",
"104 194 CURVE SMOOTH",
"104 277 OFFCURVE",
"143 337 OFFCURVE",
"226 337 CURVE SMOOTH",
"252 337 OFFCURVE",
"281 332 OFFCURVE",
"315 317 CURVE",
"315 66 LINE",
"291 52 OFFCURVE",
"262 45 OFFCURVE",
"229 45 CURVE SMOOTH"
);
}
);
width = 439;
}
);
unicode = 0067;
},
{
glyphname = gcommaaccent;
layers = (
{
components = (
{
name = g;
transform = "{1, 0, 0, 1, 0, 0}";
}
);
layerId = "CFA4B904-E3F1-48B6-A7F6-47DC1FF2A3E1";
name = Regular;
paths = (
{
closed = 1;
nodes = (
"191 435 LINE",
"237 435 LINE",
"274 586 LINE",
"214 586 LINE"
);
}
);
width = 439;
}
);
unicode = 0123;
},
{
glyphname = h;
lastChange = "2014-08-17 13:43:48 +0530";
layers = (
{
layerId = "CFA4B904-E3F1-48B6-A7F6-47DC1FF2A3E1";
name = Regular;
paths = (
{
closed = 1;
nodes = (
"313 0 LINE",
"379 0 LINE",
"379 261 LINE SMOOTH",
"379 343 OFFCURVE",
"333 394 OFFCURVE",
"253 394 CURVE SMOOTH",
"214 394 OFFCURVE",
"171 383 OFFCURVE",
"125 359 CURVE",
"125 532 LINE",
"60 532 LINE",
"60 0 LINE",
"125 0 LINE",
"125 311 LINE",
"165 330 OFFCURVE",
"199 339 OFFCURVE",
"228 339 CURVE SMOOTH",
"292 339 OFFCURVE",
"313 310 OFFCURVE",
"313 246 CURVE SMOOTH"
);
}
);
width = 430;
}
);
unicode = 0068;
},
{
glyphname = i;
lastChange = "2014-08-19 10:40:01 +0530";
layers = (
{
background = {
paths = (
{
closed = 1;
nodes = (
"58 466 LINE",
"123 466 LINE",
"123 532 LINE",
"58 532 LINE"
);
}
);
};
layerId = "CFA4B904-E3F1-48B6-A7F6-47DC1FF2A3E1";
name = Regular;
paths = (
{
closed = 1;
nodes = (
"58 0 LINE",
"123 0 LINE",
"123 384 LINE",
"58 384 LINE"
);
},
{
closed = 1;
nodes = (
"115 458 OFFCURVE",
"132 478 OFFCURVE",
"132 500 CURVE SMOOTH",
"132 521 OFFCURVE",
"115 541 OFFCURVE",
"91 541 CURVE SMOOTH",
"66 541 OFFCURVE",
"49 521 OFFCURVE",
"49 500 CURVE SMOOTH",
"49 478 OFFCURVE",
"66 458 OFFCURVE",
"91 458 CURVE SMOOTH"
);
}
);
width = 181;
}
);
unicode = 0069;
},
{
glyphname = dotlessi;
lastChange = "2014-08-17 18:09:16 +0530";
layers = (
{
anchors = (
{
name = top;
position = "{91, 384}";
}
);
layerId = "CFA4B904-E3F1-48B6-A7F6-47DC1FF2A3E1";
name = Regular;
paths = (
{
closed = 1;
nodes = (
"58 0 LINE",
"123 0 LINE",
"123 384 LINE",
"58 384 LINE"
);
}
);
width = 181;
}
);
unicode = 0131;
},
{
glyphname = ij;
lastChange = "2014-08-19 08:30:03 +0530";
layers = (
{
layerId = "CFA4B904-E3F1-48B6-A7F6-47DC1FF2A3E1";
name = Regular;
paths = (
{
closed = 1;
nodes = (
"58 0 LINE",
"123 0 LINE",
"123 384 LINE",
"58 384 LINE"
);
},
{
closed = 1;
nodes = (
"58 466 LINE",
"123 466 LINE",
"123 532 LINE",
"58 532 LINE"
);
},
{
closed = 1;
nodes = (
"211 -108 OFFCURVE",
"190 -141 OFFCURVE",
"148 -161 CURVE",
"172 -208 LINE",
"208 -197 OFFCURVE",
"241 -176 OFFCURVE",
"257 -143 CURVE SMOOTH",
"271 -113 OFFCURVE",
"274 -105 OFFCURVE",
"274 -50 CURVE SMOOTH",
"274 384 LINE",
"211 384 LINE",
"211 -53 LINE",
"211 -62 LINE SMOOTH"
);
},
{
closed = 1;
nodes = (
"211 466 LINE",
"274 466 LINE",
"274 532 LINE",
"211 532 LINE"
);
}
);
width = 332;
}
);
unicode = 0133;
},
{
glyphname = iogonek;
lastChange = "2014-08-19 08:28:10 +0530";
layers = (
{
layerId = "CFA4B904-E3F1-48B6-A7F6-47DC1FF2A3E1";
name = Regular;
paths = (
{
closed = 1;
nodes = (
"64 478 LINE",
"139 478 LINE",
"139 550 LINE",
"64 550 LINE"
);
},
{
closed = 1;
nodes = (
"43 -10 LINE",
"-19 -48 OFFCURVE",
"-38 -93 OFFCURVE",
"-38 -131 CURVE SMOOTH",
"-38 -190 OFFCURVE",
"0 -214 OFFCURVE",
"42 -214 CURVE SMOOTH",
"76 -214 OFFCURVE",
"108 -200 OFFCURVE",
"146 -177 CURVE",
"128 -142 LINE",
"102 -157 OFFCURVE",
"81 -164 OFFCURVE",
"63 -164 CURVE SMOOTH",
"39 -164 OFFCURVE",
"21 -151 OFFCURVE",
"21 -117 CURVE SMOOTH",
"21 -99 OFFCURVE",
"28 -77 OFFCURVE",
"66 -46 CURVE",
"79 -37 OFFCURVE",
"98 -24 OFFCURVE",
"133 -7 CURVE",
"133 384 LINE",
"69 384 LINE",
"69 4 LINE"
);
}
);
width = 198;
}
);
unicode = 012F;
},
{
glyphname = dotlessj;
lastChange = "2014-08-18 11:43:19 +0530";
layers = (
{
anchors = (
{
name = top;
position = "{90, 384}";
}
);
layerId = "CFA4B904-E3F1-48B6-A7F6-47DC1FF2A3E1";
name = Regular;
paths = (
{
closed = 1;
nodes = (
"59 -108 OFFCURVE",
"38 -141 OFFCURVE",
"-4 -161 CURVE",
"20 -208 LINE",
"56 -197 OFFCURVE",
"89 -176 OFFCURVE",
"105 -143 CURVE SMOOTH",
"119 -113 OFFCURVE",
"122 -105 OFFCURVE",
"122 -50 CURVE SMOOTH",
"122 384 LINE",
"59 384 LINE",
"59 -53 LINE",
"59 -62 LINE SMOOTH"
);
}
);
width = 180;
}
);
unicode = 0237;
},
{
glyphname = k;
lastChange = "2014-08-19 08:43:52 +0530";
layers = (
{
anchors = (
{
name = bottom;
position = "{210, 0}";
}
);
layerId = "CFA4B904-E3F1-48B6-A7F6-47DC1FF2A3E1";
name = Regular;
paths = (
{
closed = 1;
nodes = (
"60 0 LINE",
"125 0 LINE",
"125 532 LINE",
"60 532 LINE"
);
},
{
closed = 1;
nodes = (
"132 212 LINE",
"305 0 LINE",
"385 0 LINE",
"209 212 LINE",
"376 384 LINE",
"300 384 LINE"
);
}
);
width = 400;
}
);
unicode = 006B;
},
{
glyphname = l;
lastChange = "2014-08-18 12:20:25 +0530";
layers = (
{
anchors = (
{
name = bottom;
position = "{138, 0}";
},
{
name = top;
position = "{168, 533}";
}
);
layerId = "CFA4B904-E3F1-48B6-A7F6-47DC1FF2A3E1";
name = Regular;
paths = (
{
closed = 1;
nodes = (
"121 51 OFFCURVE",
"119 78 OFFCURVE",
"119 106 CURVE SMOOTH",
"119 533 LINE",
"56 533 LINE",
"56 83 LINE SMOOTH",
"57 29 OFFCURVE",
"88 -9 OFFCURVE",
"138 -9 CURVE SMOOTH",
"176 -9 OFFCURVE",
"201 4 OFFCURVE",
"216 10 CURVE",
"204 57 LINE",
"191 53 OFFCURVE",
"181 51 OFFCURVE",
"170 51 CURVE SMOOTH"
);
}
);
width = 220;
}
);
unicode = 006C;
},
{
glyphname = lcaron;
layers = (
{
layerId = "CFA4B904-E3F1-48B6-A7F6-47DC1FF2A3E1";
name = Regular;
paths = (
{
closed = 1;
nodes = (
"121 51 OFFCURVE",
"119 78 OFFCURVE",
"119 106 CURVE SMOOTH",
"119 533 LINE",
"56 533 LINE",
"56 83 LINE SMOOTH",
"57 29 OFFCURVE",
"88 -9 OFFCURVE",
"138 -9 CURVE SMOOTH",
"176 -9 OFFCURVE",
"201 7 OFFCURVE",
"216 10 CURVE",
"204 57 LINE",
"191 53 OFFCURVE",
"181 51 OFFCURVE",
"170 51 CURVE SMOOTH"
);
},
{
closed = 1;
nodes = (
"162 435 LINE",
"208 435 LINE",
"245 586 LINE",
"185 586 LINE"
);
}
);
width = 245;
}
);
unicode = 013E;
},
{
glyphname = lslash;
lastChange = "2014-08-19 08:53:30 +0530";
layers = (
{
layerId = "CFA4B904-E3F1-48B6-A7F6-47DC1FF2A3E1";
name = Regular;
paths = (
{
closed = 1;
nodes = (
"141 51 OFFCURVE",
"140 78 OFFCURVE",
"140 106 CURVE SMOOTH",
"140 265 LINE",
"232 318 LINE",
"232 376 LINE",
"140 324 LINE",
"140 533 LINE",
"77 533 LINE",
"77 287 LINE",
"16 252 LINE",
"16 194 LINE",
"77 228 LINE",
"77 83 LINE SMOOTH",
"78 29 OFFCURVE",
"109 -9 OFFCURVE",
"159 -9 CURVE SMOOTH",
"197 -9 OFFCURVE",
"222 3 OFFCURVE",
"237 10 CURVE",
"237 61 LINE",
"218 55 OFFCURVE",
"206 51 OFFCURVE",
"190 51 CURVE SMOOTH"
);
}
);
width = 244;
}
);
unicode = 0142;
},
{
glyphname = m;
lastChange = "2014-08-17 13:50:27 +0530";
layers = (
{
layerId = "CFA4B904-E3F1-48B6-A7F6-47DC1FF2A3E1";
name = Regular;
paths = (
{
closed = 1;
nodes = (
"515 0 LINE",
"582 0 LINE",
"582 260 LINE SMOOTH",
"582 336 OFFCURVE",
"541 390 OFFCURVE",
"460 390 CURVE SMOOTH",
"408 390 OFFCURVE",
"370 369 OFFCURVE",
"331 341 CURVE",
"311 370 OFFCURVE",
"276 390 OFFCURVE",
"231 390 CURVE SMOOTH",
"215 390 OFFCURVE",
"197 389 OFFCURVE",
"178 384 CURVE SMOOTH",
"161 379 OFFCURVE",
"141 370 OFFCURVE",
"115 352 CURVE",
"101 384 LINE",
"56 384 LINE",
"56 0 LINE",
"121 0 LINE",
"121 309 LINE",
"156 328 OFFCURVE",
"186 338 OFFCURVE",
"210 338 CURVE SMOOTH",
"264 338 OFFCURVE",
"286 302 OFFCURVE",
"286 244 CURVE SMOOTH",
"286 0 LINE",
"351 0 LINE",
"351 260 LINE SMOOTH",
"351 278 OFFCURVE",
"351 293 OFFCURVE",
"348 304 CURVE",
"385 327 OFFCURVE",
"413 338 OFFCURVE",
"440 338 CURVE SMOOTH",
"494 338 OFFCURVE",
"515 302 OFFCURVE",
"515 244 CURVE SMOOTH"
);
}
);
width = 634;
}
);
unicode = 006D;
},
{
glyphname = n;
lastChange = "2014-08-19 08:40:32 +0530";
layers = (
{
anchors = (
{
name = bottom;
position = "{214, 0}";
},
{
name = top;
position = "{217, 384}";
}
);
layerId = "CFA4B904-E3F1-48B6-A7F6-47DC1FF2A3E1";
name = Regular;
paths = (
{
closed = 1;
nodes = (
"310 0 LINE",
"375 0 LINE",
"375 260 LINE SMOOTH",
"375 340 OFFCURVE",
"333 390 OFFCURVE",
"250 390 CURVE SMOOTH",
"209 390 OFFCURVE",
"162 378 OFFCURVE",
"115 352 CURVE",
"101 384 LINE",
"56 384 LINE",
"56 0 LINE",
"121 0 LINE",
"121 308 LINE",
"161 327 OFFCURVE",
"197 335 OFFCURVE",
"227 335 CURVE SMOOTH",
"289 335 OFFCURVE",
"310 308 OFFCURVE",
"310 244 CURVE SMOOTH"
);
}
);
width = 427;
}
);
unicode = 006E;
},
{
glyphname = o;
lastChange = "2014-08-17 17:55:06 +0530";
layers = (
{
anchors = (
{
name = top;
position = "{225, 384}";
}
);
layerId = "CFA4B904-E3F1-48B6-A7F6-47DC1FF2A3E1";
name = Regular;
paths = (
{
closed = 1;
nodes = (
"301 338 OFFCURVE",
"343 272 OFFCURVE",
"343 190 CURVE SMOOTH",
"343 109 OFFCURVE",
"302 44 OFFCURVE",
"225 44 CURVE SMOOTH",
"146 44 OFFCURVE",
"105 109 OFFCURVE",
"105 190 CURVE SMOOTH",
"105 272 OFFCURVE",
"147 338 OFFCURVE",
"225 338 CURVE SMOOTH"
);
},
{
closed = 1;
nodes = (
"339 -9 OFFCURVE",
"409 72 OFFCURVE",
"409 191 CURVE SMOOTH",
"409 312 OFFCURVE",
"344 389 OFFCURVE",
"225 389 CURVE SMOOTH",
"107 389 OFFCURVE",
"38 311 OFFCURVE",
"38 190 CURVE SMOOTH",
"38 71 OFFCURVE",
"105 -9 OFFCURVE",
"222 -9 CURVE SMOOTH"
);
}
);
width = 447;
}
);
unicode = 006F;
},
{
glyphname = oslash;
layers = (
{
layerId = "CFA4B904-E3F1-48B6-A7F6-47DC1FF2A3E1";
name = Regular;
paths = (
{
closed = 1;
nodes = (
"344 -9 OFFCURVE",
"412 72 OFFCURVE",
"412 191 CURVE SMOOTH",
"412 238 OFFCURVE",
"403 279 OFFCURVE",
"384 311 CURVE",
"427 355 LINE",
"390 393 LINE",
"349 351 LINE",
"318 375 OFFCURVE",
"279 389 OFFCURVE",
"228 389 CURVE SMOOTH",
"111 389 OFFCURVE",
"44 311 OFFCURVE",
"44 190 CURVE SMOOTH",
"44 142 OFFCURVE",
"53 101 OFFCURVE",
"74 68 CURVE",
"29 22 LINE",
"66 -12 LINE",
"108 29 LINE",
"138 7 OFFCURVE",
"178 -9 OFFCURVE",
"226 -9 CURVE SMOOTH"
);
},
{
closed = 1;
nodes = (
"260 338 OFFCURVE",
"287 327 OFFCURVE",
"307 307 CURVE",
"122 117 LINE",
"113 139 OFFCURVE",
"109 164 OFFCURVE",
"109 190 CURVE SMOOTH",
"109 272 OFFCURVE",
"151 338 OFFCURVE",
"228 338 CURVE SMOOTH"
);
},
{
closed = 1;
nodes = (
"347 109 OFFCURVE",
"307 44 OFFCURVE",
"228 44 CURVE SMOOTH",
"196 44 OFFCURVE",
"170 55 OFFCURVE",
"151 73 CURVE",
"334 260 LINE",
"343 240 OFFCURVE",
"347 217 OFFCURVE",
"347 190 CURVE SMOOTH"
);
}
);
width = 456;
}
);
unicode = 00F8;
},
{
glyphname = oe;
lastChange = "2014-08-18 12:36:57 +0530";
layers = (
{
layerId = "CFA4B904-E3F1-48B6-A7F6-47DC1FF2A3E1";
name = Regular;
paths = (
{
closed = 1;
nodes = (
"284 334 OFFCURVE",
"326 268 OFFCURVE",
"326 187 CURVE SMOOTH",
"326 140 OFFCURVE",
"315 105 OFFCURVE",
"294 81 CURVE SMOOTH",
"275 60 OFFCURVE",
"253 46 OFFCURVE",
"212 46 CURVE SMOOTH",
"192 46 OFFCURVE",
"175 52 OFFCURVE",
"157 66 CURVE",
"122 91 OFFCURVE",
"101 137 OFFCURVE",
"101 195 CURVE SMOOTH",
"101 267 OFFCURVE",
"140 334 OFFCURVE",
"208 334 CURVE SMOOTH"
);
},
{
closed = 1;
nodes = (
"576 206 LINE",
"387 206 LINE",
"388 239 OFFCURVE",
"395 268 OFFCURVE",
"412 294 CURVE SMOOTH",
"428 319 OFFCURVE",
"454 332 OFFCURVE",
"484 332 CURVE SMOOTH",
"552 332 OFFCURVE",
"576 287 OFFCURVE",
"576 214 CURVE SMOOTH"
);
},
{
closed = 1;
nodes = (
"38 77 OFFCURVE",
"101 -10 OFFCURVE",
"211 -10 CURVE SMOOTH",
"272 -10 OFFCURVE",
"319 14 OFFCURVE",
"351 62 CURVE",
"381 13 OFFCURVE",
"430 -10 OFFCURVE",
"498 -10 CURVE SMOOTH",
"538 -10 OFFCURVE",
"577 -2 OFFCURVE",
"615 12 CURVE",
"604 56 LINE",
"574 46 OFFCURVE",
"547 42 OFFCURVE",
"523 42 CURVE SMOOTH",
"486 42 OFFCURVE",
"457 49 OFFCURVE",
"434 67 CURVE SMOOTH",
"403 91 OFFCURVE",
"386 121 OFFCURVE",
"385 158 CURVE",
"637 158 LINE",
"637 196 LINE SMOOTH",
"637 226 OFFCURVE",
"636 248 OFFCURVE",
"634 262 CURVE SMOOTH",
"622 339 OFFCURVE",
"575 388 OFFCURVE",
"500 388 CURVE SMOOTH",
"439 388 OFFCURVE",
"387 363 OFFCURVE",
"354 312 CURVE",
"326 354 OFFCURVE",
"284 388 OFFCURVE",
"218 388 CURVE SMOOTH",
"105 388 OFFCURVE",
"38 305 OFFCURVE",
"38 189 CURVE SMOOTH"
);
}
);
width = 674;
}
);
unicode = 0153;
},
{
glyphname = p;
lastChange = "2014-08-17 14:17:05 +0530";
layers = (
{
layerId = "CFA4B904-E3F1-48B6-A7F6-47DC1FF2A3E1";
name = Regular;
paths = (
{
closed = 1;
nodes = (
"293 335 OFFCURVE",
"334 276 OFFCURVE",
"334 189 CURVE SMOOTH",
"334 105 OFFCURVE",
"291 42 OFFCURVE",
"208 42 CURVE SMOOTH",
"180 42 OFFCURVE",
"151 47 OFFCURVE",
"123 60 CURVE",
"123 312 LINE",
"150 328 OFFCURVE",
"171 335 OFFCURVE",
"209 335 CURVE SMOOTH"
);
},
{
closed = 1;
nodes = (
"123 9 LINE",
"153 -4 OFFCURVE",
"185 -10 OFFCURVE",
"216 -10 CURVE SMOOTH",
"268 -10 OFFCURVE",
"312 9 OFFCURVE",
"347 42 CURVE SMOOTH",
"384 78 OFFCURVE",
"403 129 OFFCURVE",
"403 196 CURVE SMOOTH",
"403 275 OFFCURVE",
"374 331 OFFCURVE",
"320 365 CURVE SMOOTH",
"294 381 OFFCURVE",
"261 389 OFFCURVE",
"225 389 CURVE SMOOTH",
"186 389 OFFCURVE",
"150 378 OFFCURVE",
"117 355 CURVE",
"104 384 LINE",
"58 384 LINE",
"58 -208 LINE",
"123 -208 LINE"
);
}
);
width = 440;
}
);
unicode = 0070;
},
{
glyphname = thorn;
lastChange = "2014-08-18 12:55:34 +0530";
layers = (
{
layerId = "CFA4B904-E3F1-48B6-A7F6-47DC1FF2A3E1";
name = Regular;
paths = (
{
closed = 1;
nodes = (
"246 -10 OFFCURVE",
"269 -4 OFFCURVE",
"291 7 CURVE",
"356 34 OFFCURVE",
"401 108 OFFCURVE",
"401 195 CURVE SMOOTH",
"401 250 OFFCURVE",
"387 296 OFFCURVE",
"357 330 CURVE SMOOTH",
"329 364 OFFCURVE",
"284 388 OFFCURVE",
"226 388 CURVE SMOOTH",
"177 388 OFFCURVE",
"142 373 OFFCURVE",
"116 344 CURVE",
"116 550 LINE",
"51 550 LINE",
"51 -206 LINE",
"116 -206 LINE",
"116 32 LINE",
"142 7 OFFCURVE",
"177 -10 OFFCURVE",
"222 -10 CURVE SMOOTH"
);
},
{
closed = 1;
nodes = (
"179 46 OFFCURVE",
"149 62 OFFCURVE",
"129 95 CURVE",
"117 113 OFFCURVE",
"111 145 OFFCURVE",
"111 189 CURVE SMOOTH",
"111 268 OFFCURVE",
"140 334 OFFCURVE",
"217 334 CURVE SMOOTH",
"259 333 OFFCURVE",
"293 312 OFFCURVE",
"319 270 CURVE SMOOTH",
"333 248 OFFCURVE",
"339 218 OFFCURVE",
"339 180 CURVE SMOOTH",
"339 106 OFFCURVE",
"290 46 OFFCURVE",
"217 46 CURVE SMOOTH"
);
}
);
width = 439;
}
);
unicode = 00FE;
},
{
glyphname = q;
lastChange = "2014-08-17 14:17:24 +0530";
layers = (
{
layerId = "CFA4B904-E3F1-48B6-A7F6-47DC1FF2A3E1";
name = Regular;
paths = (
{
closed = 1;
nodes = (
"316 60 LINE",
"289 47 OFFCURVE",
"260 42 OFFCURVE",
"231 42 CURVE SMOOTH",
"149 42 OFFCURVE",
"105 105 OFFCURVE",
"105 189 CURVE SMOOTH",
"105 276 OFFCURVE",
"147 335 OFFCURVE",
"230 335 CURVE SMOOTH",
"269 335 OFFCURVE",
"290 328 OFFCURVE",
"316 312 CURVE"
);
},
{
closed = 1;
nodes = (
"256 -10 OFFCURVE",
"287 -4 OFFCURVE",
"316 9 CURVE",
"316 -208 LINE",
"384 -208 LINE",
"384 383 LINE",
"335 383 LINE",
"324 355 LINE",
"290 378 OFFCURVE",
"255 389 OFFCURVE",
"217 389 CURVE SMOOTH",
"178 389 OFFCURVE",
"146 381 OFFCURVE",
"119 365 CURVE",
"66 331 OFFCURVE",
"38 275 OFFCURVE",
"38 196 CURVE SMOOTH",
"38 129 OFFCURVE",
"58 78 OFFCURVE",
"93 42 CURVE",
"129 9 OFFCURVE",
"172 -10 OFFCURVE",
"225 -10 CURVE SMOOTH"
);
}
);
width = 440;
}
);
unicode = 0071;
},
{
glyphname = r;
lastChange = "2014-08-19 08:39:52 +0530";
layers = (
{
anchors = (
{
name = bottom;
position = "{84, 0}";
},
{
name = top;
position = "{162, 384}";
}
);
layerId = "CFA4B904-E3F1-48B6-A7F6-47DC1FF2A3E1";
name = Regular;
paths = (
{
closed = 1;
nodes = (
"185 389 OFFCURVE",
"150 376 OFFCURVE",
"117 351 CURVE",
"103 384 LINE",
"56 384 LINE",
"56 0 LINE",
"121 0 LINE",
"121 304 LINE",
"149 323 OFFCURVE",
"178 332 OFFCURVE",
"204 332 CURVE SMOOTH",
"225 332 OFFCURVE",
"244 328 OFFCURVE",
"261 320 CURVE",
"284 378 LINE",
"267 386 OFFCURVE",
"252 389 OFFCURVE",
"222 389 CURVE SMOOTH"
);
}
);
width = 293;
}
);
unicode = 0072;
},
{
glyphname = s;
lastChange = "2014-08-19 09:17:29 +0530";
layers = (
{
anchors = (
{
name = bottom;
position = "{169, 0}";
},
{
name = top;
position = "{180, 384}";
}
);
background = {
paths = (
{
closed = 1;
nodes = (
"137 46 OFFCURVE",
"99 53 OFFCURVE",
"62 66 CURVE",
"43 17 LINE",
"78 3 OFFCURVE",
"123 -9 OFFCURVE",
"182 -9 CURVE SMOOTH",
"241 -9 OFFCURVE",
"284 9 OFFCURVE",
"310 43 CURVE",
"324 60 OFFCURVE",
"330 81 OFFCURVE",
"330 101 CURVE SMOOTH",
"330 126 OFFCURVE",
"324 145 OFFCURVE",
"308 162 CURVE SMOOTH",
"293 179 OFFCURVE",
"279 191 OFFCURVE",
"228 210 CURVE SMOOTH",
"169 232 LINE SMOOTH",
"152 238 OFFCURVE",
"140 244 OFFCURVE",
"134 248 CURVE SMOOTH",
"121 257 OFFCURVE",
"111 264 OFFCURVE",
"111 287 CURVE SMOOTH",
"111 295 OFFCURVE",
"116 304 OFFCURVE",
"123 312 CURVE",
"145 331 OFFCURVE",
"171 335 OFFCURVE",
"207 335 CURVE SMOOTH",
"244 335 OFFCURVE",
"275 324 OFFCURVE",
"294 316 CURVE",
"309 363 LINE",
"275 377 OFFCURVE",
"249 387 OFFCURVE",
"200 388 CURVE SMOOTH",
"198 388 LINE SMOOTH",
"169 388 OFFCURVE",
"142 383 OFFCURVE",
"117 372 CURVE SMOOTH",
"80 357 OFFCURVE",
"46 331 OFFCURVE",
"46 278 CURVE SMOOTH",
"46 218 OFFCURVE",
"98 199 OFFCURVE",
"128 185 CURVE",
"188 161 LINE SMOOTH",
"207 153 OFFCURVE",
"226 145 OFFCURVE",
"239 136 CURVE SMOOTH",
"255 125 OFFCURVE",
"261 115 OFFCURVE",
"261 99 CURVE SMOOTH",
"261 62 OFFCURVE",
"219 46 OFFCURVE",
"177 46 CURVE SMOOTH"
);
}
);
};
guideLines = (
{
angle = 90;
position = "{180, 276}";
}
);
layerId = "CFA4B904-E3F1-48B6-A7F6-47DC1FF2A3E1";
name = Regular;
paths = (
{
closed = 1;
nodes = (
"137 46 OFFCURVE",
"91 56 OFFCURVE",
"54 69 CURVE",
"36 20 LINE",
"71 6 OFFCURVE",
"123 -9 OFFCURVE",
"182 -9 CURVE SMOOTH",
"272 -9 OFFCURVE",
"325 40 OFFCURVE",
"325 94 CURVE SMOOTH",
"325 150 OFFCURVE",
"298 178 OFFCURVE",
"226 208 CURVE SMOOTH",
"159 236 OFFCURVE",
"111 246 OFFCURVE",
"111 287 CURVE SMOOTH",
"111 318 OFFCURVE",
"151 335 OFFCURVE",
"207 335 CURVE SMOOTH",
"244 335 OFFCURVE",
"275 324 OFFCURVE",
"294 316 CURVE",
"310 364 LINE",
"279 378 OFFCURVE",
"243 389 OFFCURVE",
"200 389 CURVE SMOOTH",
"123 389 OFFCURVE",
"46 361 OFFCURVE",
"46 283 CURVE",
"46 218 OFFCURVE",
"99 197 OFFCURVE",
"129 183 CURVE",
"226 143 OFFCURVE",
"261 135 OFFCURVE",
"261 99 CURVE SMOOTH",
"261 62 OFFCURVE",
"219 46 OFFCURVE",
"177 46 CURVE SMOOTH"
);
}
);
width = 370;
}
);
unicode = 0073;
},
{
glyphname = germandbls;
lastChange = "2014-08-18 12:45:33 +0530";
layers = (
{
background = {
paths = (
{
closed = 1;
nodes = (
"79 0 LINE",
"142 0 LINE",
"142 396 LINE SMOOTH",
"142 429 OFFCURVE",
"149 455 OFFCURVE",
"165 471 CURVE",
"181 489 OFFCURVE",
"200 497 OFFCURVE",
"225 497 CURVE SMOOTH",
"261 497 OFFCURVE",
"304 465 OFFCURVE",
"304 427 CURVE SMOOTH",
"304 408 OFFCURVE",
"296 394 OFFCURVE",
"282 383 CURVE",
"277 376 OFFCURVE",
"271 372 OFFCURVE",
"264 368 CURVE",
"235 345 OFFCURVE",
"200 324 OFFCURVE",
"200 272 CURVE SMOOTH",
"200 260 OFFCURVE",
"204 248 OFFCURVE",
"207 238 CURVE",
"217 214 OFFCURVE",
"239 195 OFFCURVE",
"275 180 CURVE",
"302 171 LINE",
"339 157 OFFCURVE",
"375 143 OFFCURVE",
"375 100 CURVE SMOOTH",
"375 56 OFFCURVE",
"347 42 OFFCURVE",
"301 42 CURVE SMOOTH",
"279 42 OFFCURVE",
"248 46 OFFCURVE",
"207 53 CURVE",
"196 9 LINE",
"237 -4 OFFCURVE",
"276 -10 OFFCURVE",
"315 -10 CURVE SMOOTH",
"354 -10 OFFCURVE",
"384 -1 OFFCURVE",
"406 18 CURVE SMOOTH",
"424 33 OFFCURVE",
"443 64 OFFCURVE",
"443 101 CURVE SMOOTH",
"443 130 OFFCURVE",
"435 153 OFFCURVE",
"419 171 CURVE",
"399 197 OFFCURVE",
"379 205 OFFCURVE",
"338 219 CURVE SMOOTH",
"311 229 LINE SMOOTH",
"291 237 OFFCURVE",
"277 246 OFFCURVE",
"271 256 CURVE",
"267 261 OFFCURVE",
"264 269 OFFCURVE",
"264 279 CURVE SMOOTH",
"264 302 OFFCURVE",
"292 318 OFFCURVE",
"312 333 CURVE",
"324 341 OFFCURVE",
"335 352 OFFCURVE",
"346 366 CURVE SMOOTH",
"359 383 OFFCURVE",
"366 404 OFFCURVE",
"366 427 CURVE SMOOTH",
"366 450 OFFCURVE",
"358 475 OFFCURVE",
"344 496 CURVE SMOOTH",
"324 528 OFFCURVE",
"287 554 OFFCURVE",
"233 554 CURVE SMOOTH",
"137 554 OFFCURVE",
"78 490 OFFCURVE",
"78 397 CURVE SMOOTH"
);
}
);
};
layerId = "CFA4B904-E3F1-48B6-A7F6-47DC1FF2A3E1";
name = Regular;
paths = (
{
closed = 1;
nodes = (
"79 0 LINE",
"142 0 LINE",
"142 396 LINE SMOOTH",
"142 429 OFFCURVE",
"149 455 OFFCURVE",
"165 471 CURVE",
"181 489 OFFCURVE",
"200 497 OFFCURVE",
"225 497 CURVE SMOOTH",
"261 497 OFFCURVE",
"302 465 OFFCURVE",
"302 424 CURVE",
"302 396 OFFCURVE",
"281 383 OFFCURVE",
"264 368 CURVE",
"235 345 OFFCURVE",
"200 314 OFFCURVE",
"200 272 CURVE SMOOTH",
"200 216 OFFCURVE",
"246 194 OFFCURVE",
"289 175 CURVE SMOOTH",
"332 156 OFFCURVE",
"375 148 OFFCURVE",
"375 100 CURVE SMOOTH",
"375 56 OFFCURVE",
"347 42 OFFCURVE",
"301 42 CURVE SMOOTH",
"279 42 OFFCURVE",
"248 46 OFFCURVE",
"207 53 CURVE",
"196 9 LINE",
"237 -4 OFFCURVE",
"276 -10 OFFCURVE",
"315 -10 CURVE SMOOTH",
"354 -10 OFFCURVE",
"384 -1 OFFCURVE",
"406 18 CURVE SMOOTH",
"424 33 OFFCURVE",
"443 64 OFFCURVE",
"443 101 CURVE SMOOTH",
"443 156 OFFCURVE",
"408 195 OFFCURVE",
"338 219 CURVE SMOOTH",
"311 229 LINE SMOOTH",
"291 237 OFFCURVE",
"277 246 OFFCURVE",
"271 256 CURVE",
"267 261 OFFCURVE",
"264 269 OFFCURVE",
"264 279 CURVE SMOOTH",
"264 302 OFFCURVE",
"300 324 OFFCURVE",
"328 349 CURVE SMOOTH",
"351 371 OFFCURVE",
"366 396 OFFCURVE",
"366 427 CURVE SMOOTH",
"366 460 OFFCURVE",
"350 493 OFFCURVE",
"325 517 CURVE SMOOTH",
"302 539 OFFCURVE",
"272 554 OFFCURVE",
"233 554 CURVE SMOOTH",
"137 554 OFFCURVE",
"78 490 OFFCURVE",
"78 397 CURVE SMOOTH"
);
}
);
width = 488;
}
);
unicode = 00DF;
},
{
glyphname = t;
lastChange = "2014-08-19 09:06:02 +0530";
layers = (
{
anchors = (
{
name = bottom;
position = "{173, 0}";
}
);
layerId = "CFA4B904-E3F1-48B6-A7F6-47DC1FF2A3E1";
name = Regular;
paths = (
{
closed = 1;
nodes = (
"215 -8 OFFCURVE",
"250 -2 OFFCURVE",
"279 9 CURVE",
"268 53 LINE",
"250 49 OFFCURVE",
"225 47 OFFCURVE",
"207 47 CURVE SMOOTH",
"157 47 OFFCURVE",
"146 73 OFFCURVE",
"146 123 CURVE SMOOTH",
"146 330 LINE",
"272 330 LINE",
"272 384 LINE",
"146 384 LINE",
"146 483 LINE",
"81 478 LINE",
"81 384 LINE",
"16 384 LINE",
"16 330 LINE",
"81 330 LINE",
"81 119 LINE SMOOTH",
"81 38 OFFCURVE",
"108 -8 OFFCURVE",
"188 -8 CURVE SMOOTH"
);
}
);
width = 297;
}
);
unicode = 0074;
},
{
glyphname = tcaron;
layers = (
{
layerId = "CFA4B904-E3F1-48B6-A7F6-47DC1FF2A3E1";
name = Regular;
paths = (
{
closed = 1;
nodes = (
"215 -8 OFFCURVE",
"250 -2 OFFCURVE",
"279 9 CURVE",
"268 53 LINE",
"250 49 OFFCURVE",
"225 47 OFFCURVE",
"207 47 CURVE SMOOTH",
"157 47 OFFCURVE",
"146 73 OFFCURVE",
"146 123 CURVE SMOOTH",
"146 330 LINE",
"272 330 LINE",
"272 384 LINE",
"146 384 LINE",
"146 483 LINE",
"81 478 LINE",
"81 384 LINE",
"16 384 LINE",
"16 330 LINE",
"81 330 LINE",
"81 119 LINE SMOOTH",
"81 38 OFFCURVE",
"108 -8 OFFCURVE",
"188 -8 CURVE SMOOTH"
);
},
{
closed = 1;
nodes = (
"194 435 LINE",
"240 435 LINE",
"277 586 LINE",
"217 586 LINE"
);
}
);
width = 297;
}
);
unicode = 0165;
},
{
glyphname = u;
lastChange = "2014-08-17 17:57:01 +0530";
layers = (
{
anchors = (
{
name = top;
position = "{216, 384}";
}
);
layerId = "CFA4B904-E3F1-48B6-A7F6-47DC1FF2A3E1";
name = Regular;
paths = (
{
closed = 1;
nodes = (
"121 384 LINE",
"56 384 LINE",
"56 121 LINE SMOOTH",
"56 41 OFFCURVE",
"99 -10 OFFCURVE",
"181 -10 CURVE SMOOTH",
"222 -10 OFFCURVE",
"268 3 OFFCURVE",
"316 28 CURVE",
"330 0 LINE",
"375 0 LINE",
"375 384 LINE",
"310 384 LINE",
"310 73 LINE",
"271 55 OFFCURVE",
"236 46 OFFCURVE",
"205 46 CURVE SMOOTH",
"142 46 OFFCURVE",
"121 73 OFFCURVE",
"121 137 CURVE SMOOTH"
);
}
);
width = 430;
}
);
unicode = 0075;
},
{
glyphname = uogonek;
lastChange = "2014-08-19 10:28:47 +0530";
layers = (
{
background = {
components = (
{
name = u;
transform = "{1, 0, 0, 1, 0, 0}";
}
);
};
layerId = "CFA4B904-E3F1-48B6-A7F6-47DC1FF2A3E1";
name = Regular;
paths = (
{
closed = 1;
nodes = (
"311 384 LINE",
"311 74 LINE",
"272 54 OFFCURVE",
"237 46 OFFCURVE",
"208 46 CURVE SMOOTH",
"137 46 OFFCURVE",
"121 74 OFFCURVE",
"121 146 CURVE SMOOTH",
"121 384 LINE",
"58 384 LINE",
"56 132 LINE SMOOTH",
"55 49 OFFCURVE",
"89 -9 OFFCURVE",
"180 -9 CURVE SMOOTH",
"230 -9 OFFCURVE",
"274 6 OFFCURVE",
"316 29 CURVE",
"328 2 LINE",
"285 -22 LINE",
"224 -60 OFFCURVE",
"189 -97 OFFCURVE",
"189 -147 CURVE SMOOTH",
"189 -194 OFFCURVE",
"226 -217 OFFCURVE",
"268 -217 CURVE SMOOTH",
"301 -217 OFFCURVE",
"334 -205 OFFCURVE",
"372 -180 CURVE",
"354 -145 LINE",
"329 -160 OFFCURVE",
"307 -167 OFFCURVE",
"290 -167 CURVE SMOOTH",
"265 -167 OFFCURVE",
"249 -154 OFFCURVE",
"249 -126 CURVE SMOOTH",
"249 -101 OFFCURVE",
"268 -82 OFFCURVE",
"299 -60 CURVE SMOOTH",
"314 -50 OFFCURVE",
"337 -37 OFFCURVE",
"374 -18 CURVE",
"374 384 LINE"
);
}
);
width = 430;
}
);
unicode = 0173;
},
{
glyphname = v;
lastChange = "2014-08-17 14:35:28 +0530";
layers = (
{
layerId = "CFA4B904-E3F1-48B6-A7F6-47DC1FF2A3E1";
name = Regular;
paths = (
{
closed = 1;
nodes = (
"312 384 LINE",
"205 83 LINE",
"202 63 LINE",
"198 83 LINE",
"92 384 LINE",
"22 384 LINE",
"165 0 LINE",
"237 0 LINE",
"379 384 LINE"
);
}
);
width = 401;
}
);
unicode = 0076;
},
{
glyphname = w;
lastChange = "2014-08-17 14:35:52 +0530";
layers = (
{
layerId = "CFA4B904-E3F1-48B6-A7F6-47DC1FF2A3E1";
name = Regular;
paths = (
{
closed = 1;
nodes = (
"152 0 LINE",
"224 0 LINE",
"321 297 LINE",
"418 0 LINE",
"491 0 LINE",
"623 384 LINE",
"557 384 LINE",
"457 77 LINE",
"455 62 LINE",
"452 77 LINE",
"356 384 LINE",
"293 384 LINE",
"192 77 LINE",
"190 62 LINE",
"189 77 LINE",
"88 384 LINE",
"22 384 LINE"
);
}
);
width = 645;
}
);
unicode = 0077;
},
{
glyphname = x;
lastChange = "2014-08-17 14:36:07 +0530";
layers = (
{
layerId = "CFA4B904-E3F1-48B6-A7F6-47DC1FF2A3E1";
name = Regular;
paths = (
{
closed = 1;
nodes = (
"27 384 LINE",
"164 189 LINE",
"27 0 LINE",
"99 0 LINE",
"200 141 LINE",
"301 0 LINE",
"380 0 LINE",
"241 191 LINE",
"380 384 LINE",
"307 384 LINE",
"205 240 LINE",
"101 384 LINE"
);
}
);
width = 407;
}
);
unicode = 0078;
},
{
glyphname = y;
lastChange = "2014-08-17 18:06:48 +0530";
layers = (
{
anchors = (
{
name = top;
position = "{202, 384}";
}
);
layerId = "CFA4B904-E3F1-48B6-A7F6-47DC1FF2A3E1";
name = Regular;
paths = (
{
closed = 1;
nodes = (
"208 66 LINE",
"90 384 LINE",
"22 384 LINE",
"176 -20 LINE",
"102 -206 LINE",
"169 -206 LINE",
"388 384 LINE",
"326 384 LINE"
);
}
);
width = 412;
}
);
unicode = 0079;
},
{
glyphname = z;
lastChange = "2014-08-18 12:02:21 +0530";
layers = (
{
anchors = (
{
name = top;
position = "{192, 384}";
}
);
layerId = "CFA4B904-E3F1-48B6-A7F6-47DC1FF2A3E1";
name = Regular;
paths = (
{
closed = 1;
nodes = (
"46 333 LINE",
"252 333 LINE",
"46 33 LINE",
"46 0 LINE",
"348 0 LINE",
"348 49 LINE",
"129 49 LINE",
"337 350 LINE",
"337 384 LINE",
"46 384 LINE"
);
}
);
width = 385;
}
);
unicode = 007A;
},
{
glyphname = "ka-deva";
lastChange = "2014-08-06 12:21:31 +0530";
layers = (
{
anchors = (
{
name = bottom;
position = "{284, 5}";
},
{
name = top;
position = "{284, 447}";
}
);
layerId = "CFA4B904-E3F1-48B6-A7F6-47DC1FF2A3E1";
name = Regular;
paths = (
{
closed = 1;
nodes = (
"257 0 LINE",
"310 0 LINE",
"310 456 LINE",
"257 456 LINE"
);
},
{
closed = 1;
nodes = (
"-24 456 LINE",
"-24 408 LINE",
"573 408 LINE",
"573 456 LINE"
);
},
{
closed = 1;
nodes = (
"28 124 OFFCURVE",
"88 73 OFFCURVE",
"171 73 CURVE SMOOTH",
"233 73 OFFCURVE",
"266 100 OFFCURVE",
"293 118 CURVE",
"279 169 LINE",
"263 157 OFFCURVE",
"237 124 OFFCURVE",
"180 124 CURVE SMOOTH",
"121 124 OFFCURVE",
"84 151 OFFCURVE",
"84 205 CURVE SMOOTH",
"84 258 OFFCURVE",
"121 286 OFFCURVE",
"175 286 CURVE SMOOTH",
"227 286 OFFCURVE",
"263 253 OFFCURVE",
"279 241 CURVE",
"293 292 LINE",
"266 310 OFFCURVE",
"223 337 OFFCURVE",
"171 337 CURVE SMOOTH",
"88 337 OFFCURVE",
"28 286 OFFCURVE",
"28 205 CURVE SMOOTH"
);
},
{
closed = 1;
nodes = (
"514 280 OFFCURVE",
"460 333 OFFCURVE",
"377 333 CURVE SMOOTH",
"325 333 OFFCURVE",
"282 296 OFFCURVE",
"255 278 CURVE",
"269 227 LINE",
"285 239 OFFCURVE",
"327 282 OFFCURVE",
"373 282 CURVE SMOOTH",
"427 282 OFFCURVE",
"458 254 OFFCURVE",
"458 207 CURVE SMOOTH",
"458 156 OFFCURVE",
"421 128 OFFCURVE",
"392 101 CURVE",
"431 62 LINE",
"468 91 OFFCURVE",
"514 138 OFFCURVE",
"514 201 CURVE SMOOTH"
);
}
);
width = 549;
}
);
unicode = 0915;
},
{
glyphname = "kha-deva";
lastChange = "2014-08-06 12:21:35 +0530";
layers = (
{
anchors = (
{
name = bottom;
position = "{480, 5}";
},
{
name = top;
position = "{480, 447}";
}
);
annotations = (
{
position = "{618, 514}";
text = "98 units";
type = Text;
width = 119.527;
},
{
angle = 39.8188;
position = "{566, 465}";
type = Arrow;
}
);
background = {
paths = (
{
closed = 1;
nodes = (
"468 0 LINE",
"521 0 LINE",
"521 456 LINE",
"468 456 LINE"
);
},
{
closed = 1;
nodes = (
"-28 456 LINE",
"-28 408 LINE",
"619 408 LINE",
"619 456 LINE"
);
},
{
closed = 1;
nodes = (
"87 427 OFFCURVE",
"158 403 OFFCURVE",
"158 306 CURVE SMOOTH",
"158 209 OFFCURVE",
"44 206 OFFCURVE",
"44 206 CURVE SMOOTH",
"44 206 OFFCURVE",
"66 157 OFFCURVE",
"66 157 CURVE",
"105 157 OFFCURVE",
"212 191 OFFCURVE",
"212 304 CURVE SMOOTH",
"212 412 OFFCURVE",
"139 443 OFFCURVE",
"139 443 CURVE",
"87 427 LINE"
);
},
{
closed = 1;
nodes = (
"14 212 OFFCURVE",
"209 -17 OFFCURVE",
"209 -17 CURVE SMOOTH",
"209 -17 OFFCURVE",
"253 18 OFFCURVE",
"253 18 CURVE",
"54 246 LINE",
"14 212 LINE"
);
},
{
closed = 1;
nodes = (
"240 121 OFFCURVE",
"300 70 OFFCURVE",
"383 70 CURVE SMOOTH",
"445 70 OFFCURVE",
"478 97 OFFCURVE",
"505 115 CURVE",
"491 166 LINE",
"475 154 OFFCURVE",
"449 121 OFFCURVE",
"392 121 CURVE SMOOTH",
"333 121 OFFCURVE",
"296 148 OFFCURVE",
"296 202 CURVE SMOOTH",
"296 255 OFFCURVE",
"333 283 OFFCURVE",
"387 283 CURVE SMOOTH",
"439 283 OFFCURVE",
"475 250 OFFCURVE",
"491 238 CURVE",
"505 289 LINE",
"478 307 OFFCURVE",
"435 334 OFFCURVE",
"383 334 CURVE SMOOTH",
"300 334 OFFCURVE",
"240 283 OFFCURVE",
"240 202 CURVE SMOOTH"
);
}
);
};
guideLines = (
{
angle = 90;
position = "{495, 204}";
}
);
layerId = "CFA4B904-E3F1-48B6-A7F6-47DC1FF2A3E1";
name = Regular;
paths = (
{
closed = 1;
nodes = (
"453 0 LINE",
"506 0 LINE",
"506 456 LINE",
"453 456 LINE"
);
},
{
closed = 1;
nodes = (
"-24 456 LINE",
"-24 408 LINE",
"604 408 LINE",
"604 456 LINE"
);
},
{
closed = 1;
nodes = (
"87 427 OFFCURVE",
"158 403 OFFCURVE",
"158 306 CURVE SMOOTH",
"158 209 OFFCURVE",
"44 206 OFFCURVE",
"44 206 CURVE SMOOTH",
"44 206 OFFCURVE",
"66 157 OFFCURVE",
"66 157 CURVE",
"105 157 OFFCURVE",
"212 191 OFFCURVE",
"212 304 CURVE SMOOTH",
"212 412 OFFCURVE",
"139 443 OFFCURVE",
"139 443 CURVE",
"87 427 LINE"
);
},
{
closed = 1;
nodes = (
"14 212 OFFCURVE",
"209 -17 OFFCURVE",
"209 -17 CURVE SMOOTH",
"209 -17 OFFCURVE",
"253 18 OFFCURVE",
"253 18 CURVE",
"54 246 LINE",
"14 212 LINE"
);
},
{
closed = 1;
nodes = (
"245 121 OFFCURVE",
"303 70 OFFCURVE",
"376 70 CURVE SMOOTH",
"428 70 OFFCURVE",
"463 84 OFFCURVE",
"490 102 CURVE",
"476 154 LINE",
"460 140 OFFCURVE",
"432 121 OFFCURVE",
"385 121 CURVE SMOOTH",
"336 121 OFFCURVE",
"301 148 OFFCURVE",
"301 202 CURVE SMOOTH",
"301 255 OFFCURVE",
"336 283 OFFCURVE",
"380 283 CURVE SMOOTH",
"432 283 OFFCURVE",
"460 258 OFFCURVE",
"476 245 CURVE",
"490 298 LINE",
"463 314 OFFCURVE",
"428 334 OFFCURVE",
"376 334 CURVE SMOOTH",
"303 334 OFFCURVE",
"245 283 OFFCURVE",
"245 202 CURVE SMOOTH"
);
}
);
width = 580;
}
);
unicode = 0916;
},
{
glyphname = "ga-deva";
lastChange = "2014-08-06 12:21:39 +0530";
layers = (
{
anchors = (
{
name = bottom;
position = "{341, 5}";
},
{
name = top;
position = "{341, 447}";
}
);
annotations = (
{
position = "{452, 535}";
text = "98 units";
type = Text;
},
{
angle = 38.5692;
position = "{418, 463}";
type = Arrow;
}
);
guideLines = (
{
angle = 90;
position = "{345, 66}";
}
);
layerId = "CFA4B904-E3F1-48B6-A7F6-47DC1FF2A3E1";
name = Regular;
paths = (
{
closed = 1;
nodes = (
"313 0 LINE",
"369 0 LINE",
"369 456 LINE",
"313 456 LINE"
);
},
{
closed = 1;
nodes = (
"92 151 LINE",
"147 151 LINE",
"147 456 LINE",
"92 456 LINE"
);
},
{
closed = 1;
nodes = (
"-24 456 LINE",
"-24 408 LINE",
"467 408 LINE",
"467 456 LINE"
);
},
{
closed = 1;
nodes = (
"34 215 LINE",
"34 181 LINE",
"109 90 LINE",
"109 90 OFFCURVE",
"147 90 OFFCURVE",
"147 90 CURVE",
"147 215 LINE"
);
}
);
width = 443;
}
);
unicode = 0917;
},
{
glyphname = "gha-deva";
lastChange = "2014-08-07 07:48:36 +0530";
layers = (
{
anchors = (
{
name = bottom;
position = "{391, 5}";
},
{
name = top;
position = "{391, 447}";
}
);
annotations = (
{
position = "{500, 549}";
text = "98 units";
type = Text;
},
{
angle = 54.123;
position = "{463, 485}";
type = Arrow;
}
);
background = {
paths = (
{
closed = 1;
nodes = (
"347 0 LINE",
"402 0 LINE",
"402 456 LINE",
"347 456 LINE"
);
},
{
closed = 1;
nodes = (
"-24 456 LINE",
"-24 408 LINE",
"479 408 LINE",
"479 456 LINE"
);
},
{
closed = 1;
nodes = (
"116 237 OFFCURVE",
"192 261 OFFCURVE",
"192 262 CURVE",
"192 262 OFFCURVE",
"94 281 OFFCURVE",
"94 354 CURVE SMOOTH",
"94 426 OFFCURVE",
"173 456 OFFCURVE",
"173 456 CURVE SMOOTH",
"97 456 LINE SMOOTH",
"97 456 OFFCURVE",
"37 422 OFFCURVE",
"37 354 CURVE SMOOTH",
"37 279 OFFCURVE",
"100 249 OFFCURVE",
"116 237 CURVE"
);
},
{
closed = 1;
nodes = (
"107 298 OFFCURVE",
"63 245 OFFCURVE",
"63 191 CURVE SMOOTH",
"63 122 OFFCURVE",
"124 75 OFFCURVE",
"212 75 CURVE SMOOTH",
"297 75 OFFCURVE",
"351 123 OFFCURVE",
"351 123 CURVE",
"351 190 LINE",
"351 190 OFFCURVE",
"299 128 OFFCURVE",
"209 128 CURVE SMOOTH",
"171 128 OFFCURVE",
"119 147 OFFCURVE",
"119 188 CURVE SMOOTH",
"119 230 OFFCURVE",
"169 243 OFFCURVE",
"238 248 CURVE",
"220 298 LINE"
);
},
{
closed = 1;
nodes = (
"942 0 LINE",
"997 0 LINE",
"997 456 LINE",
"942 456 LINE"
);
},
{
closed = 1;
nodes = (
"576 456 LINE",
"576 408 LINE",
"1074 408 LINE",
"1074 456 LINE"
);
},
{
closed = 1;
nodes = (
"747 287 OFFCURVE",
"693 314 OFFCURVE",
"693 363 CURVE SMOOTH",
"693 433 OFFCURVE",
"769 454 OFFCURVE",
"773 456 CURVE",
"697 456 LINE SMOOTH",
"697 456 OFFCURVE",
"637 431 OFFCURVE",
"637 363 CURVE SMOOTH",
"637 312 OFFCURVE",
"668 279 OFFCURVE",
"712 263 CURVE",
"677 245 OFFCURVE",
"663 216 OFFCURVE",
"663 182 CURVE SMOOTH",
"663 122 OFFCURVE",
"724 75 OFFCURVE",
"812 75 CURVE SMOOTH",
"891 75 OFFCURVE",
"951 121 OFFCURVE",
"951 123 CURVE",
"951 190 LINE",
"951 190 OFFCURVE",
"899 127 OFFCURVE",
"809 127 CURVE SMOOTH",
"771 127 OFFCURVE",
"719 143 OFFCURVE",
"719 184 CURVE SMOOTH",
"719 221 OFFCURVE",
"745 243 OFFCURVE",
"825 243 CURVE",
"825 293 LINE"
);
},
{
closed = 1;
nodes = (
"179 30 OFFCURVE",
"215 -9 OFFCURVE",
"215 -9 CURVE SMOOTH",
"215 -9 OFFCURVE",
"444 190 OFFCURVE",
"444 190 CURVE",
"415 228 LINE",
"179 30 LINE"
);
}
);
};
guideLines = (
{
angle = 90;
position = "{391, 239}";
}
);
layerId = "CFA4B904-E3F1-48B6-A7F6-47DC1FF2A3E1";
name = Regular;
paths = (
{
closed = 1;
nodes = (
"363 0 LINE",
"419 0 LINE",
"419 456 LINE",
"363 456 LINE"
);
},
{
closed = 1;
nodes = (
"-24 456 LINE",
"-24 408 LINE",
"517 408 LINE",
"517 456 LINE"
);
},
{
closed = 1;
nodes = (
"131 237 OFFCURVE",
"207 261 OFFCURVE",
"207 262 CURVE",
"207 262 OFFCURVE",
"109 281 OFFCURVE",
"109 354 CURVE SMOOTH",
"109 426 OFFCURVE",
"188 456 OFFCURVE",
"188 456 CURVE SMOOTH",
"112 456 LINE SMOOTH",
"112 456 OFFCURVE",
"52 422 OFFCURVE",
"52 354 CURVE SMOOTH",
"52 279 OFFCURVE",
"115 249 OFFCURVE",
"131 237 CURVE"
);
},
{
closed = 1;
nodes = (
"115 290 OFFCURVE",
"78 245 OFFCURVE",
"78 191 CURVE SMOOTH",
"78 122 OFFCURVE",
"141 75 OFFCURVE",
"227 75 CURVE SMOOTH",
"312 75 OFFCURVE",
"367 123 OFFCURVE",
"367 123 CURVE",
"367 190 LINE",
"367 190 OFFCURVE",
"314 128 OFFCURVE",
"224 128 CURVE SMOOTH",
"186 128 OFFCURVE",
"134 147 OFFCURVE",
"134 188 CURVE SMOOTH",
"134 230 OFFCURVE",
"182 243 OFFCURVE",
"249 248 CURVE",
"235 298 LINE"
);
}
);
width = 493;
}
);
unicode = 0918;
},
{
glyphname = "nga-deva";
lastChange = "2014-08-07 06:05:32 +0530";
layers = (
{
anchors = (
{
name = bottom;
position = "{225, -25}";
},
{
name = top;
position = "{302, 447}";
}
);
background = {
paths = (
{
closed = 1;
nodes = (
"429 207 LINE",
"429 266 LINE",
"368 266 LINE",
"368 207 LINE"
);
},
{
closed = 1;
nodes = (
"-24 456 LINE",
"-24 408 LINE",
"500 408 LINE",
"500 456 LINE"
);
},
{
closed = 1;
nodes = (
"278 164 OFFCURVE",
"308 153 OFFCURVE",
"308 106 CURVE SMOOTH",
"308 73 OFFCURVE",
"264 52 OFFCURVE",
"224 52 CURVE SMOOTH",
"165 52 OFFCURVE",
"115 78 OFFCURVE",
"67 130 CURVE",
"27 98 LINE",
"80 32 OFFCURVE",
"134 0 OFFCURVE",
"224 0 CURVE SMOOTH",
"309 0 OFFCURVE",
"366 46 OFFCURVE",
"366 111 CURVE SMOOTH",
"366 191 OFFCURVE",
"301 216 OFFCURVE",
"237 216 CURVE SMOOTH",
"185 216 OFFCURVE",
"132 212 OFFCURVE",
"132 256 CURVE SMOOTH",
"132 284 OFFCURVE",
"155 294 OFFCURVE",
"205 294 CURVE SMOOTH",
"267 294 OFFCURVE",
"284 289 OFFCURVE",
"319 285 CURVE",
"329 292 LINE",
"329 456 LINE",
"273 456 LINE",
"273 344 LINE",
"247 347 OFFCURVE",
"239 348 OFFCURVE",
"206 348 CURVE SMOOTH",
"129 348 OFFCURVE",
"76 324 OFFCURVE",
"76 260 CURVE SMOOTH",
"76 153 OFFCURVE",
"187 164 OFFCURVE",
"217 164 CURVE SMOOTH"
);
},
{
closed = 1;
nodes = (
"434 207 LINE",
"434 266 LINE",
"373 266 LINE",
"373 207 LINE"
);
}
);
};
components = (
{
name = "nukta-deva";
transform = "{1, 0, 0, 1, 434, 306}";
}
);
layerId = "CFA4B904-E3F1-48B6-A7F6-47DC1FF2A3E1";
name = Regular;
paths = (
{
closed = 1;
nodes = (
"-24 456 LINE",
"-24 408 LINE",
"500 408 LINE",
"500 456 LINE"
);
},
{
closed = 1;
nodes = (
"280 171 OFFCURVE",
"309 153 OFFCURVE",
"309 116 CURVE SMOOTH",
"309 73 OFFCURVE",
"268 52 OFFCURVE",
"224 52 CURVE SMOOTH",
"165 52 OFFCURVE",
"116 81 OFFCURVE",
"68 128 CURVE",
"34 91 LINE",
"86 38 OFFCURVE",
"149 0 OFFCURVE",
"225 0 CURVE SMOOTH",
"306 0 OFFCURVE",
"363 46 OFFCURVE",
"363 120 CURVE SMOOTH",
"363 181 OFFCURVE",
"310 220 OFFCURVE",
"238 216 CURVE SMOOTH",
"186 213 OFFCURVE",
"133 212 OFFCURVE",
"133 256 CURVE SMOOTH",
"133 284 OFFCURVE",
"156 294 OFFCURVE",
"206 294 CURVE SMOOTH",
"268 294 OFFCURVE",
"285 289 OFFCURVE",
"320 285 CURVE",
"330 292 LINE",
"330 456 LINE",
"274 456 LINE",
"274 343 LINE",
"253 345 OFFCURVE",
"241 346 OFFCURVE",
"208 346 CURVE SMOOTH",
"131 346 OFFCURVE",
"80 322 OFFCURVE",
"80 259 CURVE SMOOTH",
"80 162 OFFCURVE",
"182 161 OFFCURVE",
"220 165 CURVE SMOOTH"
);
}
);
width = 475;
}
);
unicode = 0919;
},
{
glyphname = "ca-deva";
lastChange = "2014-08-11 08:14:13 +0530";
layers = (
{
anchors = (
{
name = bottom;
position = "{368, 5}";
},
{
name = top;
position = "{368, 447}";
}
);
annotations = (
{
position = "{430, 541}";
text = "98 units";
type = Text;
},
{
angle = 56.7035;
position = "{435, 470}";
type = Arrow;
}
);
background = {
paths = (
{
closed = 1;
nodes = (
"335 0 LINE",
"391 0 LINE",
"391 456 LINE",
"335 456 LINE"
);
},
{
closed = 1;
nodes = (
"-24 456 LINE",
"-24 408 LINE",
"489 408 LINE",
"489 456 LINE"
);
},
{
closed = 1;
nodes = (
"357 187 OFFCURVE",
"317 130 OFFCURVE",
"233 130 CURVE SMOOTH",
"179 130 OFFCURVE",
"138 155 OFFCURVE",
"138 200 CURVE SMOOTH",
"138 251 OFFCURVE",
"190 266 OFFCURVE",
"190 266 CURVE SMOOTH",
"115 266 LINE SMOOTH",
"115 266 OFFCURVE",
"82 249 OFFCURVE",
"82 194 CURVE SMOOTH",
"82 133 OFFCURVE",
"134 78 OFFCURVE",
"232 78 CURVE SMOOTH",
"310 78 OFFCURVE",
"347 112 OFFCURVE",
"368 130 CURVE",
"368 200 LINE"
);
},
{
closed = 1;
nodes = (
"16 296 LINE",
"16 248 LINE",
"248 248 LINE",
"248 296 LINE"
);
}
);
};
guideLines = (
{
angle = 90;
position = "{368, 248}";
}
);
layerId = "CFA4B904-E3F1-48B6-A7F6-47DC1FF2A3E1";
name = Regular;
paths = (
{
closed = 1;
nodes = (
"340 0 LINE",
"396 0 LINE",
"396 456 LINE",
"340 456 LINE"
);
},
{
closed = 1;
nodes = (
"-24 456 LINE",
"-24 408 LINE",
"494 408 LINE",
"494 456 LINE"
);
},
{
closed = 1;
nodes = (
"362 187 OFFCURVE",
"322 130 OFFCURVE",
"238 130 CURVE SMOOTH",
"184 130 OFFCURVE",
"143 155 OFFCURVE",
"143 200 CURVE SMOOTH",
"143 261 OFFCURVE",
"205 271 OFFCURVE",
"205 271 CURVE SMOOTH",
"124 271 LINE SMOOTH",
"124 271 OFFCURVE",
"87 259 OFFCURVE",
"87 194 CURVE SMOOTH",
"87 133 OFFCURVE",
"139 78 OFFCURVE",
"237 78 CURVE SMOOTH",
"314 78 OFFCURVE",
"352 112 OFFCURVE",
"373 130 CURVE",
"373 200 LINE"
);
},
{
closed = 1;
nodes = (
"21 301 LINE",
"21 253 LINE",
"253 253 LINE",
"253 301 LINE"
);
}
);
width = 470;
}
);
unicode = 091A;
},
{
glyphname = "cha-deva";
lastChange = "2014-08-06 12:21:49 +0530";
layers = (
{
anchors = (
{
name = bottom;
position = "{254, -19}";
},
{
name = top;
position = "{406, 447}";
}
);
background = {
paths = (
{
closed = 1;
nodes = (
"553 908 LINE",
"553 956 LINE",
"-24 956 LINE",
"-24 908 LINE"
);
},
{
closed = 1;
nodes = (
"440 621 OFFCURVE",
"347 558 OFFCURVE",
"244 558 CURVE SMOOTH",
"176 558 OFFCURVE",
"108 590 OFFCURVE",
"108 647 CURVE SMOOTH",
"108 687 OFFCURVE",
"133 730 OFFCURVE",
"241 726 CURVE",
"246 726 LINE",
"246 775 LINE",
"237 775 LINE SMOOTH",
"133 774 OFFCURVE",
"126 823 OFFCURVE",
"126 844 CURVE SMOOTH",
"126 878 OFFCURVE",
"143 900 OFFCURVE",
"189 908 CURVE",
"237 956 LINE",
"202 956 OFFCURVE",
"148 944 OFFCURVE",
"117 924 CURVE SMOOTH",
"84 903 OFFCURVE",
"72 873 OFFCURVE",
"72 844 CURVE SMOOTH",
"72 805 OFFCURVE",
"90 775 OFFCURVE",
"135 752 CURVE",
"88 736 OFFCURVE",
"54 704 OFFCURVE",
"54 641 CURVE SMOOTH",
"54 564 OFFCURVE",
"131 506 OFFCURVE",
"244 506 CURVE SMOOTH",
"339 506 OFFCURVE",
"491 557 OFFCURVE",
"491 720 CURVE SMOOTH",
"491 798 OFFCURVE",
"457 849 OFFCURVE",
"400 849 CURVE SMOOTH",
"343 849 OFFCURVE",
"306 798 OFFCURVE",
"306 728 CURVE SMOOTH",
"306 637 OFFCURVE",
"351 584 OFFCURVE",
"363 569 CURVE",
"363 569 OFFCURVE",
"410 594 OFFCURVE",
"410 594 CURVE SMOOTH",
"410 594 OFFCURVE",
"357 640 OFFCURVE",
"357 728 CURVE SMOOTH",
"357 766 OFFCURVE",
"374 794 OFFCURVE",
"400 794 CURVE SMOOTH",
"422 794 OFFCURVE",
"440 773 OFFCURVE",
"440 716 CURVE SMOOTH"
);
},
{
closed = 1;
nodes = (
"381 833 LINE",
"431 833 LINE",
"431 956 LINE",
"381 956 LINE"
);
},
{
closed = 1;
nodes = (
"558 908 LINE",
"558 956 LINE",
"-24 956 LINE",
"-24 908 LINE"
);
},
{
closed = 1;
nodes = (
"450 621 OFFCURVE",
"375 558 OFFCURVE",
"254 558 CURVE SMOOTH",
"186 558 OFFCURVE",
"118 590 OFFCURVE",
"118 647 CURVE SMOOTH",
"118 687 OFFCURVE",
"133 730 OFFCURVE",
"241 726 CURVE",
"246 726 LINE",
"246 775 LINE",
"237 775 LINE SMOOTH",
"133 774 OFFCURVE",
"126 823 OFFCURVE",
"126 844 CURVE SMOOTH",
"126 878 OFFCURVE",
"143 900 OFFCURVE",
"189 908 CURVE",
"237 956 LINE",
"202 956 OFFCURVE",
"148 944 OFFCURVE",
"117 924 CURVE SMOOTH",
"84 903 OFFCURVE",
"72 873 OFFCURVE",
"72 844 CURVE SMOOTH",
"72 805 OFFCURVE",
"90 775 OFFCURVE",
"135 752 CURVE",
"94 732 OFFCURVE",
"64 704 OFFCURVE",
"64 653 CURVE SMOOTH",
"64 564 OFFCURVE",
"141 506 OFFCURVE",
"254 506 CURVE SMOOTH",
"358 506 OFFCURVE",
"501 557 OFFCURVE",
"501 720 CURVE SMOOTH",
"501 798 OFFCURVE",
"457 849 OFFCURVE",
"400 849 CURVE SMOOTH",
"343 849 OFFCURVE",
"306 798 OFFCURVE",
"306 728 CURVE SMOOTH",
"306 637 OFFCURVE",
"358 584 OFFCURVE",
"360 569 CURVE",
"360 569 OFFCURVE",
"420 594 OFFCURVE",
"410 594 CURVE SMOOTH",
"410 594 OFFCURVE",
"357 640 OFFCURVE",
"357 728 CURVE SMOOTH",
"357 766 OFFCURVE",
"374 794 OFFCURVE",
"400 794 CURVE SMOOTH",
"422 794 OFFCURVE",
"450 773 OFFCURVE",
"450 716 CURVE SMOOTH"
);
},
{
closed = 1;
nodes = (
"381 833 LINE",
"431 833 LINE",
"431 956 LINE",
"381 956 LINE"
);
},
{
closed = 1;
nodes = (
"558 408 LINE",
"558 456 LINE",
"-24 456 LINE",
"-24 408 LINE"
);
},
{
closed = 1;
nodes = (
"450 121 OFFCURVE",
"375 58 OFFCURVE",
"254 58 CURVE SMOOTH",
"186 58 OFFCURVE",
"118 85 OFFCURVE",
"118 154 CURVE SMOOTH",
"118 187 OFFCURVE",
"143 230 OFFCURVE",
"241 226 CURVE",
"246 226 LINE",
"246 275 LINE",
"237 275 LINE SMOOTH",
"133 274 OFFCURVE",
"126 323 OFFCURVE",
"126 344 CURVE SMOOTH",
"126 378 OFFCURVE",
"143 400 OFFCURVE",
"189 408 CURVE",
"237 456 LINE",
"202 456 OFFCURVE",
"148 444 OFFCURVE",
"117 424 CURVE SMOOTH",
"84 403 OFFCURVE",
"72 373 OFFCURVE",
"72 344 CURVE SMOOTH",
"72 305 OFFCURVE",
"90 275 OFFCURVE",
"135 252 CURVE",
"94 232 OFFCURVE",
"64 204 OFFCURVE",
"64 153 CURVE SMOOTH",
"64 64 OFFCURVE",
"141 6 OFFCURVE",
"254 6 CURVE SMOOTH",
"358 6 OFFCURVE",
"501 57 OFFCURVE",
"501 220 CURVE SMOOTH",
"501 298 OFFCURVE",
"457 349 OFFCURVE",
"400 349 CURVE SMOOTH",
"343 349 OFFCURVE",
"306 298 OFFCURVE",
"306 228 CURVE SMOOTH",
"306 137 OFFCURVE",
"358 84 OFFCURVE",
"360 69 CURVE",
"360 69 OFFCURVE",
"420 94 OFFCURVE",
"410 94 CURVE SMOOTH",
"410 94 OFFCURVE",
"357 140 OFFCURVE",
"357 228 CURVE SMOOTH",
"357 266 OFFCURVE",
"374 294 OFFCURVE",
"400 294 CURVE SMOOTH",
"422 294 OFFCURVE",
"450 273 OFFCURVE",
"450 216 CURVE SMOOTH"
);
},
{
closed = 1;
nodes = (
"381 333 LINE",
"431 333 LINE",
"431 456 LINE",
"381 456 LINE"
);
}
);
};
layerId = "CFA4B904-E3F1-48B6-A7F6-47DC1FF2A3E1";
name = Regular;
paths = (
{
closed = 1;
nodes = (
"558 408 LINE",
"558 456 LINE",
"-24 456 LINE",
"-24 408 LINE"
);
},
{
closed = 1;
nodes = (
"450 121 OFFCURVE",
"375 58 OFFCURVE",
"254 58 CURVE SMOOTH",
"186 58 OFFCURVE",
"118 90 OFFCURVE",
"118 147 CURVE SMOOTH",
"118 187 OFFCURVE",
"133 230 OFFCURVE",
"241 226 CURVE",
"246 226 LINE",
"246 275 LINE",
"237 275 LINE SMOOTH",
"133 274 OFFCURVE",
"126 323 OFFCURVE",
"126 344 CURVE SMOOTH",
"126 378 OFFCURVE",
"143 400 OFFCURVE",
"189 408 CURVE",
"237 456 LINE",
"202 456 OFFCURVE",
"148 444 OFFCURVE",
"117 424 CURVE SMOOTH",
"84 403 OFFCURVE",
"72 373 OFFCURVE",
"72 344 CURVE SMOOTH",
"72 305 OFFCURVE",
"90 275 OFFCURVE",
"135 252 CURVE",
"94 232 OFFCURVE",
"64 204 OFFCURVE",
"64 153 CURVE SMOOTH",
"64 64 OFFCURVE",
"141 6 OFFCURVE",
"254 6 CURVE SMOOTH",
"358 6 OFFCURVE",
"501 57 OFFCURVE",
"501 220 CURVE SMOOTH",
"501 298 OFFCURVE",
"457 349 OFFCURVE",
"400 349 CURVE SMOOTH",
"343 349 OFFCURVE",
"298 298 OFFCURVE",
"298 228 CURVE SMOOTH",
"298 147 OFFCURVE",
"340 98 OFFCURVE",
"360 69 CURVE",
"360 69 OFFCURVE",
"420 94 OFFCURVE",
"410 94 CURVE SMOOTH",
"410 94 OFFCURVE",
"351 140 OFFCURVE",
"351 228 CURVE SMOOTH",
"351 266 OFFCURVE",
"374 295 OFFCURVE",
"400 295 CURVE SMOOTH",
"422 295 OFFCURVE",
"450 273 OFFCURVE",
"450 216 CURVE SMOOTH"
);
},
{
closed = 1;
nodes = (
"381 333 LINE",
"431 333 LINE",
"431 456 LINE",
"381 456 LINE"
);
}
);
width = 534;
}
);
unicode = 091B;
},
{
glyphname = "ja-deva";
lastChange = "2014-08-06 12:21:51 +0530";
layers = (
{
anchors = (
{
name = bottom;
position = "{437, 5}";
},
{
name = top;
position = "{437, 447}";
}
);
annotations = (
{
position = "{513, 547}";
text = "98 units";
type = Text;
},
{
angle = 61.7163;
position = "{504, 475}";
type = Arrow;
}
);
guideLines = (
{
angle = 90;
position = "{437, -65}";
}
);
layerId = "CFA4B904-E3F1-48B6-A7F6-47DC1FF2A3E1";
name = Regular;
paths = (
{
closed = 1;
nodes = (
"409 0 LINE",
"465 0 LINE",
"465 456 LINE",
"409 456 LINE"
);
},
{
closed = 1;
nodes = (
"-24 456 LINE",
"-24 408 LINE",
"563 408 LINE",
"563 456 LINE"
);
},
{
closed = 1;
nodes = (
"430 284 OFFCURVE",
"295 284 OFFCURVE",
"231 284 CURVE",
"227 236 LINE",
"299 236 OFFCURVE",
"430 236 OFFCURVE",
"430 236 CURVE",
"430 284 LINE"
);
},
{
closed = 1;
nodes = (
"334 186 OFFCURVE",
"324 231 OFFCURVE",
"276 265 CURVE SMOOTH",
"265 273 OFFCURVE",
"254 276 OFFCURVE",
"241 284 CURVE",
"198 284 LINE",
"198 239 LINE",
"264 239 OFFCURVE",
"282 193 OFFCURVE",
"282 160 CURVE SMOOTH",
"282 112 OFFCURVE",
"247 87 OFFCURVE",
"204 87 CURVE SMOOTH",
"146 87 OFFCURVE",
"91 144 OFFCURVE",
"61 245 CURVE",
"14 225 LINE",
"51 104 OFFCURVE",
"116 35 OFFCURVE",
"205 35 CURVE SMOOTH",
"256 35 OFFCURVE",
"334 64 OFFCURVE",
"334 156 CURVE SMOOTH"
);
}
);
width = 539;
}
);
unicode = 091C;
},
{
glyphname = "jha-deva";
lastChange = "2014-08-06 12:21:53 +0530";
layers = (
{
anchors = (
{
name = bottom;
position = "{462, 5}";
},
{
name = top;
position = "{462, 447}";
}
);
annotations = (
{
position = "{529, 544}";
text = "98 units";
type = Text;
},
{
angle = 65.2072;
position = "{539, 470}";
type = Arrow;
}
);
guideLines = (
{
angle = 90;
position = "{462, 364}";
}
);
layerId = "CFA4B904-E3F1-48B6-A7F6-47DC1FF2A3E1";
name = Regular;
paths = (
{
closed = 1;
nodes = (
"-24 456 LINE",
"-24 408 LINE",
"585 408 LINE",
"585 456 LINE"
);
},
{
closed = 1;
nodes = (
"477 237 OFFCURVE",
"454 184 OFFCURVE",
"371 184 CURVE SMOOTH",
"346 184 OFFCURVE",
"291 203 OFFCURVE",
"256 211 CURVE",
"244 168 LINE",
"280 159 OFFCURVE",
"332 136 OFFCURVE",
"382 136 CURVE SMOOTH",
"446 136 OFFCURVE",
"477 186 OFFCURVE",
"477 186 CURVE",
"477 237 LINE"
);
},
{
closed = 1;
nodes = (
"434 0 LINE",
"490 0 LINE",
"490 456 LINE",
"434 456 LINE"
);
},
{
closed = 1;
nodes = (
"104 53 LINE",
"104 53 OFFCURVE",
"199 -97 OFFCURVE",
"199 -97 CURVE SMOOTH",
"199 -97 OFFCURVE",
"247 -75 OFFCURVE",
"247 -75 CURVE",
"155 59 LINE"
);
},
{
closed = 1;
nodes = (
"52 189 OFFCURVE",
"101 163 OFFCURVE",
"150 163 CURVE SMOOTH",
"177 163 OFFCURVE",
"203 169 OFFCURVE",
"223 169 CURVE SMOOTH",
"265 169 OFFCURVE",
"282 146 OFFCURVE",
"282 116 CURVE SMOOTH",
"282 77 OFFCURVE",
"238 59 OFFCURVE",
"203 59 CURVE SMOOTH",
"183 59 OFFCURVE",
"168 59 OFFCURVE",
"151 65 CURVE",
"98 134 LINE",
"71 136 OFFCURVE",
"46 121 OFFCURVE",
"46 96 CURVE SMOOTH",
"46 36 OFFCURVE",
"140 9 OFFCURVE",
"197 9 CURVE SMOOTH",
"277 9 OFFCURVE",
"336 50 OFFCURVE",
"336 115 CURVE SMOOTH",
"336 185 OFFCURVE",
"292 222 OFFCURVE",
"225 222 CURVE SMOOTH",
"204 222 OFFCURVE",
"181 216 OFFCURVE",
"160 216 CURVE SMOOTH",
"127 216 OFFCURVE",
"105 223 OFFCURVE",
"105 256 CURVE SMOOTH",
"105 284 OFFCURVE",
"129 294 OFFCURVE",
"179 294 CURVE SMOOTH",
"241 294 OFFCURVE",
"258 289 OFFCURVE",
"293 285 CURVE",
"303 292 LINE",
"303 456 LINE",
"247 456 LINE",
"247 341 LINE",
"221 344 OFFCURVE",
"213 345 OFFCURVE",
"180 345 CURVE SMOOTH",
"107 345 OFFCURVE",
"52 323 OFFCURVE",
"52 260 CURVE SMOOTH"
);
}
);
width = 561;
}
);
unicode = 091D;
},
{
glyphname = "nya-deva";
lastChange = "2014-08-06 12:21:55 +0530";
layers = (
{
anchors = (
{
name = bottom;
position = "{425, 5}";
},
{
name = top;
position = "{425, 447}";
}
);
annotations = (
{
position = "{502, 535}";
text = "98 units";
type = Text;
},
{
angle = 47.8513;
position = "{492, 468}";
type = Arrow;
}
);
guideLines = (
{
angle = 90;
position = "{425, 366}";
}
);
layerId = "CFA4B904-E3F1-48B6-A7F6-47DC1FF2A3E1";
name = Regular;
paths = (
{
closed = 1;
nodes = (
"397 0 LINE",
"453 0 LINE",
"453 456 LINE",
"397 456 LINE"
);
},
{
closed = 1;
nodes = (
"-24 456 LINE",
"-24 408 LINE",
"551 408 LINE",
"551 456 LINE"
);
},
{
closed = 1;
nodes = (
"252 257 OFFCURVE",
"268 226 OFFCURVE",
"268 190 CURVE SMOOTH",
"268 144 OFFCURVE",
"238 116 OFFCURVE",
"195 116 CURVE SMOOTH",
"133 116 OFFCURVE",
"93 174 OFFCURVE",
"53 275 CURVE",
"6 256 LINE",
"50 135 OFFCURVE",
"108 63 OFFCURVE",
"197 63 CURVE SMOOTH",
"256 63 OFFCURVE",
"310 98 OFFCURVE",
"320 170 CURVE SMOOTH",
"321 174 OFFCURVE",
"323 177 OFFCURVE",
"323 181 CURVE SMOOTH",
"323 251 OFFCURVE",
"281 310 OFFCURVE",
"205 310 CURVE SMOOTH",
"168 310 OFFCURVE",
"141 299 OFFCURVE",
"118 284 CURVE",
"118 284 OFFCURVE",
"141 236 OFFCURVE",
"141 236 CURVE SMOOTH",
"141 236 OFFCURVE",
"171 257 OFFCURVE",
"200 257 CURVE SMOOTH"
);
},
{
closed = 1;
nodes = (
"424 226 OFFCURVE",
"399 208 OFFCURVE",
"359 208 CURVE SMOOTH",
"324 208 OFFCURVE",
"317 215 OFFCURVE",
"291 228 CURVE",
"287 172 LINE",
"313 164 OFFCURVE",
"332 158 OFFCURVE",
"359 158 CURVE SMOOTH",
"392 158 OFFCURVE",
"424 171 OFFCURVE",
"440 184 CURVE",
"440 239 LINE"
);
}
);
width = 527;
}
);
unicode = 091E;
},
{
glyphname = "tta-deva";
lastChange = "2014-08-20 05:13:30 +0530";
layers = (
{
anchors = (
{
name = bottom;
position = "{210, -25}";
},
{
name = top;
position = "{287, 447}";
}
);
background = {
paths = (
{
closed = 1;
nodes = (
"-24 456 LINE",
"-24 408 LINE",
"414 408 LINE",
"414 456 LINE"
);
},
{
closed = 1;
nodes = (
"305 80 OFFCURVE",
"264 55 OFFCURVE",
"214 55 CURVE SMOOTH",
"144 55 OFFCURVE",
"99 96 OFFCURVE",
"99 161 CURVE SMOOTH",
"99 219 OFFCURVE",
"133 262 OFFCURVE",
"208 262 CURVE SMOOTH",
"245 262 OFFCURVE",
"270 257 OFFCURVE",
"306 253 CURVE",
"315 260 LINE",
"315 456 LINE",
"259 456 LINE",
"259 315 LINE",
"233 316 OFFCURVE",
"214 317 OFFCURVE",
"200 317 CURVE SMOOTH",
"91 317 OFFCURVE",
"41 244 OFFCURVE",
"41 158 CURVE SMOOTH",
"41 63 OFFCURVE",
"113 0 OFFCURVE",
"210 0 CURVE SMOOTH",
"277 0 OFFCURVE",
"330 29 OFFCURVE",
"355 46 CURVE",
"331 95 LINE"
);
}
);
};
layerId = "CFA4B904-E3F1-48B6-A7F6-47DC1FF2A3E1";
name = Regular;
paths = (
{
closed = 1;
nodes = (
"-24 456 LINE",
"-24 408 LINE",
"414 408 LINE",
"414 456 LINE"
);
},
{
closed = 1;
nodes = (
"305 77 OFFCURVE",
"264 52 OFFCURVE",
"214 52 CURVE SMOOTH",
"141 52 OFFCURVE",
"96 93 OFFCURVE",
"96 161 CURVE SMOOTH",
"96 222 OFFCURVE",
"130 265 OFFCURVE",
"208 265 CURVE SMOOTH",
"245 265 OFFCURVE",
"270 260 OFFCURVE",
"306 256 CURVE",
"315 263 LINE",
"315 456 LINE",
"259 456 LINE",
"259 315 LINE",
"233 316 OFFCURVE",
"214 317 OFFCURVE",
"200 317 CURVE SMOOTH",
"91 317 OFFCURVE",
"41 244 OFFCURVE",
"41 163 CURVE SMOOTH",
"41 63 OFFCURVE",
"113 0 OFFCURVE",
"210 0 CURVE SMOOTH",
"277 0 OFFCURVE",
"330 29 OFFCURVE",
"355 46 CURVE",
"331 92 LINE"
);
}
);
width = 390;
}
);
unicode = 091F;
},
{
glyphname = "ttha-deva";
lastChange = "2014-08-20 07:39:34 +0530";
layers = (
{
anchors = (
{
name = bottom;
position = "{211, -25}";
},
{
name = top;
position = "{277, 447}";
}
);
layerId = "CFA4B904-E3F1-48B6-A7F6-47DC1FF2A3E1";
name = Regular;
paths = (
{
closed = 1;
nodes = (
"-24 456 LINE",
"-24 408 LINE",
"454 408 LINE",
"454 456 LINE"
);
},
{
closed = 1;
nodes = (
"388 234 OFFCURVE",
"335 287 OFFCURVE",
"285 316 CURVE",
"243 273 LINE",
"279 267 OFFCURVE",
"332 225 OFFCURVE",
"332 152 CURVE SMOOTH",
"332 87 OFFCURVE",
"284 53 OFFCURVE",
"213 53 CURVE SMOOTH",
"138 53 OFFCURVE",
"98 96 OFFCURVE",
"98 161 CURVE SMOOTH",
"98 225 OFFCURVE",
"135 264 OFFCURVE",
"210 264 CURVE SMOOTH",
"298 264 LINE",
"307 262 LINE",
"307 456 LINE",
"251 456 LINE",
"251 317 LINE",
"202 317 LINE SMOOTH",
"93 317 OFFCURVE",
"43 244 OFFCURVE",
"43 158 CURVE SMOOTH",
"43 65 OFFCURVE",
"110 0 OFFCURVE",
"207 0 CURVE SMOOTH",
"351 0 OFFCURVE",
"388 86 OFFCURVE",
"388 158 CURVE SMOOTH"
);
}
);
width = 430;
}
);
unicode = 0920;
},
{
glyphname = "dda-deva";
lastChange = "2014-08-06 12:22:02 +0530";
layers = (
{
anchors = (
{
name = bottom;
position = "{225, -25}";
},
{
name = top;
position = "{302, 447}";
}
);
background = {
paths = (
{
closed = 1;
nodes = (
"-28 456 LINE",
"-28 408 LINE",
"419 408 LINE",
"419 456 LINE"
);
},
{
closed = 1;
nodes = (
"279 164 OFFCURVE",
"309 153 OFFCURVE",
"309 106 CURVE SMOOTH",
"309 73 OFFCURVE",
"265 52 OFFCURVE",
"225 52 CURVE SMOOTH",
"166 52 OFFCURVE",
"116 78 OFFCURVE",
"68 130 CURVE",
"28 98 LINE",
"81 32 OFFCURVE",
"135 0 OFFCURVE",
"225 0 CURVE SMOOTH",
"310 0 OFFCURVE",
"367 46 OFFCURVE",
"367 111 CURVE SMOOTH",
"367 191 OFFCURVE",
"313 216 OFFCURVE",
"238 216 CURVE SMOOTH",
"186 216 OFFCURVE",
"133 212 OFFCURVE",
"133 256 CURVE SMOOTH",
"133 284 OFFCURVE",
"156 294 OFFCURVE",
"206 294 CURVE SMOOTH",
"268 294 OFFCURVE",
"285 289 OFFCURVE",
"320 285 CURVE",
"330 292 LINE",
"330 456 LINE",
"274 456 LINE",
"274 344 LINE",
"248 347 OFFCURVE",
"240 348 OFFCURVE",
"207 348 CURVE SMOOTH",
"130 348 OFFCURVE",
"77 324 OFFCURVE",
"77 260 CURVE SMOOTH",
"77 153 OFFCURVE",
"188 164 OFFCURVE",
"218 164 CURVE SMOOTH"
);
}
);
};
layerId = "CFA4B904-E3F1-48B6-A7F6-47DC1FF2A3E1";
name = Regular;
paths = (
{
closed = 1;
nodes = (
"-28 456 LINE",
"-28 408 LINE",
"429 408 LINE",
"429 456 LINE"
);
},
{
closed = 1;
nodes = (
"280 171 OFFCURVE",
"309 153 OFFCURVE",
"309 116 CURVE SMOOTH",
"309 73 OFFCURVE",
"268 52 OFFCURVE",
"224 52 CURVE SMOOTH",
"165 52 OFFCURVE",
"116 81 OFFCURVE",
"68 128 CURVE",
"34 91 LINE",
"86 38 OFFCURVE",
"149 0 OFFCURVE",
"225 0 CURVE SMOOTH",
"306 0 OFFCURVE",
"363 46 OFFCURVE",
"363 120 CURVE SMOOTH",
"363 181 OFFCURVE",
"310 220 OFFCURVE",
"238 216 CURVE SMOOTH",
"186 213 OFFCURVE",
"133 212 OFFCURVE",
"133 256 CURVE SMOOTH",
"133 284 OFFCURVE",
"156 294 OFFCURVE",
"206 294 CURVE SMOOTH",
"268 294 OFFCURVE",
"285 289 OFFCURVE",
"320 285 CURVE",
"330 292 LINE",
"330 456 LINE",
"274 456 LINE",
"274 343 LINE",
"253 345 OFFCURVE",
"241 346 OFFCURVE",
"208 346 CURVE SMOOTH",
"131 346 OFFCURVE",
"80 322 OFFCURVE",
"80 259 CURVE SMOOTH",
"80 162 OFFCURVE",
"182 161 OFFCURVE",
"220 165 CURVE SMOOTH"
);
}
);
width = 405;
}
);
unicode = 0921;
},
{
glyphname = "ddha-deva";
lastChange = "2014-08-14 07:51:30 +0530";
layers = (
{
anchors = (
{
name = bottom;
position = "{215, -25}";
},
{
name = top;
position = "{287, 447}";
}
);
layerId = "CFA4B904-E3F1-48B6-A7F6-47DC1FF2A3E1";
name = Regular;
paths = (
{
closed = 1;
nodes = (
"-24 456 LINE",
"-24 408 LINE",
"420 408 LINE",
"420 456 LINE"
);
},
{
closed = 1;
nodes = (
"355 140 OFFCURVE",
"331 190 OFFCURVE",
"269 190 CURVE SMOOTH",
"220 190 OFFCURVE",
"183 157 OFFCURVE",
"183 104 CURVE SMOOTH",
"183 62 OFFCURVE",
"201 36 OFFCURVE",
"211 23 CURVE",
"211 23 OFFCURVE",
"259 36 OFFCURVE",
"259 36 CURVE SMOOTH",
"259 36 OFFCURVE",
"234 55 OFFCURVE",
"234 101 CURVE SMOOTH",
"234 130 OFFCURVE",
"249 138 OFFCURVE",
"269 138 CURVE SMOOTH",
"288 138 OFFCURVE",
"302 124 OFFCURVE",
"302 101 CURVE SMOOTH",
"302 72 OFFCURVE",
"274 50 OFFCURVE",
"219 49 CURVE SMOOTH",
"149 47 OFFCURVE",
"96 91 OFFCURVE",
"96 161 CURVE SMOOTH",
"96 225 OFFCURVE",
"133 264 OFFCURVE",
"208 264 CURVE SMOOTH",
"245 264 OFFCURVE",
"270 259 OFFCURVE",
"306 255 CURVE",
"315 262 LINE",
"315 456 LINE",
"259 456 LINE",
"259 315 LINE",
"233 317 OFFCURVE",
"217 317 OFFCURVE",
"203 317 CURVE SMOOTH",
"94 317 OFFCURVE",
"41 244 OFFCURVE",
"41 158 CURVE SMOOTH",
"41 67 OFFCURVE",
"110 0 OFFCURVE",
"215 0 CURVE SMOOTH",
"286 0 OFFCURVE",
"355 30 OFFCURVE",
"355 107 CURVE SMOOTH"
);
}
);
width = 396;
}
);
leftMetricsKey = "ddh-deva";
unicode = 0922;
},
{
glyphname = "nna-deva";
lastChange = "2014-08-06 12:22:09 +0530";
layers = (
{
anchors = (
{
name = bottom;
position = "{448, 5}";
},
{
name = top;
position = "{448, 447}";
}
);
annotations = (
{
position = "{558.132, 591.134}";
text = "98 units";
type = Text;
},
{
angle = 57.7142;
position = "{542, 495}";
type = Arrow;
}
);
guideLines = (
{
angle = 90;
position = "{448, 220}";
}
);
layerId = "CFA4B904-E3F1-48B6-A7F6-47DC1FF2A3E1";
name = Regular;
paths = (
{
closed = 1;
nodes = (
"420 0 LINE",
"476 0 LINE",
"476 456 LINE",
"420 456 LINE"
);
},
{
closed = 1;
nodes = (
"-24 456 LINE",
"-24 408 LINE",
"574 408 LINE",
"574 456 LINE"
);
},
{
closed = 1;
nodes = (
"268 80 OFFCURVE",
"317 128 OFFCURVE",
"317 224 CURVE SMOOTH",
"317 436 LINE",
"261 436 LINE",
"261 228 LINE SMOOTH",
"261 164 OFFCURVE",
"241 133 OFFCURVE",
"190 133 CURVE SMOOTH",
"139 133 OFFCURVE",
"119 164 OFFCURVE",
"119 228 CURVE SMOOTH",
"119 436 LINE",
"63 436 LINE",
"63 224 LINE SMOOTH",
"63 127 OFFCURVE",
"108 80 OFFCURVE",
"191 80 CURVE SMOOTH"
);
}
);
width = 550;
}
);
unicode = 0923;
},
{
glyphname = "ta-deva";
lastChange = "2014-08-26 10:36:21 +0530";
layers = (
{
anchors = (
{
name = bottom;
position = "{331, 5}";
},
{
name = top;
position = "{331, 447}";
}
);
annotations = (
{
position = "{458, 559}";
text = "98 units";
type = Text;
},
{
angle = 45.5141;
position = "{429, 493}";
type = Arrow;
}
);
background = {
paths = (
{
closed = 1;
nodes = (
"300 0 LINE",
"356 0 LINE",
"356 456 LINE",
"300 456 LINE"
);
},
{
closed = 1;
nodes = (
"-24 456 LINE",
"-24 408 LINE",
"454 408 LINE",
"454 456 LINE"
);
},
{
closed = 1;
nodes = (
"321 297 OFFCURVE",
"256 297 OFFCURVE",
"192 297 CURVE SMOOTH",
"93 297 OFFCURVE",
"45 253 OFFCURVE",
"45 165 CURVE SMOOTH",
"45 74 OFFCURVE",
"119 -10 OFFCURVE",
"119 -10 CURVE",
"169 11 LINE",
"149 42 OFFCURVE",
"101 102 OFFCURVE",
"101 165 CURVE SMOOTH",
"101 221 OFFCURVE",
"133 244 OFFCURVE",
"188 244 CURVE SMOOTH",
"260 244 OFFCURVE",
"321 244 OFFCURVE",
"321 244 CURVE",
"321 297 LINE"
);
}
);
};
guideLines = (
{
angle = 90;
position = "{331, 92}";
}
);
layerId = "CFA4B904-E3F1-48B6-A7F6-47DC1FF2A3E1";
name = Regular;
paths = (
{
closed = 1;
nodes = (
"303 0 LINE",
"359 0 LINE",
"359 456 LINE",
"303 456 LINE"
);
},
{
closed = 1;
nodes = (
"-24 456 LINE",
"-24 408 LINE",
"457 408 LINE",
"457 456 LINE"
);
},
{
closed = 1;
nodes = (
"324 297 OFFCURVE",
"266 297 OFFCURVE",
"182 297 CURVE SMOOTH",
"89 297 OFFCURVE",
"44 260 OFFCURVE",
"44 177 CURVE SMOOTH",
"44 114 OFFCURVE",
"89 43 OFFCURVE",
"123 -15 CURVE",
"170 11 LINE",
"152 42 OFFCURVE",
"101 128 OFFCURVE",
"101 175 CURVE SMOOTH",
"101 227 OFFCURVE",
"128 241 OFFCURVE",
"188 241 CURVE",
"324 241 LINE",
"324 297 LINE"
);
}
);
width = 433;
}
);
unicode = 0924;
},
{
glyphname = "tha-deva";
lastChange = "2014-08-06 12:22:13 +0530";
layers = (
{
anchors = (
{
name = bottom;
position = "{387, 5}";
},
{
name = top;
position = "{387, 447}";
}
);
annotations = (
{
position = "{520.916, 574.290}";
text = "98 units";
type = Text;
},
{
angle = 49.9249;
position = "{479, 503}";
type = Arrow;
}
);
guideLines = (
{
angle = 90;
position = "{387, 220}";
}
);
layerId = "CFA4B904-E3F1-48B6-A7F6-47DC1FF2A3E1";
name = Regular;
paths = (
{
closed = 1;
nodes = (
"359 0 LINE",
"415 0 LINE",
"415 456 LINE",
"359 456 LINE"
);
},
{
closed = 1;
nodes = (
"289 456 LINE",
"289 408 LINE",
"513 408 LINE",
"513 456 LINE"
);
},
{
closed = 1;
nodes = (
"253 402 OFFCURVE",
"222 467 OFFCURVE",
"150 467 CURVE SMOOTH",
"105 467 OFFCURVE",
"55 436 OFFCURVE",
"55 379 CURVE SMOOTH",
"55 340 OFFCURVE",
"78 302 OFFCURVE",
"127 279 CURVE",
"156 321 LINE",
"132 335 OFFCURVE",
"109 351 OFFCURVE",
"109 379 CURVE SMOOTH",
"109 399 OFFCURVE",
"129 414 OFFCURVE",
"148 414 CURVE SMOOTH",
"183 414 OFFCURVE",
"201 380 OFFCURVE",
"201 342 CURVE SMOOTH",
"201 269 OFFCURVE",
"108 230 OFFCURVE",
"76 213 CURVE",
"65 182 LINE",
"92 136 OFFCURVE",
"153 84 OFFCURVE",
"244 84 CURVE SMOOTH",
"316 84 OFFCURVE",
"369 124 OFFCURVE",
"369 127 CURVE",
"369 197 LINE",
"343 160 OFFCURVE",
"290 138 OFFCURVE",
"239 138 CURVE SMOOTH",
"198 138 OFFCURVE",
"157 153 OFFCURVE",
"132 183 CURVE",
"170 211 OFFCURVE",
"253 253 OFFCURVE",
"253 342 CURVE SMOOTH"
);
}
);
width = 489;
}
);
unicode = 0925;
},
{
glyphname = "da-deva";
lastChange = "2014-08-26 10:55:02 +0530";
layers = (
{
anchors = (
{
name = bottom;
position = "{301, -8}";
},
{
name = top;
position = "{289, 447}";
}
);
layerId = "CFA4B904-E3F1-48B6-A7F6-47DC1FF2A3E1";
name = Regular;
paths = (
{
closed = 1;
nodes = (
"-24 456 LINE",
"-24 408 LINE",
"429 408 LINE",
"429 456 LINE"
);
},
{
closed = 1;
nodes = (
"269 83 OFFCURVE",
"251 70 OFFCURVE",
"213 70 CURVE SMOOTH",
"138 70 OFFCURVE",
"95 106 OFFCURVE",
"95 166 CURVE SMOOTH",
"95 230 OFFCURVE",
"135 264 OFFCURVE",
"210 264 CURVE SMOOTH",
"247 264 OFFCURVE",
"272 259 OFFCURVE",
"308 255 CURVE",
"317 262 LINE",
"317 456 LINE",
"261 456 LINE",
"261 315 LINE",
"235 316 OFFCURVE",
"216 317 OFFCURVE",
"202 317 CURVE SMOOTH",
"100 317 OFFCURVE",
"41 258 OFFCURVE",
"41 172 CURVE SMOOTH",
"41 71 OFFCURVE",
"113 17 OFFCURVE",
"211 17 CURVE SMOOTH",
"264 17 OFFCURVE",
"310 43 OFFCURVE",
"310 43 CURVE",
"286 89 LINE"
);
},
{
closed = 1;
nodes = (
"285 47 OFFCURVE",
"286 45 OFFCURVE",
"299 45 CURVE SMOOTH",
"319 45 OFFCURVE",
"350 71 OFFCURVE",
"350 103 CURVE SMOOTH",
"350 135 OFFCURVE",
"328 158 OFFCURVE",
"295 158 CURVE SMOOTH",
"262 158 OFFCURVE",
"241 130 OFFCURVE",
"241 130 CURVE",
"276 52 LINE"
);
},
{
closed = 1;
nodes = (
"276 61 LINE",
"276 61 OFFCURVE",
"337 -53 OFFCURVE",
"337 -53 CURVE SMOOTH",
"337 -53 OFFCURVE",
"387 -25 OFFCURVE",
"387 -25 CURVE",
"318 82 LINE"
);
}
);
width = 405;
}
);
unicode = 0926;
},
{
glyphname = "dha-deva";
lastChange = "2014-08-20 11:39:52 +0530";
layers = (
{
anchors = (
{
name = bottom;
position = "{387, 5}";
},
{
name = top;
position = "{387, 447}";
}
);
annotations = (
{
position = "{471, 579}";
text = "98 units";
type = Text;
},
{
angle = 55.0589;
position = "{448, 504}";
type = Arrow;
}
);
background = {
paths = (
{
closed = 1;
nodes = (
"354 0 LINE",
"410 0 LINE",
"410 456 LINE",
"354 456 LINE"
);
},
{
closed = 1;
nodes = (
"277 456 LINE",
"277 408 LINE",
"508 408 LINE",
"508 456 LINE"
);
},
{
closed = 1;
nodes = (
"45 288 OFFCURVE",
"106 246 OFFCURVE",
"122 234 CURVE",
"122 234 OFFCURVE",
"177 264 OFFCURVE",
"177 265 CURVE",
"161 273 OFFCURVE",
"99 298 OFFCURVE",
"99 363 CURVE SMOOTH",
"99 405 OFFCURVE",
"122 418 OFFCURVE",
"145 418 CURVE SMOOTH",
"163 418 OFFCURVE",
"177 408 OFFCURVE",
"177 389 CURVE SMOOTH",
"177 368 OFFCURVE",
"163 360 OFFCURVE",
"147 351 CURVE",
"172 311 LINE",
"214 331 OFFCURVE",
"227 357 OFFCURVE",
"227 390 CURVE SMOOTH",
"227 433 OFFCURVE",
"196 466 OFFCURVE",
"139 466 CURVE SMOOTH",
"81 466 OFFCURVE",
"45 426 OFFCURVE",
"45 363 CURVE SMOOTH"
);
},
{
closed = 1;
nodes = (
"185 272 OFFCURVE",
"148 268 OFFCURVE",
"124 250 CURVE SMOOTH",
"97 230 OFFCURVE",
"84 206 OFFCURVE",
"84 178 CURVE SMOOTH",
"84 114 OFFCURVE",
"141 71 OFFCURVE",
"230 71 CURVE SMOOTH",
"322 71 OFFCURVE",
"372 123 OFFCURVE",
"372 123 CURVE",
"372 190 LINE",
"372 190 OFFCURVE",
"323 122 OFFCURVE",
"233 122 CURVE SMOOTH",
"175 122 OFFCURVE",
"140 144 OFFCURVE",
"140 175 CURVE SMOOTH",
"140 210 OFFCURVE",
"186 220 OFFCURVE",
"251 224 CURVE",
"241 275 LINE"
);
}
);
};
guideLines = (
{
angle = 90;
position = "{387, 92}";
}
);
layerId = "CFA4B904-E3F1-48B6-A7F6-47DC1FF2A3E1";
name = Regular;
paths = (
{
closed = 1;
nodes = (
"359 0 LINE",
"415 0 LINE",
"415 456 LINE",
"359 456 LINE"
);
},
{
closed = 1;
nodes = (
"282 456 LINE",
"282 408 LINE",
"513 408 LINE",
"513 456 LINE"
);
},
{
closed = 1;
nodes = (
"50 288 OFFCURVE",
"111 246 OFFCURVE",
"127 234 CURVE",
"177 265 LINE",
"161 273 OFFCURVE",
"104 308 OFFCURVE",
"104 363 CURVE SMOOTH",
"104 405 OFFCURVE",
"127 418 OFFCURVE",
"150 418 CURVE SMOOTH",
"168 418 OFFCURVE",
"182 408 OFFCURVE",
"182 389 CURVE SMOOTH",
"182 368 OFFCURVE",
"168 360 OFFCURVE",
"152 351 CURVE",
"177 311 LINE",
"219 331 OFFCURVE",
"232 357 OFFCURVE",
"232 390 CURVE SMOOTH",
"232 433 OFFCURVE",
"201 466 OFFCURVE",
"144 466 CURVE SMOOTH",
"86 466 OFFCURVE",
"50 426 OFFCURVE",
"50 363 CURVE SMOOTH"
);
},
{
closed = 1;
nodes = (
"129 268 OFFCURVE",
"93 227 OFFCURVE",
"93 174 CURVE SMOOTH",
"93 103 OFFCURVE",
"152 63 OFFCURVE",
"242 63 CURVE SMOOTH",
"322 63 OFFCURVE",
"382 110 OFFCURVE",
"382 109 CURVE",
"382 178 LINE",
"382 178 OFFCURVE",
"329 116 OFFCURVE",
"239 116 CURVE SMOOTH",
"196 116 OFFCURVE",
"149 130 OFFCURVE",
"149 171 CURVE SMOOTH",
"149 210 OFFCURVE",
"197 223 OFFCURVE",
"264 233 CURVE",
"249 282 LINE"
);
}
);
width = 489;
}
);
unicode = 0927;
},
{
glyphname = "na-deva";
lastChange = "2014-08-26 10:39:04 +0530";
layers = (
{
anchors = (
{
name = bottom;
position = "{307, 5}";
},
{
name = top;
position = "{307, 447}";
}
);
annotations = (
{
position = "{471.567, 574.290}";
text = "98 units";
type = Text;
},
{
angle = 56.7439;
position = "{439, 499}";
type = Arrow;
}
);
guideLines = (
{
angle = 90;
position = "{307, 132}";
}
);
layerId = "CFA4B904-E3F1-48B6-A7F6-47DC1FF2A3E1";
name = Regular;
paths = (
{
closed = 1;
nodes = (
"279 0 LINE",
"335 0 LINE",
"335 456 LINE",
"279 456 LINE"
);
},
{
closed = 1;
nodes = (
"-24 456 LINE",
"-24 408 LINE",
"433 408 LINE",
"433 456 LINE"
);
},
{
closed = 1;
nodes = (
"34 251 LINE",
"34 214 LINE",
"98 112 LINE",
"138 112 LINE",
"138 251 LINE"
);
},
{
closed = 1;
nodes = (
"91 251 LINE",
"91 203 LINE",
"313 203 LINE",
"313 251 LINE"
);
}
);
width = 409;
}
);
unicode = 0928;
},
{
glyphname = "pa-deva";
lastChange = "2014-08-06 12:22:25 +0530";
layers = (
{
anchors = (
{
name = bottom;
position = "{335, 5}";
},
{
name = top;
position = "{335, 447}";
}
);
annotations = (
{
position = "{485.730, 574.112}";
text = "98 units";
type = Text;
},
{
angle = 56.323;
position = "{471, 497}";
type = Arrow;
}
);
guideLines = (
{
angle = 90;
position = "{335, 52}";
}
);
layerId = "CFA4B904-E3F1-48B6-A7F6-47DC1FF2A3E1";
name = Regular;
paths = (
{
closed = 1;
nodes = (
"307 0 LINE",
"363 0 LINE",
"363 456 LINE",
"307 456 LINE"
);
},
{
closed = 1;
nodes = (
"-24 456 LINE",
"-24 408 LINE",
"461 408 LINE",
"461 456 LINE"
);
},
{
closed = 1;
nodes = (
"343 190 OFFCURVE",
"279 153 OFFCURVE",
"205 153 CURVE SMOOTH",
"151 153 OFFCURVE",
"114 188 OFFCURVE",
"114 244 CURVE SMOOTH",
"114 456 LINE",
"58 456 LINE",
"58 244 LINE SMOOTH",
"58 164 OFFCURVE",
"107 103 OFFCURVE",
"207 103 CURVE SMOOTH",
"270 103 OFFCURVE",
"343 133 OFFCURVE",
"343 133 CURVE",
"343 190 LINE"
);
}
);
width = 437;
}
);
unicode = 092A;
},
{
glyphname = "pha-deva";
lastChange = "2014-08-20 05:29:53 +0530";
layers = (
{
anchors = (
{
name = bottom;
position = "{321, 5}";
},
{
name = top;
position = "{321, 447}";
}
);
background = {
paths = (
{
closed = 1;
nodes = (
"297 0 LINE",
"350 0 LINE",
"350 456 LINE",
"297 456 LINE"
);
},
{
closed = 1;
nodes = (
"16 456 LINE",
"16 408 LINE",
"613 408 LINE",
"613 456 LINE"
);
},
{
closed = 1;
nodes = (
"68 124 OFFCURVE",
"128 73 OFFCURVE",
"211 73 CURVE SMOOTH",
"273 73 OFFCURVE",
"306 100 OFFCURVE",
"333 118 CURVE",
"319 169 LINE",
"303 157 OFFCURVE",
"277 124 OFFCURVE",
"220 124 CURVE SMOOTH",
"161 124 OFFCURVE",
"124 151 OFFCURVE",
"124 205 CURVE SMOOTH",
"124 258 OFFCURVE",
"161 286 OFFCURVE",
"215 286 CURVE SMOOTH",
"267 286 OFFCURVE",
"303 253 OFFCURVE",
"319 241 CURVE",
"333 292 LINE",
"306 310 OFFCURVE",
"263 337 OFFCURVE",
"211 337 CURVE SMOOTH",
"128 337 OFFCURVE",
"68 286 OFFCURVE",
"68 205 CURVE SMOOTH"
);
},
{
closed = 1;
nodes = (
"554 280 OFFCURVE",
"500 333 OFFCURVE",
"417 333 CURVE SMOOTH",
"365 333 OFFCURVE",
"322 296 OFFCURVE",
"295 278 CURVE",
"309 227 LINE",
"325 239 OFFCURVE",
"367 282 OFFCURVE",
"413 282 CURVE SMOOTH",
"467 282 OFFCURVE",
"498 254 OFFCURVE",
"498 207 CURVE SMOOTH",
"498 156 OFFCURVE",
"461 128 OFFCURVE",
"432 101 CURVE",
"471 62 LINE",
"508 91 OFFCURVE",
"554 138 OFFCURVE",
"554 201 CURVE SMOOTH"
);
}
);
};
guideLines = (
{
angle = 90;
position = "{321, 51}";
}
);
layerId = "CFA4B904-E3F1-48B6-A7F6-47DC1FF2A3E1";
name = Regular;
paths = (
{
closed = 1;
nodes = (
"294 0 LINE",
"349 0 LINE",
"349 456 LINE",
"294 456 LINE"
);
},
{
closed = 1;
nodes = (
"-24 456 LINE",
"-24 408 LINE",
"627 408 LINE",
"627 456 LINE"
);
},
{
closed = 1;
nodes = (
"343 190 OFFCURVE",
"274 153 OFFCURVE",
"200 153 CURVE SMOOTH",
"146 153 OFFCURVE",
"114 188 OFFCURVE",
"114 244 CURVE SMOOTH",
"114 456 LINE",
"58 456 LINE",
"58 244 LINE SMOOTH",
"58 164 OFFCURVE",
"102 103 OFFCURVE",
"202 103 CURVE SMOOTH",
"265 103 OFFCURVE",
"343 133 OFFCURVE",
"343 133 CURVE",
"343 190 LINE"
);
},
{
closed = 1;
nodes = (
"578 280 OFFCURVE",
"524 333 OFFCURVE",
"441 333 CURVE SMOOTH",
"389 333 OFFCURVE",
"346 300 OFFCURVE",
"319 282 CURVE",
"333 227 LINE",
"349 239 OFFCURVE",
"391 282 OFFCURVE",
"437 282 CURVE SMOOTH",
"491 282 OFFCURVE",
"522 254 OFFCURVE",
"522 207 CURVE SMOOTH",
"522 156 OFFCURVE",
"485 128 OFFCURVE",
"456 101 CURVE",
"495 62 LINE",
"532 91 OFFCURVE",
"578 138 OFFCURVE",
"578 201 CURVE SMOOTH"
);
}
);
width = 603;
}
);
unicode = 092B;
},
{
glyphname = "ba-deva";
lastChange = "2014-08-06 12:22:29 +0530";
layers = (
{
anchors = (
{
name = bottom;
position = "{314, 5}";
},
{
name = top;
position = "{314, 447}";
}
);
annotations = (
{
position = "{462.376, 567.040}";
text = "98 units";
type = Text;
},
{
angle = 57.4126;
position = "{446.686, 494.869}";
type = Arrow;
}
);
background = {
paths = (
{
closed = 1;
nodes = (
"278 0 LINE",
"331 0 LINE",
"331 456 LINE",
"278 456 LINE"
);
},
{
closed = 1;
nodes = (
"-24 456 LINE",
"-24 408 LINE",
"429 408 LINE",
"429 456 LINE"
);
},
{
closed = 1;
nodes = (
"73 268 OFFCURVE",
"122 295 OFFCURVE",
"176 295 CURVE SMOOTH",
"228 295 OFFCURVE",
"264 273 OFFCURVE",
"280 261 CURVE",
"294 313 LINE",
"267 331 OFFCURVE",
"224 349 OFFCURVE",
"172 349 CURVE SMOOTH",
"94 349 OFFCURVE",
"18 296 OFFCURVE",
"18 205 CURVE SMOOTH",
"18 114 OFFCURVE",
"89 61 OFFCURVE",
"172 61 CURVE SMOOTH",
"224 61 OFFCURVE",
"267 82 OFFCURVE",
"294 100 CURVE",
"280 152 LINE",
"264 140 OFFCURVE",
"228 115 OFFCURVE",
"176 115 CURVE SMOOTH",
"122 115 OFFCURVE",
"73 142 OFFCURVE",
"73 205 CURVE SMOOTH"
);
},
{
closed = 1;
nodes = (
"77 279 OFFCURVE",
"265 99 OFFCURVE",
"265 99 CURVE SMOOTH",
"265 99 OFFCURVE",
"300 131 OFFCURVE",
"300 131 CURVE",
"115 307 LINE",
"77 279 LINE"
);
}
);
};
guideLines = (
{
angle = 90;
position = "{314, 112}";
}
);
layerId = "CFA4B904-E3F1-48B6-A7F6-47DC1FF2A3E1";
name = Regular;
paths = (
{
closed = 1;
nodes = (
"286 0 LINE",
"342 0 LINE",
"342 456 LINE",
"286 456 LINE"
);
},
{
closed = 1;
nodes = (
"-24 456 LINE",
"-24 408 LINE",
"440 408 LINE",
"440 456 LINE"
);
},
{
closed = 1;
nodes = (
"81 268 OFFCURVE",
"130 295 OFFCURVE",
"184 295 CURVE SMOOTH",
"236 295 OFFCURVE",
"272 273 OFFCURVE",
"288 261 CURVE",
"302 311 LINE",
"275 329 OFFCURVE",
"230 345 OFFCURVE",
"180 345 CURVE SMOOTH",
"102 345 OFFCURVE",
"30 296 OFFCURVE",
"30 205 CURVE SMOOTH",
"30 114 OFFCURVE",
"97 65 OFFCURVE",
"180 65 CURVE SMOOTH",
"232 65 OFFCURVE",
"275 83 OFFCURVE",
"302 100 CURVE",
"288 152 LINE",
"272 140 OFFCURVE",
"236 115 OFFCURVE",
"184 115 CURVE SMOOTH",
"130 115 OFFCURVE",
"81 142 OFFCURVE",
"81 205 CURVE SMOOTH"
);
},
{
closed = 1;
nodes = (
"85 279 OFFCURVE",
"273 99 OFFCURVE",
"273 99 CURVE SMOOTH",
"273 99 OFFCURVE",
"308 131 OFFCURVE",
"308 131 CURVE",
"123 307 LINE",
"85 279 LINE"
);
}
);
width = 413;
}
);
unicode = 092C;
},
{
glyphname = "bha-deva";
lastChange = "2014-08-06 12:22:31 +0530";
layers = (
{
anchors = (
{
name = bottom;
position = "{404, 5}";
},
{
name = top;
position = "{404, 447}";
}
);
annotations = (
{
position = "{566.826, 597.739}";
text = "98 units";
type = Text;
},
{
angle = 59.4482;
position = "{542, 512}";
type = Arrow;
}
);
guideLines = (
{
angle = 90;
position = "{404, 71}";
}
);
layerId = "CFA4B904-E3F1-48B6-A7F6-47DC1FF2A3E1";
name = Regular;
paths = (
{
closed = 1;
nodes = (
"376 0 LINE",
"432 0 LINE",
"432 456 LINE",
"376 456 LINE"
);
},
{
closed = 1;
nodes = (
"213 135 LINE",
"213 320 LINE SMOOTH",
"213 412 OFFCURVE",
"188 466 OFFCURVE",
"117 466 CURVE SMOOTH",
"72 466 OFFCURVE",
"31 434 OFFCURVE",
"31 379 CURVE SMOOTH",
"31 343 OFFCURVE",
"55 306 OFFCURVE",
"104 280 CURVE",
"131 321 LINE",
"107 335 OFFCURVE",
"84 351 OFFCURVE",
"84 379 CURVE SMOOTH",
"84 399 OFFCURVE",
"98 413 OFFCURVE",
"117 413 CURVE SMOOTH",
"163 413 OFFCURVE",
"158 339 OFFCURVE",
"158 320 CURVE SMOOTH",
"158 135 LINE"
);
},
{
closed = 1;
nodes = (
"280 456 LINE",
"280 408 LINE",
"530 408 LINE",
"530 456 LINE"
);
},
{
closed = 1;
nodes = (
"94 199 LINE",
"94 166 LINE",
"175 70 LINE",
"175 70 OFFCURVE",
"213 70 OFFCURVE",
"213 70 CURVE",
"213 199 LINE"
);
},
{
closed = 1;
nodes = (
"182 199 LINE",
"182 151 LINE",
"421 151 LINE",
"421 199 LINE"
);
}
);
width = 506;
}
);
unicode = 092D;
},
{
glyphname = "ma-deva";
lastChange = "2014-08-06 12:22:32 +0530";
layers = (
{
anchors = (
{
name = bottom;
position = "{361, 5}";
},
{
name = top;
position = "{361, 447}";
}
);
annotations = (
{
position = "{520.253, 565.838}";
text = "98 units";
type = Text;
},
{
angle = 60.7319;
position = "{497, 491}";
type = Arrow;
}
);
background = {
paths = (
{
closed = 1;
nodes = (
"333 0 LINE",
"389 0 LINE",
"389 456 LINE",
"333 456 LINE"
);
},
{
closed = 1;
nodes = (
"96 140 LINE",
"151 140 LINE",
"151 456 LINE",
"96 456 LINE"
);
},
{
closed = 1;
nodes = (
"-24 456 LINE",
"-24 408 LINE",
"487 408 LINE",
"487 456 LINE"
);
},
{
closed = 1;
nodes = (
"34 204 LINE",
"34 171 LINE",
"113 76 LINE",
"113 76 OFFCURVE",
"151 76 OFFCURVE",
"151 76 CURVE",
"151 204 LINE"
);
},
{
closed = 1;
nodes = (
"119 204 LINE",
"119 156 LINE",
"379 156 LINE",
"379 204 LINE"
);
}
);
};
guideLines = (
{
angle = 90;
position = "{361, 81}";
}
);
layerId = "CFA4B904-E3F1-48B6-A7F6-47DC1FF2A3E1";
name = Regular;
paths = (
{
closed = 1;
nodes = (
"333 0 LINE",
"389 0 LINE",
"389 456 LINE",
"333 456 LINE"
);
},
{
closed = 1;
nodes = (
"96 140 LINE",
"151 140 LINE",
"151 456 LINE",
"96 456 LINE"
);
},
{
closed = 1;
nodes = (
"-24 456 LINE",
"-24 408 LINE",
"487 408 LINE",
"487 456 LINE"
);
},
{
closed = 1;
nodes = (
"34 204 LINE",
"34 171 LINE",
"113 76 LINE",
"151 76 LINE",
"151 204 LINE"
);
},
{
closed = 1;
nodes = (
"119 204 LINE",
"119 156 LINE",
"379 156 LINE",
"379 204 LINE"
);
}
);
width = 463;
}
);
unicode = 092E;
},
{
glyphname = "ya-deva";
lastChange = "2014-08-06 12:22:35 +0530";
layers = (
{
anchors = (
{
name = bottom;
position = "{343, 5}";
},
{
name = top;
position = "{343, 447}";
}
);
annotations = (
{
position = "{475.462, 601.882}";
text = "98 units";
type = Text;
},
{
angle = 59.5794;
position = "{457, 503}";
type = Arrow;
}
);
background = {
paths = (
{
closed = 1;
nodes = (
"315 0 LINE",
"371 0 LINE",
"371 456 LINE",
"315 456 LINE"
);
},
{
closed = 1;
nodes = (
"-24 456 LINE",
"-24 408 LINE",
"469 408 LINE",
"469 456 LINE"
);
},
{
closed = 1;
nodes = (
"312 161 OFFCURVE",
"259 138 OFFCURVE",
"208 138 CURVE SMOOTH",
"167 138 OFFCURVE",
"126 153 OFFCURVE",
"101 183 CURVE",
"139 211 OFFCURVE",
"176 244 OFFCURVE",
"176 306 CURVE SMOOTH",
"176 356 OFFCURVE",
"148 414 OFFCURVE",
"94 456 CURVE",
"26 456 LINE",
"86 414 OFFCURVE",
"123 356 OFFCURVE",
"123 307 CURVE SMOOTH",
"123 258 OFFCURVE",
"77 230 OFFCURVE",
"45 213 CURVE",
"34 182 LINE",
"61 136 OFFCURVE",
"122 84 OFFCURVE",
"213 84 CURVE SMOOTH",
"285 84 OFFCURVE",
"338 127 OFFCURVE",
"338 127 CURVE",
"338 206 LINE"
);
}
);
};
guideLines = (
{
angle = 90;
position = "{343, 43}";
}
);
layerId = "CFA4B904-E3F1-48B6-A7F6-47DC1FF2A3E1";
name = Regular;
paths = (
{
closed = 1;
nodes = (
"315 0 LINE",
"371 0 LINE",
"371 456 LINE",
"315 456 LINE"
);
},
{
closed = 1;
nodes = (
"-24 456 LINE",
"-24 408 LINE",
"469 408 LINE",
"469 456 LINE"
);
},
{
closed = 1;
nodes = (
"312 158 OFFCURVE",
"259 137 OFFCURVE",
"208 137 CURVE SMOOTH",
"167 137 OFFCURVE",
"130 155 OFFCURVE",
"105 182 CURVE",
"142 211 OFFCURVE",
"178 244 OFFCURVE",
"178 306 CURVE SMOOTH",
"178 356 OFFCURVE",
"150 414 OFFCURVE",
"96 456 CURVE",
"26 456 LINE",
"86 414 OFFCURVE",
"123 356 OFFCURVE",
"123 307 CURVE SMOOTH",
"123 258 OFFCURVE",
"77 230 OFFCURVE",
"45 213 CURVE",
"34 184 LINE",
"61 138 OFFCURVE",
"122 84 OFFCURVE",
"213 84 CURVE SMOOTH",
"285 84 OFFCURVE",
"338 127 OFFCURVE",
"338 127 CURVE",
"338 203 LINE"
);
}
);
width = 445;
}
);
unicode = 092F;
},
{
glyphname = "ra-deva";
lastChange = "2014-08-26 14:04:13 +0530";
layers = (
{
anchors = (
{
name = top;
position = "{123, 447}";
}
);
background = {
paths = (
{
closed = 1;
nodes = (
"-18 456 LINE",
"-18 408 LINE",
"301 408 LINE",
"301 456 LINE"
);
},
{
closed = 1;
nodes = (
"87 427 OFFCURVE",
"158 403 OFFCURVE",
"158 306 CURVE SMOOTH",
"158 209 OFFCURVE",
"44 206 OFFCURVE",
"44 206 CURVE SMOOTH",
"44 206 OFFCURVE",
"66 157 OFFCURVE",
"66 157 CURVE",
"105 157 OFFCURVE",
"212 191 OFFCURVE",
"212 304 CURVE SMOOTH",
"212 412 OFFCURVE",
"139 443 OFFCURVE",
"139 443 CURVE",
"87 427 LINE"
);
},
{
closed = 1;
nodes = (
"14 212 OFFCURVE",
"186 -18 OFFCURVE",
"186 -18 CURVE SMOOTH",
"186 -18 OFFCURVE",
"233 14 OFFCURVE",
"233 14 CURVE",
"55 244 LINE",
"14 212 LINE"
);
}
);
};
layerId = "CFA4B904-E3F1-48B6-A7F6-47DC1FF2A3E1";
name = Regular;
paths = (
{
closed = 1;
nodes = (
"-24 456 LINE",
"-24 408 LINE",
"298 408 LINE",
"298 456 LINE"
);
},
{
closed = 1;
nodes = (
"87 427 OFFCURVE",
"158 403 OFFCURVE",
"158 306 CURVE SMOOTH",
"158 209 OFFCURVE",
"44 206 OFFCURVE",
"44 206 CURVE SMOOTH",
"44 206 OFFCURVE",
"66 157 OFFCURVE",
"66 157 CURVE",
"105 157 OFFCURVE",
"212 191 OFFCURVE",
"212 304 CURVE SMOOTH",
"212 412 OFFCURVE",
"139 443 OFFCURVE",
"139 443 CURVE",
"87 427 LINE"
);
},
{
closed = 1;
nodes = (
"14 212 OFFCURVE",
"184 -13 OFFCURVE",
"184 -13 CURVE SMOOTH",
"184 -13 OFFCURVE",
"231 19 OFFCURVE",
"231 19 CURVE",
"55 244 LINE",
"14 212 LINE"
);
}
);
width = 274;
}
);
unicode = 0930;
},
{
glyphname = "la-deva";
lastChange = "2014-08-06 12:22:41 +0530";
layers = (
{
anchors = (
{
name = bottom;
position = "{436, 5}";
},
{
name = top;
position = "{436, 447}";
}
);
annotations = (
{
position = "{591.678, 568.614}";
text = "98 units";
type = Text;
},
{
angle = 52.08;
position = "{568, 493}";
type = Arrow;
}
);
guideLines = (
{
angle = 90;
position = "{436, 393}";
}
);
layerId = "CFA4B904-E3F1-48B6-A7F6-47DC1FF2A3E1";
name = Regular;
paths = (
{
closed = 1;
nodes = (
"408 0 LINE",
"464 0 LINE",
"464 456 LINE",
"408 456 LINE"
);
},
{
closed = 1;
nodes = (
"-24 456 LINE",
"-24 408 LINE",
"562 408 LINE",
"562 456 LINE"
);
},
{
closed = 1;
nodes = (
"275 268 OFFCURVE",
"234 310 OFFCURVE",
"177 310 CURVE SMOOTH",
"94 310 OFFCURVE",
"44 253 OFFCURVE",
"44 172 CURVE SMOOTH",
"44 74 OFFCURVE",
"137 -12 OFFCURVE",
"137 -12 CURVE",
"190 11 LINE",
"167 36 OFFCURVE",
"101 102 OFFCURVE",
"101 172 CURVE SMOOTH",
"101 221 OFFCURVE",
"129 256 OFFCURVE",
"176 256 CURVE SMOOTH",
"230 256 OFFCURVE",
"255 182 OFFCURVE",
"255 182 CURVE",
"292 227 LINE"
);
},
{
closed = 1;
nodes = (
"239 118 OFFCURVE",
"292 110 OFFCURVE",
"292 110 CURVE",
"291 120 OFFCURVE",
"288 140 OFFCURVE",
"288 162 CURVE SMOOTH",
"288 217 OFFCURVE",
"313 256 OFFCURVE",
"369 255 CURVE SMOOTH",
"394 255 OFFCURVE",
"416 245 OFFCURVE",
"434 231 CURVE",
"428 293 LINE",
"405 306 OFFCURVE",
"384 308 OFFCURVE",
"365 308 CURVE SMOOTH",
"299 308 OFFCURVE",
"235 266 OFFCURVE",
"235 164 CURVE SMOOTH",
"235 154 OFFCURVE",
"237 128 OFFCURVE",
"239 118 CURVE"
);
}
);
width = 538;
}
);
unicode = 0932;
},
{
glyphname = "lla-deva";
lastChange = "2014-08-26 13:49:39 +0530";
layers = (
{
anchors = (
{
name = bottom;
position = "{406, 5}";
},
{
name = top;
position = "{413, 447}";
}
);
background = {
paths = (
{
closed = 1;
nodes = (
"396 280 LINE",
"449 280 LINE",
"449 456 LINE",
"396 456 LINE"
);
},
{
closed = 1;
nodes = (
"-24 456 LINE",
"-24 408 LINE",
"613 408 LINE",
"613 456 LINE"
);
},
{
closed = 1;
nodes = (
"251 135 OFFCURVE",
"225 85 OFFCURVE",
"169 85 CURVE SMOOTH",
"132 85 OFFCURVE",
"110 127 OFFCURVE",
"110 167 CURVE SMOOTH",
"110 211 OFFCURVE",
"134 247 OFFCURVE",
"173 247 CURVE SMOOTH",
"220 247 OFFCURVE",
"246 190 OFFCURVE",
"268 150 CURVE",
"299.8 199.22 LINE",
"277.34 242.19 OFFCURVE",
"241.21 301.76 OFFCURVE",
"173.83 301.76 CURVE SMOOTH",
"90.82 301.76 OFFCURVE",
"53 239 OFFCURVE",
"53 167 CURVE SMOOTH",
"53 95 OFFCURVE",
"92 33 OFFCURVE",
"169.92 33.2 CURVE SMOOTH",
"234 33 OFFCURVE",
"271 62 OFFCURVE",
"315 147 CURVE SMOOTH",
"341 197 OFFCURVE",
"362 247 OFFCURVE",
"418 247 CURVE SMOOTH",
"455 247 OFFCURVE",
"480 211 OFFCURVE",
"480 166 CURVE SMOOTH",
"480 127 OFFCURVE",
"459 84 OFFCURVE",
"417 84 CURVE SMOOTH",
"370 84 OFFCURVE",
"337 152 OFFCURVE",
"320 186 CURVE",
"290.04 133.79 LINE",
"312.5 90.82 OFFCURVE",
"349 31 OFFCURVE",
"416.02 31.25 CURVE SMOOTH",
"494 31 OFFCURVE",
"536 95 OFFCURVE",
"536 167 CURVE SMOOTH",
"536 239 OFFCURVE",
"495 300 OFFCURVE",
"417 300 CURVE SMOOTH",
"360 300 OFFCURVE",
"317 271 OFFCURVE",
"274 185 CURVE SMOOTH"
);
}
);
};
guideLines = (
{
position = "{0, 302}";
},
{
position = "{0, 246}";
},
{
position = "{0, 162}";
},
{
position = "{0, 253}";
},
{
position = "{0, 88}";
},
{
position = "{1, 33}";
}
);
layerId = "CFA4B904-E3F1-48B6-A7F6-47DC1FF2A3E1";
name = Regular;
paths = (
{
closed = 1;
nodes = (
"386 280 LINE",
"439 280 LINE",
"439 456 LINE",
"386 456 LINE"
);
},
{
closed = 1;
nodes = (
"-24 456 LINE",
"-24 408 LINE",
"593 408 LINE",
"593 456 LINE"
);
},
{
closed = 1;
nodes = (
"244 135 OFFCURVE",
"215 82 OFFCURVE",
"159 82 CURVE SMOOTH",
"118 82 OFFCURVE",
"97 123 OFFCURVE",
"97 167 CURVE SMOOTH",
"97 213 OFFCURVE",
"120 250 OFFCURVE",
"163 250 CURVE SMOOTH",
"210 250 OFFCURVE",
"237 193 OFFCURVE",
"259 153 CURVE",
"290 199 LINE",
"267 242 OFFCURVE",
"231 302 OFFCURVE",
"164 302 CURVE SMOOTH",
"81 302 OFFCURVE",
"43 239 OFFCURVE",
"43 167 CURVE SMOOTH",
"43 95 OFFCURVE",
"82 33 OFFCURVE",
"160 33 CURVE SMOOTH",
"224 33 OFFCURVE",
"258 63 OFFCURVE",
"302 148 CURVE SMOOTH",
"328 198 OFFCURVE",
"352 250 OFFCURVE",
"408 250 CURVE SMOOTH",
"447 250 OFFCURVE",
"473 215 OFFCURVE",
"473 166 CURVE SMOOTH",
"473 121 OFFCURVE",
"451 81 OFFCURVE",
"407 81 CURVE SMOOTH",
"360 81 OFFCURVE",
"325 150 OFFCURVE",
"308 184 CURVE",
"280 134 LINE",
"303 91 OFFCURVE",
"339 31 OFFCURVE",
"406 31 CURVE SMOOTH",
"484 31 OFFCURVE",
"526 95 OFFCURVE",
"526 167 CURVE SMOOTH",
"526 239 OFFCURVE",
"485 300 OFFCURVE",
"407 300 CURVE SMOOTH",
"350 300 OFFCURVE",
"310 271 OFFCURVE",
"267 185 CURVE SMOOTH"
);
}
);
width = 569;
}
);
unicode = 0933;
},
{
glyphname = "va-deva";
lastChange = "2014-08-06 12:22:45 +0530";
layers = (
{
anchors = (
{
name = bottom;
position = "{309, 5}";
},
{
name = top;
position = "{309, 447}";
}
);
annotations = (
{
position = "{454.220, 557.392}";
text = "98 units";
type = Text;
},
{
angle = 63.9747;
position = "{452, 482}";
type = Arrow;
}
);
background = {
paths = (
{
closed = 1;
nodes = (
"286 0 LINE",
"339 0 LINE",
"339 456 LINE",
"286 456 LINE"
);
},
{
closed = 1;
nodes = (
"-24 456 LINE",
"-24 408 LINE",
"437 408 LINE",
"437 456 LINE"
);
},
{
closed = 1;
nodes = (
"84 264 OFFCURVE",
"130 289 OFFCURVE",
"184 289 CURVE SMOOTH",
"236 289 OFFCURVE",
"272 269 OFFCURVE",
"288 257 CURVE",
"302 309 LINE",
"275 327 OFFCURVE",
"232 343 OFFCURVE",
"180 343 CURVE SMOOTH",
"97 343 OFFCURVE",
"28 292 OFFCURVE",
"28 201 CURVE SMOOTH",
"28 110 OFFCURVE",
"97 59 OFFCURVE",
"180 59 CURVE SMOOTH",
"232 59 OFFCURVE",
"275 78 OFFCURVE",
"302 96 CURVE",
"288 148 LINE",
"272 136 OFFCURVE",
"236 113 OFFCURVE",
"184 113 CURVE SMOOTH",
"130 113 OFFCURVE",
"84 138 OFFCURVE",
"84 201 CURVE SMOOTH"
);
}
);
};
guideLines = (
{
angle = 90;
position = "{309, 157}";
}
);
layerId = "CFA4B904-E3F1-48B6-A7F6-47DC1FF2A3E1";
name = Regular;
paths = (
{
closed = 1;
nodes = (
"281 0 LINE",
"337 0 LINE",
"337 456 LINE",
"281 456 LINE"
);
},
{
closed = 1;
nodes = (
"-24 456 LINE",
"-24 408 LINE",
"435 408 LINE",
"435 456 LINE"
);
},
{
closed = 1;
nodes = (
"84 264 OFFCURVE",
"128 289 OFFCURVE",
"179 289 CURVE SMOOTH",
"231 289 OFFCURVE",
"267 269 OFFCURVE",
"283 257 CURVE",
"297 308 LINE",
"270 324 OFFCURVE",
"227 341 OFFCURVE",
"175 341 CURVE SMOOTH",
"95 341 OFFCURVE",
"30 292 OFFCURVE",
"30 201 CURVE SMOOTH",
"30 110 OFFCURVE",
"95 61 OFFCURVE",
"175 61 CURVE SMOOTH",
"227 61 OFFCURVE",
"270 79 OFFCURVE",
"297 97 CURVE",
"283 148 LINE",
"267 136 OFFCURVE",
"231 113 OFFCURVE",
"179 113 CURVE SMOOTH",
"128 113 OFFCURVE",
"84 138 OFFCURVE",
"84 201 CURVE SMOOTH"
);
}
);
width = 411;
}
);
unicode = 0935;
},
{
glyphname = "sha-deva";
lastChange = "2014-08-06 12:22:47 +0530";
layers = (
{
anchors = (
{
name = bottom;
position = "{441, 5}";
},
{
name = top;
position = "{441, 447}";
}
);
annotations = (
{
position = "{553.812, 555.842}";
text = "98 units";
type = Text;
},
{
angle = 49.5976;
position = "{538, 486}";
type = Arrow;
}
);
background = {
paths = (
{
closed = 1;
nodes = (
"282 414 OFFCURVE",
"229 466 OFFCURVE",
"165 466 CURVE SMOOTH",
"106 466 OFFCURVE",
"62 425 OFFCURVE",
"62 368 CURVE SMOOTH",
"62 329 OFFCURVE",
"85 297 OFFCURVE",
"134 268 CURVE",
"163 311 LINE",
"139 326 OFFCURVE",
"115 343 OFFCURVE",
"115 368 CURVE SMOOTH",
"115 398 OFFCURVE",
"137 413 OFFCURVE",
"165 413 CURVE SMOOTH",
"201 413 OFFCURVE",
"229 379 OFFCURVE",
"229 329 CURVE SMOOTH",
"229 233 OFFCURVE",
"127 193 OFFCURVE",
"92 174 CURVE",
"134 137 LINE",
"197 175 OFFCURVE",
"282 223 OFFCURVE",
"282 332 CURVE SMOOTH"
);
},
{
closed = 1;
nodes = (
"30 155 OFFCURVE",
"61 130 OFFCURVE",
"105 131 CURVE",
"243 -15 LINE",
"243 -15 OFFCURVE",
"281 21 OFFCURVE",
"281 21 CURVE",
"70 239 LINE",
"43 230 OFFCURVE",
"30 211 OFFCURVE",
"30 191 CURVE SMOOTH"
);
},
{
closed = 1;
nodes = (
"314 456 LINE",
"314 408 LINE",
"560 408 LINE",
"560 456 LINE"
);
},
{
closed = 1;
nodes = (
"406 0 LINE",
"462 0 LINE",
"462 456 LINE",
"406 456 LINE"
);
}
);
};
guideLines = (
{
angle = 90;
position = "{441, 175}";
}
);
layerId = "CFA4B904-E3F1-48B6-A7F6-47DC1FF2A3E1";
name = Regular;
paths = (
{
closed = 1;
nodes = (
"289 414 OFFCURVE",
"236 466 OFFCURVE",
"172 466 CURVE SMOOTH",
"113 466 OFFCURVE",
"69 425 OFFCURVE",
"69 368 CURVE SMOOTH",
"69 329 OFFCURVE",
"92 297 OFFCURVE",
"141 268 CURVE",
"170 311 LINE",
"146 326 OFFCURVE",
"122 343 OFFCURVE",
"122 368 CURVE SMOOTH",
"122 398 OFFCURVE",
"144 413 OFFCURVE",
"172 413 CURVE SMOOTH",
"208 413 OFFCURVE",
"233 379 OFFCURVE",
"236 329 CURVE SMOOTH",
"241 233 OFFCURVE",
"139 193 OFFCURVE",
"104 174 CURVE",
"146 137 LINE",
"209 175 OFFCURVE",
"289 223 OFFCURVE",
"289 332 CURVE SMOOTH"
);
},
{
closed = 1;
nodes = (
"42 155 OFFCURVE",
"73 130 OFFCURVE",
"117 131 CURVE",
"250 -15 LINE",
"250 -15 OFFCURVE",
"288 21 OFFCURVE",
"288 21 CURVE",
"82 239 LINE",
"55 230 OFFCURVE",
"42 211 OFFCURVE",
"42 191 CURVE SMOOTH"
);
},
{
closed = 1;
nodes = (
"321 456 LINE",
"321 408 LINE",
"567 408 LINE",
"567 456 LINE"
);
},
{
closed = 1;
nodes = (
"413 0 LINE",
"469 0 LINE",
"469 456 LINE",
"413 456 LINE"
);
}
);
width = 543;
}
);
unicode = 0936;
},
{
glyphname = "ssa-deva";
lastChange = "2014-08-06 12:22:49 +0530";
layers = (
{
anchors = (
{
name = bottom;
position = "{343, 5}";
},
{
name = top;
position = "{343, 447}";
}
);
annotations = (
{
position = "{523.437, 553.178}";
text = "98 units";
type = Text;
},
{
angle = 46.1312;
position = "{501, 482}";
type = Arrow;
}
);
guideLines = (
{
angle = 90;
position = "{343, 69}";
}
);
layerId = "CFA4B904-E3F1-48B6-A7F6-47DC1FF2A3E1";
name = Regular;
paths = (
{
closed = 1;
nodes = (
"315 0 LINE",
"371 0 LINE",
"371 456 LINE",
"315 456 LINE"
);
},
{
closed = 1;
nodes = (
"-24 456 LINE",
"-24 408 LINE",
"469 408 LINE",
"469 456 LINE"
);
},
{
closed = 1;
nodes = (
"343 190 OFFCURVE",
"279 153 OFFCURVE",
"205 153 CURVE SMOOTH",
"151 153 OFFCURVE",
"114 188 OFFCURVE",
"114 244 CURVE SMOOTH",
"114 341 LINE SMOOTH",
"114 384 OFFCURVE",
"94 456 OFFCURVE",
"94 456 CURVE SMOOTH",
"58 456 LINE",
"58 244 LINE SMOOTH",
"58 164 OFFCURVE",
"107 103 OFFCURVE",
"207 103 CURVE SMOOTH",
"270 103 OFFCURVE",
"343 133 OFFCURVE",
"343 133 CURVE",
"343 190 LINE"
);
},
{
closed = 1;
nodes = (
"297 146 LINE",
"328 178 LINE",
"122 430 LINE",
"84 402 LINE"
);
}
);
width = 445;
}
);
unicode = 0937;
},
{
glyphname = "sa-deva";
lastChange = "2014-08-26 10:44:19 +0530";
layers = (
{
anchors = (
{
name = bottom;
position = "{411, 5}";
},
{
name = top;
position = "{411, 447}";
}
);
annotations = (
{
position = "{575.675, 567.300}";
text = "98 units";
type = Text;
},
{
angle = 51.7775;
position = "{556, 488}";
type = Arrow;
}
);
background = {
paths = (
{
closed = 1;
nodes = (
"81 427 OFFCURVE",
"152 403 OFFCURVE",
"152 306 CURVE SMOOTH",
"152 209 OFFCURVE",
"38 206 OFFCURVE",
"38 206 CURVE SMOOTH",
"38 206 OFFCURVE",
"60 157 OFFCURVE",
"60 157 CURVE",
"99 157 OFFCURVE",
"206 191 OFFCURVE",
"206 304 CURVE SMOOTH",
"206 412 OFFCURVE",
"133 443 OFFCURVE",
"133 443 CURVE",
"81 427 LINE"
);
},
{
closed = 1;
nodes = (
"8 212 OFFCURVE",
"180 -18 OFFCURVE",
"180 -18 CURVE SMOOTH",
"180 -18 OFFCURVE",
"227 14 OFFCURVE",
"227 14 CURVE",
"49 244 LINE",
"8 212 LINE"
);
},
{
closed = 1;
nodes = (
"379 0 LINE",
"435 0 LINE",
"435 456 LINE",
"379 456 LINE"
);
},
{
closed = 1;
nodes = (
"399 237 OFFCURVE",
"356 216 OFFCURVE",
"273 216 CURVE SMOOTH",
"237 216 OFFCURVE",
"181 220 OFFCURVE",
"135 239 CURVE",
"111 192 LINE",
"169 172 OFFCURVE",
"220 162 OFFCURVE",
"262 162 CURVE SMOOTH",
"348 162 OFFCURVE",
"399 180 OFFCURVE",
"399 180 CURVE",
"399 237 LINE"
);
},
{
closed = 1;
nodes = (
"-24 456 LINE",
"-24 408 LINE",
"533 408 LINE",
"533 456 LINE"
);
},
{
closed = 1;
nodes = (
"379 0 LINE",
"435 0 LINE",
"435 456 LINE",
"379 456 LINE"
);
}
);
};
guideLines = (
{
angle = 90;
position = "{411, 310}";
}
);
layerId = "CFA4B904-E3F1-48B6-A7F6-47DC1FF2A3E1";
name = Regular;
paths = (
{
closed = 1;
nodes = (
"87 427 OFFCURVE",
"158 403 OFFCURVE",
"158 306 CURVE SMOOTH",
"158 209 OFFCURVE",
"44 206 OFFCURVE",
"44 206 CURVE SMOOTH",
"44 206 OFFCURVE",
"66 157 OFFCURVE",
"66 157 CURVE",
"105 157 OFFCURVE",
"212 191 OFFCURVE",
"212 304 CURVE SMOOTH",
"212 412 OFFCURVE",
"139 443 OFFCURVE",
"139 443 CURVE",
"87 427 LINE"
);
},
{
closed = 1;
nodes = (
"14 212 OFFCURVE",
"186 -18 OFFCURVE",
"186 -18 CURVE SMOOTH",
"186 -18 OFFCURVE",
"233 14 OFFCURVE",
"233 14 CURVE",
"55 244 LINE",
"14 212 LINE"
);
},
{
closed = 1;
nodes = (
"383 0 LINE",
"439 0 LINE",
"439 456 LINE",
"383 456 LINE"
);
},
{
closed = 1;
nodes = (
"403 237 OFFCURVE",
"362 216 OFFCURVE",
"279 216 CURVE SMOOTH",
"243 216 OFFCURVE",
"187 220 OFFCURVE",
"141 239 CURVE",
"117 192 LINE",
"175 172 OFFCURVE",
"226 162 OFFCURVE",
"268 162 CURVE SMOOTH",
"354 162 OFFCURVE",
"403 180 OFFCURVE",
"403 180 CURVE",
"403 237 LINE"
);
},
{
closed = 1;
nodes = (
"-24 456 LINE",
"-24 408 LINE",
"537 408 LINE",
"537 456 LINE"
);
},
{
closed = 1;
nodes = (
"383 0 LINE",
"439 0 LINE",
"439 456 LINE",
"383 456 LINE"
);
}
);
width = 513;
}
);
unicode = 0938;
},
{
glyphname = "ha-deva";
lastChange = "2014-08-06 12:22:55 +0530";
layers = (
{
anchors = (
{
name = top;
position = "{280, 447}";
}
);
background = {
paths = (
{
closed = 1;
nodes = (
"-24 456 LINE",
"-24 408 LINE",
"422 408 LINE",
"422 456 LINE"
);
},
{
closed = 1;
nodes = (
"146 203 OFFCURVE",
"121 222 OFFCURVE",
"121 251 CURVE SMOOTH",
"121 284 OFFCURVE",
"147 297 OFFCURVE",
"200 297 CURVE SMOOTH",
"254 297 OFFCURVE",
"265 292 OFFCURVE",
"300 288 CURVE",
"310 295 LINE",
"310 456 LINE",
"254 456 LINE",
"254 344 LINE",
"228 347 OFFCURVE",
"226 348 OFFCURVE",
"193 348 CURVE SMOOTH",
"120 348 OFFCURVE",
"65 319 OFFCURVE",
"65 251 CURVE SMOOTH",
"65 226 OFFCURVE",
"73 200 OFFCURVE",
"104 167 CURVE",
"147 203 LINE"
);
},
{
closed = 1;
nodes = (
"55 4 OFFCURVE",
"147 -60 OFFCURVE",
"291 -60 CURVE",
"303 -10 LINE",
"196 -10 OFFCURVE",
"108 26 OFFCURVE",
"108 90 CURVE SMOOTH",
"108 139 OFFCURVE",
"147 177 OFFCURVE",
"219 177 CURVE",
"270 175 OFFCURVE",
"289 150 OFFCURVE",
"289 120 CURVE SMOOTH",
"289 101 OFFCURVE",
"275 88 OFFCURVE",
"267 79 CURVE",
"308 50 LINE",
"330 70 OFFCURVE",
"342 96 OFFCURVE",
"342 119 CURVE SMOOTH",
"342 190 OFFCURVE",
"292 225 OFFCURVE",
"217 225 CURVE SMOOTH",
"185 225 OFFCURVE",
"152 219 OFFCURVE",
"126 206 CURVE SMOOTH",
"84 185 OFFCURVE",
"55 140 OFFCURVE",
"55 88 CURVE SMOOTH"
);
}
);
};
layerId = "CFA4B904-E3F1-48B6-A7F6-47DC1FF2A3E1";
name = Regular;
paths = (
{
closed = 1;
nodes = (
"-24 456 LINE",
"-24 408 LINE",
"419 408 LINE",
"419 456 LINE"
);
},
{
closed = 1;
nodes = (
"143 203 OFFCURVE",
"118 220 OFFCURVE",
"118 249 CURVE SMOOTH",
"118 282 OFFCURVE",
"144 295 OFFCURVE",
"197 295 CURVE SMOOTH",
"251 295 OFFCURVE",
"262 290 OFFCURVE",
"297 286 CURVE",
"307 293 LINE",
"307 456 LINE",
"251 456 LINE",
"251 342 LINE",
"225 345 OFFCURVE",
"223 346 OFFCURVE",
"190 346 CURVE SMOOTH",
"117 346 OFFCURVE",
"62 317 OFFCURVE",
"62 249 CURVE SMOOTH",
"62 224 OFFCURVE",
"70 200 OFFCURVE",
"101 167 CURVE",
"144 203 LINE"
);
},
{
closed = 1;
nodes = (
"52 -4 OFFCURVE",
"144 -68 OFFCURVE",
"288 -68 CURVE",
"300 -18 LINE",
"193 -18 OFFCURVE",
"105 18 OFFCURVE",
"105 82 CURVE SMOOTH",
"105 131 OFFCURVE",
"144 169 OFFCURVE",
"216 169 CURVE",
"267 167 OFFCURVE",
"286 142 OFFCURVE",
"286 112 CURVE SMOOTH",
"286 93 OFFCURVE",
"272 80 OFFCURVE",
"264 71 CURVE",
"305 42 LINE",
"327 62 OFFCURVE",
"339 88 OFFCURVE",
"339 111 CURVE SMOOTH",
"339 182 OFFCURVE",
"289 217 OFFCURVE",
"214 217 CURVE SMOOTH",
"182 217 OFFCURVE",
"149 211 OFFCURVE",
"123 198 CURVE SMOOTH",
"81 177 OFFCURVE",
"52 132 OFFCURVE",
"52 80 CURVE SMOOTH"
);
}
);
width = 395;
}
);
unicode = 0939;
},
{
glyphname = "khha-deva";
lastChange = "2014-10-01 06:05:12 +0530";
layers = (
{
anchors = (
{
name = bottom;
position = "{495, 5}";
},
{
name = top;
position = "{495, 447}";
}
);
background = {
anchors = (
{
name = top;
position = "{480, 447}";
},
{
name = bottom;
position = "{480, 5}";
}
);
paths = (
{
closed = 1;
nodes = (
"453 0 LINE",
"506 0 LINE",
"506 456 LINE",
"453 456 LINE"
);
},
{
closed = 1;
nodes = (
"-24 456 LINE",
"-24 408 LINE",
"604 408 LINE",
"604 456 LINE"
);
},
{
closed = 1;
nodes = (
"87 427 OFFCURVE",
"158 403 OFFCURVE",
"158 306 CURVE SMOOTH",
"158 209 OFFCURVE",
"44 206 OFFCURVE",
"44 206 CURVE SMOOTH",
"44 206 OFFCURVE",
"66 157 OFFCURVE",
"66 157 CURVE",
"105 157 OFFCURVE",
"212 191 OFFCURVE",
"212 304 CURVE SMOOTH",
"212 412 OFFCURVE",
"139 443 OFFCURVE",
"139 443 CURVE",
"87 427 LINE"
);
},
{
closed = 1;
nodes = (
"14 212 OFFCURVE",
"209 -17 OFFCURVE",
"209 -17 CURVE SMOOTH",
"209 -17 OFFCURVE",
"253 18 OFFCURVE",
"253 18 CURVE",
"54 246 LINE",
"14 212 LINE"
);
},
{
closed = 1;
nodes = (
"245 121 OFFCURVE",
"303 70 OFFCURVE",
"376 70 CURVE SMOOTH",
"428 70 OFFCURVE",
"463 84 OFFCURVE",
"490 102 CURVE",
"476 154 LINE",
"460 140 OFFCURVE",
"432 121 OFFCURVE",
"385 121 CURVE SMOOTH",
"336 121 OFFCURVE",
"301 148 OFFCURVE",
"301 202 CURVE SMOOTH",
"301 255 OFFCURVE",
"336 283 OFFCURVE",
"380 283 CURVE SMOOTH",
"432 283 OFFCURVE",
"460 258 OFFCURVE",
"476 245 CURVE",
"490 298 LINE",
"463 314 OFFCURVE",
"428 334 OFFCURVE",
"376 334 CURVE SMOOTH",
"303 334 OFFCURVE",
"245 283 OFFCURVE",
"245 202 CURVE SMOOTH"
);
},
{
closed = 1;
nodes = (
"65 -3 OFFCURVE",
"79 11 OFFCURVE",
"79 31 CURVE SMOOTH",
"79 52 OFFCURVE",
"65 66 OFFCURVE",
"44 66 CURVE SMOOTH",
"24 66 OFFCURVE",
"10 52 OFFCURVE",
"10 31 CURVE SMOOTH",
"10 11 OFFCURVE",
"24 -3 OFFCURVE",
"44 -3 CURVE SMOOTH"
);
}
);
};
components = (
{
name = "nukta-deva";
transform = "{1, 0, 0, 1, 77, 101}";
},
{
name = "kha-deva";
transform = "{1, 0, 0, 1, 0, 0}";
}
);
layerId = "CFA4B904-E3F1-48B6-A7F6-47DC1FF2A3E1";
name = Regular;
width = 580;
}
);
unicode = 0959;
},
{
glyphname = "ghha-deva";
lastChange = "2014-08-07 06:05:37 +0530";
layers = (
{
anchors = (
{
name = bottom;
position = "{345, 5}";
},
{
name = top;
position = "{345, 447}";
}
);
components = (
{
name = "nukta-deva";
transform = "{1, 0, 0, 1, 203, 104}";
}
);
layerId = "CFA4B904-E3F1-48B6-A7F6-47DC1FF2A3E1";
name = Regular;
paths = (
{
closed = 1;
nodes = (
"317 0 LINE",
"373 0 LINE",
"373 456 LINE",
"317 456 LINE"
);
},
{
closed = 1;
nodes = (
"96 174 LINE",
"151 174 LINE",
"151 456 LINE",
"96 456 LINE"
);
},
{
closed = 1;
nodes = (
"-24 456 LINE",
"-24 408 LINE",
"470 408 LINE",
"470 456 LINE"
);
},
{
closed = 1;
nodes = (
"43 238 LINE",
"43 204 LINE",
"113 113 LINE",
"113 113 OFFCURVE",
"151 113 OFFCURVE",
"151 113 CURVE",
"151 238 LINE"
);
}
);
width = 446;
}
);
unicode = 095A;
},
{
glyphname = "za-deva";
lastChange = "2014-08-15 05:43:51 +0530";
layers = (
{
anchors = (
{
name = bottom;
position = "{437, 5}";
},
{
name = top;
position = "{437, 447}";
}
);
background = {
paths = (
{
closed = 1;
nodes = (
"396 0 LINE",
"452 0 LINE",
"452 456 LINE",
"396 456 LINE"
);
},
{
closed = 1;
nodes = (
"-24 456 LINE",
"-24 408 LINE",
"550 408 LINE",
"550 456 LINE"
);
},
{
closed = 1;
nodes = (
"417 294 OFFCURVE",
"282 294 OFFCURVE",
"218 294 CURVE",
"214 246 LINE",
"286 246 OFFCURVE",
"417 246 OFFCURVE",
"417 246 CURVE",
"417 294 LINE"
);
},
{
closed = 1;
nodes = (
"321 196 OFFCURVE",
"311 241 OFFCURVE",
"263 275 CURVE SMOOTH",
"252 283 OFFCURVE",
"241 286 OFFCURVE",
"228 294 CURVE",
"185 294 LINE",
"185 249 LINE",
"251 249 OFFCURVE",
"269 203 OFFCURVE",
"269 170 CURVE SMOOTH",
"269 122 OFFCURVE",
"234 97 OFFCURVE",
"191 97 CURVE SMOOTH",
"133 97 OFFCURVE",
"78 154 OFFCURVE",
"48 255 CURVE",
"1 235 LINE",
"38 114 OFFCURVE",
"103 45 OFFCURVE",
"192 45 CURVE SMOOTH",
"243 45 OFFCURVE",
"321 74 OFFCURVE",
"321 166 CURVE SMOOTH"
);
}
);
};
components = (
{
name = "nukta-deva";
transform = "{1, 0, 0, 1, 188, 40}";
}
);
guideLines = (
{
angle = 90;
position = "{437, 275}";
}
);
layerId = "CFA4B904-E3F1-48B6-A7F6-47DC1FF2A3E1";
name = Regular;
paths = (
{
closed = 1;
nodes = (
"409 0 LINE",
"465 0 LINE",
"465 456 LINE",
"409 456 LINE"
);
},
{
closed = 1;
nodes = (
"-24 456 LINE",
"-24 408 LINE",
"563 408 LINE",
"563 456 LINE"
);
},
{
closed = 1;
nodes = (
"430 294 OFFCURVE",
"295 294 OFFCURVE",
"231 294 CURVE",
"227 246 LINE",
"299 246 OFFCURVE",
"430 246 OFFCURVE",
"430 246 CURVE",
"430 294 LINE"
);
},
{
closed = 1;
nodes = (
"334 196 OFFCURVE",
"324 241 OFFCURVE",
"276 275 CURVE SMOOTH",
"265 283 OFFCURVE",
"254 286 OFFCURVE",
"241 294 CURVE",
"198 294 LINE",
"198 249 LINE",
"264 249 OFFCURVE",
"282 203 OFFCURVE",
"282 170 CURVE SMOOTH",
"282 122 OFFCURVE",
"247 97 OFFCURVE",
"204 97 CURVE SMOOTH",
"146 97 OFFCURVE",
"91 154 OFFCURVE",
"61 255 CURVE",
"14 235 LINE",
"51 114 OFFCURVE",
"116 45 OFFCURVE",
"205 45 CURVE SMOOTH",
"256 45 OFFCURVE",
"334 74 OFFCURVE",
"334 166 CURVE SMOOTH"
);
}
);
width = 539;
}
);
unicode = 095B;
},
{
color = 7;
glyphname = "jjya-deva";
lastChange = "2014-08-25 14:39:57 +0530";
layers = (
{
layerId = "CFA4B904-E3F1-48B6-A7F6-47DC1FF2A3E1";
name = Regular;
paths = (
{
closed = 1;
nodes = (
"315 0 LINE",
"371 0 LINE",
"371 456 LINE",
"315 456 LINE"
);
},
{
closed = 1;
nodes = (
"-24 456 LINE",
"-24 408 LINE",
"469 408 LINE",
"469 456 LINE"
);
},
{
closed = 1;
nodes = (
"312 158 OFFCURVE",
"259 137 OFFCURVE",
"208 137 CURVE SMOOTH",
"167 137 OFFCURVE",
"130 155 OFFCURVE",
"105 182 CURVE",
"142 211 OFFCURVE",
"178 244 OFFCURVE",
"178 306 CURVE SMOOTH",
"178 356 OFFCURVE",
"150 414 OFFCURVE",
"96 456 CURVE",
"26 456 LINE",
"86 414 OFFCURVE",
"123 356 OFFCURVE",
"123 307 CURVE SMOOTH",
"123 258 OFFCURVE",
"77 230 OFFCURVE",
"45 213 CURVE",
"34 184 LINE",
"61 138 OFFCURVE",
"122 84 OFFCURVE",
"213 84 CURVE SMOOTH",
"285 84 OFFCURVE",
"338 127 OFFCURVE",
"338 127 CURVE",
"338 203 LINE"
);
},
{
closed = 1;
nodes = (
"300 146 LINE",
"331 178 LINE",
"125 430 LINE",
"87 402 LINE"
);
}
);
width = 445;
}
);
unicode = 097A;
},
{
color = 7;
glyphname = "gga-deva";
lastChange = "2014-08-25 14:39:57 +0530";
layers = (
{
layerId = "CFA4B904-E3F1-48B6-A7F6-47DC1FF2A3E1";
name = Regular;
paths = (
{
closed = 1;
nodes = (
"313 -10 LINE",
"369 -10 LINE",
"369 456 LINE",
"313 456 LINE"
);
},
{
closed = 1;
nodes = (
"92 151 LINE",
"147 151 LINE",
"147 456 LINE",
"92 456 LINE"
);
},
{
closed = 1;
nodes = (
"-24 456 LINE",
"-24 408 LINE",
"467 408 LINE",
"467 456 LINE"
);
},
{
closed = 1;
nodes = (
"34 215 LINE",
"34 181 LINE",
"109 90 LINE",
"109 90 OFFCURVE",
"147 90 OFFCURVE",
"147 90 CURVE",
"147 215 LINE"
);
},
{
closed = 1;
nodes = (
"34 0 LINE",
"34 -48 LINE",
"369 -48 LINE",
"369 0 LINE"
);
}
);
width = 443;
}
);
unicode = 097B;
},
{
color = 7;
glyphname = "jja-deva";
lastChange = "2014-08-25 14:39:57 +0530";
layers = (
{
layerId = "CFA4B904-E3F1-48B6-A7F6-47DC1FF2A3E1";
name = Regular;
paths = (
{
closed = 1;
nodes = (
"409 -10 LINE",
"465 -10 LINE",
"465 456 LINE",
"409 456 LINE"
);
},
{
closed = 1;
nodes = (
"-24 456 LINE",
"-24 408 LINE",
"563 408 LINE",
"563 456 LINE"
);
},
{
closed = 1;
nodes = (
"430 305 OFFCURVE",
"295 305 OFFCURVE",
"231 305 CURVE",
"227 257 LINE",
"299 257 OFFCURVE",
"430 257 OFFCURVE",
"430 257 CURVE",
"430 305 LINE"
);
},
{
closed = 1;
nodes = (
"334 207 OFFCURVE",
"324 252 OFFCURVE",
"276 286 CURVE SMOOTH",
"265 294 OFFCURVE",
"254 297 OFFCURVE",
"241 305 CURVE",
"198 305 LINE",
"198 260 LINE",
"264 260 OFFCURVE",
"282 214 OFFCURVE",
"282 181 CURVE SMOOTH",
"282 133 OFFCURVE",
"247 108 OFFCURVE",
"204 108 CURVE SMOOTH",
"146 108 OFFCURVE",
"91 165 OFFCURVE",
"61 266 CURVE",
"14 246 LINE",
"51 125 OFFCURVE",
"116 56 OFFCURVE",
"205 56 CURVE SMOOTH",
"256 56 OFFCURVE",
"334 85 OFFCURVE",
"334 177 CURVE SMOOTH"
);
},
{
closed = 1;
nodes = (
"21 0 LINE",
"21 -48 LINE",
"465 -48 LINE",
"465 0 LINE"
);
}
);
width = 539;
}
);
unicode = 097C;
},
{
color = 7;
glyphname = "ddda-deva";
lastChange = "2014-08-25 14:39:57 +0530";
layers = (
{
layerId = "CFA4B904-E3F1-48B6-A7F6-47DC1FF2A3E1";
name = Regular;
paths = (
{
closed = 1;
nodes = (
"-28 456 LINE",
"-28 408 LINE",
"429 408 LINE",
"429 456 LINE"
);
},
{
closed = 1;
nodes = (
"280 171 OFFCURVE",
"309 153 OFFCURVE",
"309 116 CURVE SMOOTH",
"309 73 OFFCURVE",
"268 52 OFFCURVE",
"224 52 CURVE SMOOTH",
"165 52 OFFCURVE",
"116 81 OFFCURVE",
"68 128 CURVE",
"34 91 LINE",
"86 38 OFFCURVE",
"149 0 OFFCURVE",
"225 0 CURVE SMOOTH",
"306 0 OFFCURVE",
"363 46 OFFCURVE",
"363 120 CURVE SMOOTH",
"363 181 OFFCURVE",
"310 220 OFFCURVE",
"238 216 CURVE SMOOTH",
"186 213 OFFCURVE",
"133 212 OFFCURVE",
"133 256 CURVE SMOOTH",
"133 284 OFFCURVE",
"156 294 OFFCURVE",
"206 294 CURVE SMOOTH",
"268 294 OFFCURVE",
"285 289 OFFCURVE",
"320 285 CURVE",
"330 292 LINE",
"330 456 LINE",
"274 456 LINE",
"274 343 LINE",
"253 345 OFFCURVE",
"241 346 OFFCURVE",
"208 346 CURVE SMOOTH",
"131 346 OFFCURVE",
"80 322 OFFCURVE",
"80 259 CURVE SMOOTH",
"80 162 OFFCURVE",
"182 161 OFFCURVE",
"220 165 CURVE SMOOTH"
);
},
{
closed = 1;
nodes = (
"34 -50 LINE",
"34 -98 LINE",
"363 -98 LINE",
"363 -50 LINE"
);
}
);
width = 405;
}
);
unicode = 097E;
},
{
color = 7;
glyphname = "bba-deva";
lastChange = "2014-08-25 14:39:57 +0530";
layers = (
{
layerId = "CFA4B904-E3F1-48B6-A7F6-47DC1FF2A3E1";
name = Regular;
paths = (
{
closed = 1;
nodes = (
"286 -10 LINE",
"342 -10 LINE",
"342 456 LINE",
"286 456 LINE"
);
},
{
closed = 1;
nodes = (
"-24 456 LINE",
"-24 408 LINE",
"440 408 LINE",
"440 456 LINE"
);
},
{
closed = 1;
nodes = (
"81 268 OFFCURVE",
"130 295 OFFCURVE",
"184 295 CURVE SMOOTH",
"236 295 OFFCURVE",
"272 273 OFFCURVE",
"288 261 CURVE",
"302 311 LINE",
"275 329 OFFCURVE",
"230 345 OFFCURVE",
"180 345 CURVE SMOOTH",
"102 345 OFFCURVE",
"30 296 OFFCURVE",
"30 205 CURVE SMOOTH",
"30 114 OFFCURVE",
"97 65 OFFCURVE",
"180 65 CURVE SMOOTH",
"232 65 OFFCURVE",
"275 83 OFFCURVE",
"302 100 CURVE",
"288 152 LINE",
"272 140 OFFCURVE",
"236 115 OFFCURVE",
"184 115 CURVE SMOOTH",
"130 115 OFFCURVE",
"81 142 OFFCURVE",
"81 205 CURVE SMOOTH"
);
},
{
closed = 1;
nodes = (
"85 279 OFFCURVE",
"273 99 OFFCURVE",
"273 99 CURVE SMOOTH",
"273 99 OFFCURVE",
"308 131 OFFCURVE",
"308 131 CURVE",
"123 307 LINE",
"85 279 LINE"
);
},
{
closed = 1;
nodes = (
"30 0 LINE",
"30 -48 LINE",
"342 -48 LINE",
"342 0 LINE"
);
}
);
width = 416;
}
);
unicode = 097F;
},
{
color = 0;
glyphname = "la-deva.MAR";
lastChange = "2014-08-25 11:41:00 +0530";
layers = (
{
background = {
paths = (
{
closed = 1;
nodes = (
"408 0 LINE",
"464 0 LINE",
"464 456 LINE",
"408 456 LINE"
);
},
{
closed = 1;
nodes = (
"-24 456 LINE",
"-24 408 LINE",
"562 408 LINE",
"562 456 LINE"
);
},
{
closed = 1;
nodes = (
"275 268 OFFCURVE",
"234 310 OFFCURVE",
"177 310 CURVE SMOOTH",
"94 310 OFFCURVE",
"44 253 OFFCURVE",
"44 172 CURVE SMOOTH",
"44 74 OFFCURVE",
"137 -12 OFFCURVE",
"137 -12 CURVE",
"190 11 LINE",
"167 36 OFFCURVE",
"101 102 OFFCURVE",
"101 172 CURVE SMOOTH",
"101 221 OFFCURVE",
"129 256 OFFCURVE",
"176 256 CURVE SMOOTH",
"230 256 OFFCURVE",
"255 182 OFFCURVE",
"255 182 CURVE",
"292 227 LINE"
);
},
{
closed = 1;
nodes = (
"239 118 OFFCURVE",
"292 110 OFFCURVE",
"292 110 CURVE",
"291 120 OFFCURVE",
"288 140 OFFCURVE",
"288 162 CURVE SMOOTH",
"288 217 OFFCURVE",
"313 256 OFFCURVE",
"369 255 CURVE SMOOTH",
"394 255 OFFCURVE",
"416 245 OFFCURVE",
"434 231 CURVE",
"428 293 LINE",
"405 306 OFFCURVE",
"384 308 OFFCURVE",
"365 308 CURVE SMOOTH",
"299 308 OFFCURVE",
"235 266 OFFCURVE",
"235 164 CURVE SMOOTH",
"235 154 OFFCURVE",
"237 128 OFFCURVE",
"239 118 CURVE"
);
}
);
};
layerId = "CFA4B904-E3F1-48B6-A7F6-47DC1FF2A3E1";
name = Regular;
paths = (
{
closed = 1;
nodes = (
"358 270 LINE",
"414 270 LINE",
"414 456 LINE",
"358 456 LINE"
);
},
{
closed = 1;
nodes = (
"-24 456 LINE",
"-24 408 LINE",
"554 408 LINE",
"554 456 LINE"
);
},
{
closed = 1;
nodes = (
"275 268 OFFCURVE",
"234 310 OFFCURVE",
"177 310 CURVE SMOOTH",
"94 310 OFFCURVE",
"44 253 OFFCURVE",
"44 172 CURVE SMOOTH",
"44 74 OFFCURVE",
"137 -12 OFFCURVE",
"137 -12 CURVE",
"190 11 LINE",
"167 36 OFFCURVE",
"101 102 OFFCURVE",
"101 172 CURVE SMOOTH",
"101 221 OFFCURVE",
"129 256 OFFCURVE",
"176 256 CURVE SMOOTH",
"230 256 OFFCURVE",
"255 182 OFFCURVE",
"255 182 CURVE",
"292 227 LINE"
);
},
{
closed = 1;
nodes = (
"299 308 OFFCURVE",
"235 266 OFFCURVE",
"235 164 CURVE SMOOTH",
"235 154 OFFCURVE",
"237 128 OFFCURVE",
"239 118 CURVE",
"239 118 OFFCURVE",
"292 110 OFFCURVE",
"292 110 CURVE",
"291 120 OFFCURVE",
"288 140 OFFCURVE",
"288 162 CURVE SMOOTH",
"288 217 OFFCURVE",
"314 257 OFFCURVE",
"362 256 CURVE",
"411 256 OFFCURVE",
"430 221 OFFCURVE",
"430 172 CURVE SMOOTH",
"430 102 OFFCURVE",
"363 36 OFFCURVE",
"340 11 CURVE",
"394 -12 LINE",
"394 -12 OFFCURVE",
"486 74 OFFCURVE",
"486 172 CURVE SMOOTH",
"486 253 OFFCURVE",
"441 308 OFFCURVE",
"365 308 CURVE"
);
}
);
width = 530;
}
);
},
{
color = 0;
glyphname = "sha-deva.MAR";
lastChange = "2014-08-25 11:53:55 +0530";
layers = (
{
anchors = (
{
name = bottom;
position = "{401, 5}";
},
{
name = top;
position = "{401, 447}";
}
);
background = {
paths = (
{
closed = 1;
nodes = (
"289 414 OFFCURVE",
"236 466 OFFCURVE",
"172 466 CURVE SMOOTH",
"113 466 OFFCURVE",
"69 425 OFFCURVE",
"69 368 CURVE SMOOTH",
"69 329 OFFCURVE",
"92 297 OFFCURVE",
"141 268 CURVE",
"170 311 LINE",
"146 326 OFFCURVE",
"122 343 OFFCURVE",
"122 368 CURVE SMOOTH",
"122 398 OFFCURVE",
"144 413 OFFCURVE",
"172 413 CURVE SMOOTH",
"208 413 OFFCURVE",
"233 379 OFFCURVE",
"236 329 CURVE SMOOTH",
"241 233 OFFCURVE",
"139 193 OFFCURVE",
"104 174 CURVE",
"146 137 LINE",
"209 175 OFFCURVE",
"289 223 OFFCURVE",
"289 332 CURVE SMOOTH"
);
},
{
closed = 1;
nodes = (
"42 155 OFFCURVE",
"73 130 OFFCURVE",
"117 131 CURVE",
"250 -15 LINE",
"250 -15 OFFCURVE",
"288 21 OFFCURVE",
"288 21 CURVE",
"82 239 LINE",
"55 230 OFFCURVE",
"42 211 OFFCURVE",
"42 191 CURVE SMOOTH"
);
},
{
closed = 1;
nodes = (
"321 456 LINE",
"321 408 LINE",
"567 408 LINE",
"567 456 LINE"
);
},
{
closed = 1;
nodes = (
"413 0 LINE",
"469 0 LINE",
"469 456 LINE",
"413 456 LINE"
);
}
);
};
layerId = "CFA4B904-E3F1-48B6-A7F6-47DC1FF2A3E1";
name = Regular;
paths = (
{
closed = 1;
nodes = (
"264 303 OFFCURVE",
"219 355 OFFCURVE",
"147 355 CURVE SMOOTH",
"97 355 OFFCURVE",
"57 325 OFFCURVE",
"34 281 CURVE",
"79 255 LINE",
"92 281 OFFCURVE",
"119 303 OFFCURVE",
"147 303 CURVE SMOOTH",
"193 303 OFFCURVE",
"211 268 OFFCURVE",
"211 238 CURVE SMOOTH",
"211 180 OFFCURVE",
"124 149 OFFCURVE",
"89 133 CURVE",
"131 98 LINE",
"211 134 OFFCURVE",
"264 176 OFFCURVE",
"264 239 CURVE SMOOTH"
);
},
{
closed = 1;
nodes = (
"27 114 OFFCURVE",
"66 89 OFFCURVE",
"114 90 CURVE",
"225 -15 LINE",
"225 -15 OFFCURVE",
"263 21 OFFCURVE",
"263 21 CURVE",
"67 198 LINE",
"40 189 OFFCURVE",
"27 170 OFFCURVE",
"27 150 CURVE SMOOTH"
);
},
{
closed = 1;
nodes = (
"-40 456 LINE",
"-40 408 LINE",
"527 408 LINE",
"527 456 LINE"
);
},
{
closed = 1;
nodes = (
"373 0 LINE",
"429 0 LINE",
"429 456 LINE",
"373 456 LINE"
);
},
{
closed = 1;
nodes = (
"122 325 LINE",
"174 325 LINE",
"174 456 LINE",
"122 456 LINE"
);
}
);
width = 503;
}
);
},
{
color = 0;
glyphname = "jha-deva.NEP";
lastChange = "2014-08-25 11:19:34 +0530";
layers = (
{
anchors = (
{
name = bottom;
position = "{404, 5}";
},
{
name = top;
position = "{404, 447}";
}
);
guideLines = (
{
angle = 90;
position = "{404, 275}";
}
);
layerId = "CFA4B904-E3F1-48B6-A7F6-47DC1FF2A3E1";
name = Regular;
paths = (
{
closed = 1;
nodes = (
"376 0 LINE",
"432 0 LINE",
"432 456 LINE",
"376 456 LINE"
);
},
{
closed = 1;
nodes = (
"213 135 LINE",
"213 320 LINE SMOOTH",
"213 412 OFFCURVE",
"188 466 OFFCURVE",
"117 466 CURVE SMOOTH",
"72 466 OFFCURVE",
"31 434 OFFCURVE",
"31 379 CURVE SMOOTH",
"31 343 OFFCURVE",
"55 306 OFFCURVE",
"104 280 CURVE",
"131 321 LINE",
"107 335 OFFCURVE",
"84 351 OFFCURVE",
"84 379 CURVE SMOOTH",
"84 399 OFFCURVE",
"98 413 OFFCURVE",
"117 413 CURVE SMOOTH",
"163 413 OFFCURVE",
"158 339 OFFCURVE",
"158 320 CURVE SMOOTH",
"158 135 LINE"
);
},
{
closed = 1;
nodes = (
"280 456 LINE",
"280 408 LINE",
"711 408 LINE",
"711 456 LINE"
);
},
{
closed = 1;
nodes = (
"94 199 LINE",
"94 166 LINE",
"175 70 LINE",
"175 70 OFFCURVE",
"213 70 OFFCURVE",
"213 70 CURVE",
"213 199 LINE"
);
},
{
closed = 1;
nodes = (
"182 199 LINE",
"182 151 LINE",
"421 151 LINE",
"421 199 LINE"
);
},
{
closed = 1;
nodes = (
"662 270 OFFCURVE",
"608 325 OFFCURVE",
"525 325 CURVE SMOOTH",
"473 325 OFFCURVE",
"430 292 OFFCURVE",
"403 274 CURVE",
"417 217 LINE",
"433 229 OFFCURVE",
"475 272 OFFCURVE",
"521 272 CURVE SMOOTH",
"575 272 OFFCURVE",
"606 244 OFFCURVE",
"606 197 CURVE SMOOTH",
"606 146 OFFCURVE",
"569 118 OFFCURVE",
"540 91 CURVE",
"579 52 LINE",
"616 81 OFFCURVE",
"662 128 OFFCURVE",
"662 191 CURVE SMOOTH"
);
}
);
width = 687;
}
);
},
{
color = 3;
glyphname = "k_kha-deva";
lastChange = "2014-08-20 18:57:20 +0530";
layers = (
{
anchors = (
{
name = bottom;
position = "{915, 5}";
},
{
name = top;
position = "{915, 447}";
}
);
background = {
paths = (
{
closed = 1;
nodes = (
"522 269 LINE",
"483 315 OFFCURVE",
"443 333 OFFCURVE",
"386 333 CURVE SMOOTH",
"334 333 OFFCURVE",
"283 296 OFFCURVE",
"256 278 CURVE",
"270 227 LINE",
"286 239 OFFCURVE",
"339 282 OFFCURVE",
"385 282 CURVE SMOOTH",
"439 282 OFFCURVE",
"468 267 OFFCURVE",
"500 214 CURVE"
);
}
);
};
layerId = "CFA4B904-E3F1-48B6-A7F6-47DC1FF2A3E1";
name = Regular;
paths = (
{
closed = 1;
nodes = (
"258 0 LINE",
"311 0 LINE",
"311 456 LINE",
"258 456 LINE"
);
},
{
closed = 1;
nodes = (
"-28 456 LINE",
"-28 408 LINE",
"447 408 LINE",
"447 456 LINE"
);
},
{
closed = 1;
nodes = (
"29 124 OFFCURVE",
"89 73 OFFCURVE",
"172 73 CURVE SMOOTH",
"234 73 OFFCURVE",
"267 100 OFFCURVE",
"294 118 CURVE",
"280 169 LINE",
"264 157 OFFCURVE",
"238 124 OFFCURVE",
"181 124 CURVE SMOOTH",
"122 124 OFFCURVE",
"85 151 OFFCURVE",
"85 205 CURVE SMOOTH",
"85 258 OFFCURVE",
"122 286 OFFCURVE",
"176 286 CURVE SMOOTH",
"228 286 OFFCURVE",
"264 253 OFFCURVE",
"280 241 CURVE",
"294 292 LINE",
"267 310 OFFCURVE",
"224 337 OFFCURVE",
"172 337 CURVE SMOOTH",
"89 337 OFFCURVE",
"29 286 OFFCURVE",
"29 205 CURVE SMOOTH"
);
},
{
closed = 1;
nodes = (
"489 246 LINE",
"474 305 OFFCURVE",
"423 333 OFFCURVE",
"375 333 CURVE SMOOTH",
"314 333 OFFCURVE",
"283 296 OFFCURVE",
"256 278 CURVE",
"270 227 LINE",
"289 246 OFFCURVE",
"319 282 OFFCURVE",
"369 282 CURVE SMOOTH",
"399 282 OFFCURVE",
"437 273 OFFCURVE",
"447 214 CURVE"
);
},
{
closed = 1;
nodes = (
"888 0 LINE",
"941 0 LINE",
"941 456 LINE",
"888 456 LINE"
);
},
{
closed = 1;
nodes = (
"411 456 LINE",
"411 408 LINE",
"1039 408 LINE",
"1039 456 LINE"
);
},
{
closed = 1;
nodes = (
"522 427 OFFCURVE",
"593 403 OFFCURVE",
"593 306 CURVE SMOOTH",
"593 209 OFFCURVE",
"479 206 OFFCURVE",
"479 206 CURVE SMOOTH",
"479 206 OFFCURVE",
"501 157 OFFCURVE",
"501 157 CURVE",
"540 157 OFFCURVE",
"647 191 OFFCURVE",
"647 304 CURVE SMOOTH",
"647 412 OFFCURVE",
"574 443 OFFCURVE",
"574 443 CURVE",
"522 427 LINE"
);
},
{
closed = 1;
nodes = (
"447 214 OFFCURVE",
"644 -17 OFFCURVE",
"644 -17 CURVE SMOOTH",
"644 -17 OFFCURVE",
"688 18 OFFCURVE",
"688 18 CURVE",
"489 246 LINE",
"447 214 LINE"
);
},
{
closed = 1;
nodes = (
"680 121 OFFCURVE",
"738 70 OFFCURVE",
"811 70 CURVE SMOOTH",
"863 70 OFFCURVE",
"898 84 OFFCURVE",
"925 102 CURVE",
"911 154 LINE",
"895 140 OFFCURVE",
"867 121 OFFCURVE",
"820 121 CURVE SMOOTH",
"771 121 OFFCURVE",
"736 148 OFFCURVE",
"736 202 CURVE SMOOTH",
"736 255 OFFCURVE",
"771 283 OFFCURVE",
"815 283 CURVE SMOOTH",
"867 283 OFFCURVE",
"895 258 OFFCURVE",
"911 245 CURVE",
"925 298 LINE",
"898 314 OFFCURVE",
"863 334 OFFCURVE",
"811 334 CURVE SMOOTH",
"738 334 OFFCURVE",
"680 283 OFFCURVE",
"680 202 CURVE SMOOTH"
);
}
);
width = 1015;
}
);
leftMetricsKey = "k-deva";
},
{
color = 3;
glyphname = "k_ca-deva";
lastChange = "2014-08-15 13:03:27 +0530";
layers = (
{
anchors = (
{
name = bottom;
position = "{783, 5}";
},
{
name = top;
position = "{783, 447}";
}
);
background = {
paths = (
{
closed = 1;
nodes = (
"489 246 LINE",
"475 305 OFFCURVE",
"423 333 OFFCURVE",
"375 333 CURVE SMOOTH",
"314 333 OFFCURVE",
"283 296 OFFCURVE",
"256 278 CURVE",
"270 227 LINE",
"289 246 OFFCURVE",
"319 282 OFFCURVE",
"369 282 CURVE SMOOTH",
"399 282 OFFCURVE",
"437 273 OFFCURVE",
"447 214 CURVE"
);
}
);
};
layerId = "CFA4B904-E3F1-48B6-A7F6-47DC1FF2A3E1";
name = Regular;
paths = (
{
closed = 1;
nodes = (
"258 0 LINE",
"311 0 LINE",
"311 456 LINE",
"258 456 LINE"
);
},
{
closed = 1;
nodes = (
"-28 456 LINE",
"-28 408 LINE",
"447 408 LINE",
"447 456 LINE"
);
},
{
closed = 1;
nodes = (
"29 124 OFFCURVE",
"89 73 OFFCURVE",
"172 73 CURVE SMOOTH",
"234 73 OFFCURVE",
"267 100 OFFCURVE",
"294 118 CURVE",
"280 169 LINE",
"264 157 OFFCURVE",
"238 124 OFFCURVE",
"181 124 CURVE SMOOTH",
"122 124 OFFCURVE",
"85 151 OFFCURVE",
"85 205 CURVE SMOOTH",
"85 258 OFFCURVE",
"122 286 OFFCURVE",
"176 286 CURVE SMOOTH",
"228 286 OFFCURVE",
"264 253 OFFCURVE",
"280 241 CURVE",
"294 292 LINE",
"267 310 OFFCURVE",
"224 337 OFFCURVE",
"172 337 CURVE SMOOTH",
"89 337 OFFCURVE",
"29 286 OFFCURVE",
"29 205 CURVE SMOOTH"
);
},
{
closed = 1;
nodes = (
"489 254 LINE",
"468 309 OFFCURVE",
"419 333 OFFCURVE",
"370 333 CURVE SMOOTH",
"316 333 OFFCURVE",
"283 300 OFFCURVE",
"256 278 CURVE",
"270 222 LINE",
"289 241 OFFCURVE",
"314 282 OFFCURVE",
"369 282 CURVE SMOOTH",
"387 282 OFFCURVE",
"418 278 OFFCURVE",
"436 248 CURVE"
);
},
{
closed = 1;
nodes = (
"755 0 LINE",
"811 0 LINE",
"811 456 LINE",
"755 456 LINE"
);
},
{
closed = 1;
nodes = (
"391 456 LINE",
"391 408 LINE",
"909 408 LINE",
"909 456 LINE"
);
},
{
closed = 1;
nodes = (
"777 182 OFFCURVE",
"737 125 OFFCURVE",
"653 125 CURVE SMOOTH",
"599 125 OFFCURVE",
"558 150 OFFCURVE",
"558 195 CURVE SMOOTH",
"558 256 OFFCURVE",
"620 266 OFFCURVE",
"620 266 CURVE SMOOTH",
"539 266 LINE SMOOTH",
"539 266 OFFCURVE",
"502 254 OFFCURVE",
"502 189 CURVE SMOOTH",
"502 128 OFFCURVE",
"554 73 OFFCURVE",
"652 73 CURVE SMOOTH",
"729 73 OFFCURVE",
"767 107 OFFCURVE",
"788 125 CURVE",
"788 195 LINE"
);
},
{
closed = 1;
nodes = (
"436 296 LINE",
"436 248 LINE",
"668 248 LINE",
"668 296 LINE"
);
}
);
width = 882;
}
);
leftMetricsKey = "k-deva";
},
{
color = 3;
glyphname = "k_cha-deva";
lastChange = "2014-08-19 16:49:21 +0530";
layers = (
{
anchors = (
{
name = bottom;
position = "{648, -19}";
},
{
name = top;
position = "{800, 447}";
}
);
background = {
paths = (
{
closed = 1;
nodes = (
"258 0 LINE",
"311 0 LINE",
"311 456 LINE",
"258 456 LINE"
);
},
{
closed = 1;
nodes = (
"-28 456 LINE",
"-28 408 LINE",
"447 408 LINE",
"447 456 LINE"
);
},
{
closed = 1;
nodes = (
"29 124 OFFCURVE",
"89 73 OFFCURVE",
"172 73 CURVE SMOOTH",
"234 73 OFFCURVE",
"267 100 OFFCURVE",
"294 118 CURVE",
"280 169 LINE",
"264 157 OFFCURVE",
"238 124 OFFCURVE",
"181 124 CURVE SMOOTH",
"122 124 OFFCURVE",
"85 151 OFFCURVE",
"85 205 CURVE SMOOTH",
"85 258 OFFCURVE",
"122 286 OFFCURVE",
"176 286 CURVE SMOOTH",
"228 286 OFFCURVE",
"264 253 OFFCURVE",
"280 241 CURVE",
"294 292 LINE",
"267 310 OFFCURVE",
"224 337 OFFCURVE",
"172 337 CURVE SMOOTH",
"89 337 OFFCURVE",
"29 286 OFFCURVE",
"29 205 CURVE SMOOTH"
);
},
{
closed = 1;
nodes = (
"522 269 LINE",
"483 315 OFFCURVE",
"443 333 OFFCURVE",
"386 333 CURVE SMOOTH",
"334 333 OFFCURVE",
"283 296 OFFCURVE",
"256 278 CURVE",
"270 227 LINE",
"286 239 OFFCURVE",
"339 282 OFFCURVE",
"385 282 CURVE SMOOTH",
"439 282 OFFCURVE",
"468 267 OFFCURVE",
"500 214 CURVE"
);
},
{
closed = 1;
nodes = (
"952 408 LINE",
"952 456 LINE",
"370 456 LINE",
"370 408 LINE"
);
},
{
closed = 1;
nodes = (
"844 121 OFFCURVE",
"769 58 OFFCURVE",
"648 58 CURVE SMOOTH",
"580 58 OFFCURVE",
"512 90 OFFCURVE",
"512 147 CURVE SMOOTH",
"512 187 OFFCURVE",
"527 230 OFFCURVE",
"635 226 CURVE",
"640 226 LINE",
"640 275 LINE",
"631 275 LINE SMOOTH",
"527 274 OFFCURVE",
"520 323 OFFCURVE",
"520 344 CURVE SMOOTH",
"520 378 OFFCURVE",
"537 400 OFFCURVE",
"583 408 CURVE",
"631 456 LINE",
"596 456 OFFCURVE",
"542 444 OFFCURVE",
"511 424 CURVE SMOOTH",
"478 403 OFFCURVE",
"466 373 OFFCURVE",
"466 344 CURVE SMOOTH",
"466 305 OFFCURVE",
"484 275 OFFCURVE",
"529 252 CURVE",
"488 232 OFFCURVE",
"458 204 OFFCURVE",
"458 153 CURVE SMOOTH",
"458 64 OFFCURVE",
"535 6 OFFCURVE",
"648 6 CURVE SMOOTH",
"752 6 OFFCURVE",
"895 57 OFFCURVE",
"895 220 CURVE SMOOTH",
"895 298 OFFCURVE",
"851 349 OFFCURVE",
"794 349 CURVE SMOOTH",
"737 349 OFFCURVE",
"692 298 OFFCURVE",
"692 228 CURVE SMOOTH",
"692 147 OFFCURVE",
"734 98 OFFCURVE",
"754 69 CURVE",
"754 69 OFFCURVE",
"814 94 OFFCURVE",
"804 94 CURVE SMOOTH",
"804 94 OFFCURVE",
"745 140 OFFCURVE",
"745 228 CURVE SMOOTH",
"745 266 OFFCURVE",
"768 295 OFFCURVE",
"794 295 CURVE SMOOTH",
"816 295 OFFCURVE",
"844 273 OFFCURVE",
"844 216 CURVE SMOOTH"
);
},
{
closed = 1;
nodes = (
"775 333 LINE",
"825 333 LINE",
"825 456 LINE",
"775 456 LINE"
);
}
);
};
layerId = "CFA4B904-E3F1-48B6-A7F6-47DC1FF2A3E1";
name = Regular;
paths = (
{
closed = 1;
nodes = (
"258 0 LINE",
"311 0 LINE",
"311 456 LINE",
"258 456 LINE"
);
},
{
closed = 1;
nodes = (
"-28 456 LINE",
"-28 408 LINE",
"447 408 LINE",
"447 456 LINE"
);
},
{
closed = 1;
nodes = (
"29 124 OFFCURVE",
"89 73 OFFCURVE",
"172 73 CURVE SMOOTH",
"234 73 OFFCURVE",
"267 100 OFFCURVE",
"294 118 CURVE",
"280 169 LINE",
"264 157 OFFCURVE",
"238 124 OFFCURVE",
"181 124 CURVE SMOOTH",
"122 124 OFFCURVE",
"85 151 OFFCURVE",
"85 205 CURVE SMOOTH",
"85 258 OFFCURVE",
"122 286 OFFCURVE",
"176 286 CURVE SMOOTH",
"228 286 OFFCURVE",
"264 253 OFFCURVE",
"280 241 CURVE",
"294 292 LINE",
"267 310 OFFCURVE",
"224 337 OFFCURVE",
"172 337 CURVE SMOOTH",
"89 337 OFFCURVE",
"29 286 OFFCURVE",
"29 205 CURVE SMOOTH"
);
},
{
closed = 1;
nodes = (
"535 259 LINE",
"496 305 OFFCURVE",
"453 333 OFFCURVE",
"400 333 CURVE SMOOTH",
"329 333 OFFCURVE",
"283 296 OFFCURVE",
"256 278 CURVE",
"270 227 LINE",
"286 239 OFFCURVE",
"339 282 OFFCURVE",
"401 282 CURVE SMOOTH",
"439 282 OFFCURVE",
"488 266 OFFCURVE",
"520 230 CURVE"
);
},
{
closed = 1;
nodes = (
"952 408 LINE",
"952 456 LINE",
"370 456 LINE",
"370 408 LINE"
);
},
{
closed = 1;
nodes = (
"844 121 OFFCURVE",
"769 58 OFFCURVE",
"648 58 CURVE SMOOTH",
"580 58 OFFCURVE",
"512 90 OFFCURVE",
"512 147 CURVE SMOOTH",
"512 187 OFFCURVE",
"527 230 OFFCURVE",
"635 226 CURVE",
"640 226 LINE",
"640 275 LINE",
"631 275 LINE SMOOTH",
"527 274 OFFCURVE",
"520 323 OFFCURVE",
"520 344 CURVE SMOOTH",
"520 378 OFFCURVE",
"537 400 OFFCURVE",
"583 408 CURVE",
"631 456 LINE",
"596 456 OFFCURVE",
"542 444 OFFCURVE",
"511 424 CURVE SMOOTH",
"478 403 OFFCURVE",
"466 373 OFFCURVE",
"466 344 CURVE SMOOTH",
"466 305 OFFCURVE",
"484 275 OFFCURVE",
"529 252 CURVE",
"488 232 OFFCURVE",
"458 204 OFFCURVE",
"458 153 CURVE SMOOTH",
"458 64 OFFCURVE",
"535 6 OFFCURVE",
"648 6 CURVE SMOOTH",
"752 6 OFFCURVE",
"895 57 OFFCURVE",
"895 220 CURVE SMOOTH",
"895 298 OFFCURVE",
"851 349 OFFCURVE",
"794 349 CURVE SMOOTH",
"737 349 OFFCURVE",
"692 298 OFFCURVE",
"692 228 CURVE SMOOTH",
"692 147 OFFCURVE",
"734 98 OFFCURVE",
"754 69 CURVE",
"754 69 OFFCURVE",
"814 94 OFFCURVE",
"804 94 CURVE SMOOTH",
"804 94 OFFCURVE",
"745 140 OFFCURVE",
"745 228 CURVE SMOOTH",
"745 266 OFFCURVE",
"768 295 OFFCURVE",
"794 295 CURVE SMOOTH",
"816 295 OFFCURVE",
"844 273 OFFCURVE",
"844 216 CURVE SMOOTH"
);
},
{
closed = 1;
nodes = (
"775 333 LINE",
"825 333 LINE",
"825 456 LINE",
"775 456 LINE"
);
}
);
width = 928;
}
);
leftMetricsKey = "k-deva";
},
{
color = 3;
glyphname = "k_ta-deva";
lastChange = "2014-08-26 10:55:52 +0530";
layers = (
{
anchors = (
{
name = bottom;
position = "{361, 5}";
},
{
name = top;
position = "{360, 447}";
}
);
background = {
paths = (
{
closed = 1;
nodes = (
"331 0 LINE",
"386 0 LINE",
"386 456 LINE",
"331 456 LINE"
);
},
{
closed = 1;
nodes = (
"13 456 LINE",
"13 408 LINE",
"664 408 LINE",
"664 456 LINE"
);
},
{
closed = 1;
nodes = (
"380 190 OFFCURVE",
"311 153 OFFCURVE",
"237 153 CURVE SMOOTH",
"183 153 OFFCURVE",
"151 188 OFFCURVE",
"151 244 CURVE SMOOTH",
"151 456 LINE",
"95 456 LINE",
"95 244 LINE SMOOTH",
"95 164 OFFCURVE",
"139 103 OFFCURVE",
"239 103 CURVE SMOOTH",
"302 103 OFFCURVE",
"380 133 OFFCURVE",
"380 133 CURVE",
"380 190 LINE"
);
},
{
closed = 1;
nodes = (
"615 280 OFFCURVE",
"561 333 OFFCURVE",
"478 333 CURVE SMOOTH",
"426 333 OFFCURVE",
"383 300 OFFCURVE",
"356 282 CURVE",
"370 227 LINE",
"386 239 OFFCURVE",
"428 282 OFFCURVE",
"474 282 CURVE SMOOTH",
"528 282 OFFCURVE",
"559 254 OFFCURVE",
"559 207 CURVE SMOOTH",
"559 156 OFFCURVE",
"522 128 OFFCURVE",
"493 101 CURVE",
"532 62 LINE",
"569 91 OFFCURVE",
"615 138 OFFCURVE",
"615 201 CURVE SMOOTH"
);
}
);
};
layerId = "CFA4B904-E3F1-48B6-A7F6-47DC1FF2A3E1";
name = Regular;
paths = (
{
closed = 1;
nodes = (
"334 0 LINE",
"389 0 LINE",
"389 456 LINE",
"334 456 LINE"
);
},
{
closed = 1;
nodes = (
"-24 456 LINE",
"-24 408 LINE",
"667 408 LINE",
"667 456 LINE"
);
},
{
closed = 1;
nodes = (
"6 241 LINE",
"264 241 LINE",
"264 297 LINE",
"6 297 LINE"
);
},
{
closed = 1;
nodes = (
"360 297 OFFCURVE",
"302 297 OFFCURVE",
"218 297 CURVE SMOOTH",
"125 297 OFFCURVE",
"80 260 OFFCURVE",
"80 177 CURVE SMOOTH",
"80 114 OFFCURVE",
"125 43 OFFCURVE",
"159 -15 CURVE",
"206 11 LINE",
"188 42 OFFCURVE",
"137 128 OFFCURVE",
"137 175 CURVE SMOOTH",
"137 227 OFFCURVE",
"164 241 OFFCURVE",
"224 241 CURVE",
"360 241 LINE",
"360 297 LINE"
);
},
{
closed = 1;
nodes = (
"618 276 OFFCURVE",
"564 329 OFFCURVE",
"481 329 CURVE SMOOTH",
"429 329 OFFCURVE",
"386 296 OFFCURVE",
"359 278 CURVE",
"373 223 LINE",
"389 235 OFFCURVE",
"431 278 OFFCURVE",
"477 278 CURVE SMOOTH",
"531 278 OFFCURVE",
"562 250 OFFCURVE",
"562 203 CURVE SMOOTH",
"562 152 OFFCURVE",
"525 124 OFFCURVE",
"496 97 CURVE",
"535 58 LINE",
"572 87 OFFCURVE",
"618 134 OFFCURVE",
"618 197 CURVE SMOOTH"
);
}
);
width = 643;
}
);
leftMetricsKey = "k-deva";
},
{
color = 3;
glyphname = "k_tha-deva";
lastChange = "2014-08-15 13:05:53 +0530";
layers = (
{
anchors = (
{
name = bottom;
position = "{807, 5}";
},
{
name = top;
position = "{807, 447}";
}
);
background = {
paths = (
{
closed = 1;
nodes = (
"258 0 LINE",
"311 0 LINE",
"311 456 LINE",
"258 456 LINE"
);
},
{
closed = 1;
nodes = (
"-28 456 LINE",
"-28 408 LINE",
"427 408 LINE",
"427 456 LINE"
);
},
{
closed = 1;
nodes = (
"29 124 OFFCURVE",
"89 73 OFFCURVE",
"172 73 CURVE SMOOTH",
"234 73 OFFCURVE",
"267 100 OFFCURVE",
"294 118 CURVE",
"280 169 LINE",
"264 157 OFFCURVE",
"238 124 OFFCURVE",
"181 124 CURVE SMOOTH",
"122 124 OFFCURVE",
"85 151 OFFCURVE",
"85 205 CURVE SMOOTH",
"85 258 OFFCURVE",
"122 286 OFFCURVE",
"176 286 CURVE SMOOTH",
"228 286 OFFCURVE",
"264 253 OFFCURVE",
"280 241 CURVE",
"294 292 LINE",
"267 310 OFFCURVE",
"224 337 OFFCURVE",
"172 337 CURVE SMOOTH",
"89 337 OFFCURVE",
"29 286 OFFCURVE",
"29 205 CURVE SMOOTH"
);
},
{
closed = 1;
nodes = (
"529 217 LINE",
"502 291 OFFCURVE",
"453 333 OFFCURVE",
"385 333 CURVE SMOOTH",
"324 333 OFFCURVE",
"283 296 OFFCURVE",
"256 278 CURVE",
"270 227 LINE",
"289 246 OFFCURVE",
"329 282 OFFCURVE",
"386 282 CURVE SMOOTH",
"429 282 OFFCURVE",
"474 244 OFFCURVE",
"485 182 CURVE"
);
},
{
closed = 1;
nodes = (
"779 0 LINE",
"835 0 LINE",
"835 456 LINE",
"779 456 LINE"
);
},
{
closed = 1;
nodes = (
"709 456 LINE",
"709 408 LINE",
"933 408 LINE",
"933 456 LINE"
);
},
{
closed = 1;
nodes = (
"673 402 OFFCURVE",
"642 467 OFFCURVE",
"570 467 CURVE SMOOTH",
"525 467 OFFCURVE",
"475 436 OFFCURVE",
"475 379 CURVE SMOOTH",
"475 340 OFFCURVE",
"498 302 OFFCURVE",
"547 279 CURVE",
"576 321 LINE",
"552 335 OFFCURVE",
"529 351 OFFCURVE",
"529 379 CURVE SMOOTH",
"529 399 OFFCURVE",
"549 414 OFFCURVE",
"568 414 CURVE SMOOTH",
"603 414 OFFCURVE",
"621 380 OFFCURVE",
"621 342 CURVE SMOOTH",
"621 269 OFFCURVE",
"528 230 OFFCURVE",
"496 213 CURVE",
"485 182 LINE",
"512 136 OFFCURVE",
"573 84 OFFCURVE",
"664 84 CURVE SMOOTH",
"736 84 OFFCURVE",
"789 124 OFFCURVE",
"789 127 CURVE",
"789 197 LINE",
"763 160 OFFCURVE",
"710 138 OFFCURVE",
"659 138 CURVE SMOOTH",
"618 138 OFFCURVE",
"577 153 OFFCURVE",
"552 183 CURVE",
"590 211 OFFCURVE",
"673 253 OFFCURVE",
"673 342 CURVE SMOOTH"
);
}
);
};
layerId = "CFA4B904-E3F1-48B6-A7F6-47DC1FF2A3E1";
name = Regular;
paths = (
{
closed = 1;
nodes = (
"258 0 LINE",
"311 0 LINE",
"311 456 LINE",
"258 456 LINE"
);
},
{
closed = 1;
nodes = (
"-28 456 LINE",
"-28 408 LINE",
"427 408 LINE",
"427 456 LINE"
);
},
{
closed = 1;
nodes = (
"29 124 OFFCURVE",
"89 73 OFFCURVE",
"172 73 CURVE SMOOTH",
"234 73 OFFCURVE",
"267 100 OFFCURVE",
"294 118 CURVE",
"280 169 LINE",
"264 157 OFFCURVE",
"238 124 OFFCURVE",
"181 124 CURVE SMOOTH",
"122 124 OFFCURVE",
"85 151 OFFCURVE",
"85 205 CURVE SMOOTH",
"85 258 OFFCURVE",
"122 286 OFFCURVE",
"176 286 CURVE SMOOTH",
"228 286 OFFCURVE",
"264 253 OFFCURVE",
"280 241 CURVE",
"294 292 LINE",
"267 310 OFFCURVE",
"224 337 OFFCURVE",
"172 337 CURVE SMOOTH",
"89 337 OFFCURVE",
"29 286 OFFCURVE",
"29 205 CURVE SMOOTH"
);
},
{
closed = 1;
nodes = (
"530 218 LINE",
"493 277 OFFCURVE",
"453 313 OFFCURVE",
"385 313 CURVE SMOOTH",
"324 313 OFFCURVE",
"283 296 OFFCURVE",
"256 278 CURVE",
"270 227 LINE",
"289 239 OFFCURVE",
"329 262 OFFCURVE",
"379 262 CURVE SMOOTH",
"429 262 OFFCURVE",
"464 233 OFFCURVE",
"485 182 CURVE"
);
},
{
closed = 1;
nodes = (
"779 0 LINE",
"835 0 LINE",
"835 456 LINE",
"779 456 LINE"
);
},
{
closed = 1;
nodes = (
"709 456 LINE",
"709 408 LINE",
"933 408 LINE",
"933 456 LINE"
);
},
{
closed = 1;
nodes = (
"673 402 OFFCURVE",
"642 467 OFFCURVE",
"570 467 CURVE SMOOTH",
"525 467 OFFCURVE",
"475 436 OFFCURVE",
"475 379 CURVE SMOOTH",
"475 340 OFFCURVE",
"498 302 OFFCURVE",
"547 279 CURVE",
"576 321 LINE",
"552 335 OFFCURVE",
"529 351 OFFCURVE",
"529 379 CURVE SMOOTH",
"529 399 OFFCURVE",
"549 414 OFFCURVE",
"568 414 CURVE SMOOTH",
"603 414 OFFCURVE",
"621 380 OFFCURVE",
"621 342 CURVE SMOOTH",
"621 269 OFFCURVE",
"528 230 OFFCURVE",
"496 213 CURVE",
"485 182 LINE",
"512 136 OFFCURVE",
"573 84 OFFCURVE",
"664 84 CURVE SMOOTH",
"736 84 OFFCURVE",
"789 124 OFFCURVE",
"789 127 CURVE",
"789 197 LINE",
"763 160 OFFCURVE",
"710 138 OFFCURVE",
"659 138 CURVE SMOOTH",
"618 138 OFFCURVE",
"577 153 OFFCURVE",
"552 183 CURVE",
"590 211 OFFCURVE",
"673 253 OFFCURVE",
"673 342 CURVE SMOOTH"
);
}
);
width = 909;
}
);
leftMetricsKey = "k-deva";
},
{
color = 2;
glyphname = "k_na-deva";
lastChange = "2014-08-15 13:07:13 +0530";
layers = (
{
anchors = (
{
name = bottom;
position = "{284, 5}";
},
{
name = top;
position = "{284, 447}";
}
);
layerId = "CFA4B904-E3F1-48B6-A7F6-47DC1FF2A3E1";
name = Regular;
paths = (
{
closed = 1;
nodes = (
"257 0 LINE",
"310 0 LINE",
"310 456 LINE",
"257 456 LINE"
);
},
{
closed = 1;
nodes = (
"-24 456 LINE",
"-24 408 LINE",
"573 408 LINE",
"573 456 LINE"
);
},
{
closed = 1;
nodes = (
"28 128 OFFCURVE",
"88 77 OFFCURVE",
"171 77 CURVE SMOOTH",
"233 77 OFFCURVE",
"266 100 OFFCURVE",
"293 118 CURVE",
"279 169 LINE",
"263 157 OFFCURVE",
"237 124 OFFCURVE",
"180 124 CURVE SMOOTH",
"121 124 OFFCURVE",
"84 151 OFFCURVE",
"84 205 CURVE SMOOTH",
"84 258 OFFCURVE",
"121 286 OFFCURVE",
"175 286 CURVE SMOOTH",
"227 286 OFFCURVE",
"263 253 OFFCURVE",
"279 241 CURVE",
"293 292 LINE",
"266 310 OFFCURVE",
"223 337 OFFCURVE",
"171 337 CURVE SMOOTH",
"88 337 OFFCURVE",
"28 286 OFFCURVE",
"28 205 CURVE SMOOTH"
);
},
{
closed = 1;
nodes = (
"514 280 OFFCURVE",
"460 333 OFFCURVE",
"377 333 CURVE SMOOTH",
"325 333 OFFCURVE",
"282 296 OFFCURVE",
"255 278 CURVE",
"269 227 LINE",
"285 239 OFFCURVE",
"327 282 OFFCURVE",
"373 282 CURVE SMOOTH",
"427 282 OFFCURVE",
"458 254 OFFCURVE",
"458 207 CURVE SMOOTH",
"458 156 OFFCURVE",
"421 128 OFFCURVE",
"392 101 CURVE",
"431 62 LINE",
"468 91 OFFCURVE",
"514 138 OFFCURVE",
"514 201 CURVE SMOOTH"
);
},
{
closed = 1;
nodes = (
"47 9 OFFCURVE",
"83 -30 OFFCURVE",
"83 -30 CURVE",
"303 125 LINE",
"273 151 LINE",
"47 9 LINE"
);
},
{
closed = 1;
nodes = (
"39 4 LINE",
"58 -27 LINE",
"159 -73 LINE",
"189 -54 LINE",
"119 54 LINE"
);
}
);
width = 549;
}
);
leftMetricsKey = "k-deva";
},
{
color = 3;
glyphname = "k_ma-deva";
lastChange = "2014-08-15 13:07:31 +0530";
layers = (
{
anchors = (
{
name = bottom;
position = "{761, 5}";
},
{
name = top;
position = "{761, 447}";
}
);
background = {
paths = (
{
closed = 1;
nodes = (
"258 0 LINE",
"311 0 LINE",
"311 456 LINE",
"258 456 LINE"
);
},
{
closed = 1;
nodes = (
"-28 456 LINE",
"-28 408 LINE",
"447 408 LINE",
"447 456 LINE"
);
},
{
closed = 1;
nodes = (
"29 124 OFFCURVE",
"89 73 OFFCURVE",
"172 73 CURVE SMOOTH",
"234 73 OFFCURVE",
"267 100 OFFCURVE",
"294 118 CURVE",
"280 169 LINE",
"264 157 OFFCURVE",
"238 124 OFFCURVE",
"181 124 CURVE SMOOTH",
"122 124 OFFCURVE",
"85 151 OFFCURVE",
"85 205 CURVE SMOOTH",
"85 258 OFFCURVE",
"122 286 OFFCURVE",
"176 286 CURVE SMOOTH",
"228 286 OFFCURVE",
"264 253 OFFCURVE",
"280 241 CURVE",
"294 292 LINE",
"267 310 OFFCURVE",
"224 337 OFFCURVE",
"172 337 CURVE SMOOTH",
"89 337 OFFCURVE",
"29 286 OFFCURVE",
"29 205 CURVE SMOOTH"
);
},
{
closed = 1;
nodes = (
"522 269 LINE",
"483 315 OFFCURVE",
"443 333 OFFCURVE",
"386 333 CURVE SMOOTH",
"334 333 OFFCURVE",
"283 296 OFFCURVE",
"256 278 CURVE",
"270 227 LINE",
"286 239 OFFCURVE",
"339 282 OFFCURVE",
"385 282 CURVE SMOOTH",
"439 282 OFFCURVE",
"468 267 OFFCURVE",
"500 214 CURVE"
);
},
{
closed = 1;
nodes = (
"803 0 LINE",
"859 0 LINE",
"859 456 LINE",
"803 456 LINE"
);
},
{
closed = 1;
nodes = (
"566 140 LINE",
"621 140 LINE",
"621 456 LINE",
"566 456 LINE"
);
},
{
closed = 1;
nodes = (
"446 456 LINE",
"446 408 LINE",
"957 408 LINE",
"957 456 LINE"
);
},
{
closed = 1;
nodes = (
"504 204 LINE",
"504 171 LINE",
"583 76 LINE",
"621 76 LINE",
"621 204 LINE"
);
},
{
closed = 1;
nodes = (
"589 204 LINE",
"589 156 LINE",
"849 156 LINE",
"849 204 LINE"
);
}
);
};
layerId = "CFA4B904-E3F1-48B6-A7F6-47DC1FF2A3E1";
name = Regular;
paths = (
{
closed = 1;
nodes = (
"258 0 LINE",
"311 0 LINE",
"311 456 LINE",
"258 456 LINE"
);
},
{
closed = 1;
nodes = (
"-28 456 LINE",
"-28 408 LINE",
"447 408 LINE",
"447 456 LINE"
);
},
{
closed = 1;
nodes = (
"29 124 OFFCURVE",
"89 73 OFFCURVE",
"172 73 CURVE SMOOTH",
"234 73 OFFCURVE",
"267 100 OFFCURVE",
"294 118 CURVE",
"280 169 LINE",
"264 157 OFFCURVE",
"238 124 OFFCURVE",
"181 124 CURVE SMOOTH",
"122 124 OFFCURVE",
"85 151 OFFCURVE",
"85 205 CURVE SMOOTH",
"85 258 OFFCURVE",
"122 286 OFFCURVE",
"176 286 CURVE SMOOTH",
"228 286 OFFCURVE",
"264 253 OFFCURVE",
"280 241 CURVE",
"294 292 LINE",
"267 310 OFFCURVE",
"224 337 OFFCURVE",
"172 337 CURVE SMOOTH",
"89 337 OFFCURVE",
"29 286 OFFCURVE",
"29 205 CURVE SMOOTH"
);
},
{
closed = 1;
nodes = (
"533 270 LINE",
"500 298 OFFCURVE",
"459 333 OFFCURVE",
"392 333 CURVE SMOOTH",
"330 333 OFFCURVE",
"283 296 OFFCURVE",
"256 278 CURVE",
"270 227 LINE",
"286 239 OFFCURVE",
"339 282 OFFCURVE",
"393 282 CURVE SMOOTH",
"439 282 OFFCURVE",
"481 251 OFFCURVE",
"509 227 CURVE"
);
},
{
closed = 1;
nodes = (
"733 0 LINE",
"789 0 LINE",
"789 456 LINE",
"733 456 LINE"
);
},
{
closed = 1;
nodes = (
"496 140 LINE",
"551 140 LINE",
"551 456 LINE",
"496 456 LINE"
);
},
{
closed = 1;
nodes = (
"376 456 LINE",
"376 408 LINE",
"887 408 LINE",
"887 456 LINE"
);
},
{
closed = 1;
nodes = (
"434 204 LINE",
"434 171 LINE",
"513 76 LINE",
"551 76 LINE",
"551 204 LINE"
);
},
{
closed = 1;
nodes = (
"519 204 LINE",
"519 156 LINE",
"779 156 LINE",
"779 204 LINE"
);
}
);
width = 863;
}
);
leftMetricsKey = "k-deva";
},
{
color = 3;
glyphname = "k_ya-deva";
lastChange = "2014-08-15 13:11:34 +0530";
layers = (
{
anchors = (
{
name = bottom;
position = "{763, 5}";
},
{
name = top;
position = "{763, 447}";
}
);
background = {
paths = (
{
closed = 1;
nodes = (
"258 0 LINE",
"311 0 LINE",
"311 456 LINE",
"258 456 LINE"
);
},
{
closed = 1;
nodes = (
"-28 456 LINE",
"-28 408 LINE",
"447 408 LINE",
"447 456 LINE"
);
},
{
closed = 1;
nodes = (
"29 124 OFFCURVE",
"89 73 OFFCURVE",
"172 73 CURVE SMOOTH",
"234 73 OFFCURVE",
"267 100 OFFCURVE",
"294 118 CURVE",
"280 169 LINE",
"264 157 OFFCURVE",
"238 124 OFFCURVE",
"181 124 CURVE SMOOTH",
"122 124 OFFCURVE",
"85 151 OFFCURVE",
"85 205 CURVE SMOOTH",
"85 258 OFFCURVE",
"122 286 OFFCURVE",
"176 286 CURVE SMOOTH",
"228 286 OFFCURVE",
"264 253 OFFCURVE",
"280 241 CURVE",
"294 292 LINE",
"267 310 OFFCURVE",
"224 337 OFFCURVE",
"172 337 CURVE SMOOTH",
"89 337 OFFCURVE",
"29 286 OFFCURVE",
"29 205 CURVE SMOOTH"
);
},
{
closed = 1;
nodes = (
"522 269 LINE",
"483 315 OFFCURVE",
"443 333 OFFCURVE",
"386 333 CURVE SMOOTH",
"334 333 OFFCURVE",
"283 296 OFFCURVE",
"256 278 CURVE",
"270 227 LINE",
"286 239 OFFCURVE",
"339 282 OFFCURVE",
"385 282 CURVE SMOOTH",
"439 282 OFFCURVE",
"468 267 OFFCURVE",
"500 214 CURVE"
);
},
{
closed = 1;
nodes = (
"740 0 LINE",
"796 0 LINE",
"796 456 LINE",
"740 456 LINE"
);
},
{
closed = 1;
nodes = (
"401 456 LINE",
"401 408 LINE",
"894 408 LINE",
"894 456 LINE"
);
},
{
closed = 1;
nodes = (
"737 158 OFFCURVE",
"684 137 OFFCURVE",
"633 137 CURVE SMOOTH",
"592 137 OFFCURVE",
"555 155 OFFCURVE",
"530 182 CURVE",
"567 211 OFFCURVE",
"603 244 OFFCURVE",
"603 306 CURVE SMOOTH",
"603 356 OFFCURVE",
"575 414 OFFCURVE",
"521 456 CURVE",
"451 456 LINE",
"511 414 OFFCURVE",
"548 356 OFFCURVE",
"548 307 CURVE SMOOTH",
"548 258 OFFCURVE",
"502 230 OFFCURVE",
"470 213 CURVE",
"459 184 LINE",
"486 138 OFFCURVE",
"547 84 OFFCURVE",
"638 84 CURVE SMOOTH",
"710 84 OFFCURVE",
"763 127 OFFCURVE",
"763 127 CURVE",
"763 203 LINE"
);
}
);
};
layerId = "CFA4B904-E3F1-48B6-A7F6-47DC1FF2A3E1";
name = Regular;
paths = (
{
closed = 1;
nodes = (
"258 0 LINE",
"311 0 LINE",
"311 456 LINE",
"258 456 LINE"
);
},
{
closed = 1;
nodes = (
"-28 456 LINE",
"-28 408 LINE",
"447 408 LINE",
"447 456 LINE"
);
},
{
closed = 1;
nodes = (
"29 124 OFFCURVE",
"89 73 OFFCURVE",
"172 73 CURVE SMOOTH",
"234 73 OFFCURVE",
"267 100 OFFCURVE",
"294 118 CURVE",
"280 169 LINE",
"264 157 OFFCURVE",
"238 124 OFFCURVE",
"181 124 CURVE SMOOTH",
"122 124 OFFCURVE",
"85 151 OFFCURVE",
"85 205 CURVE SMOOTH",
"85 258 OFFCURVE",
"122 286 OFFCURVE",
"176 286 CURVE SMOOTH",
"228 286 OFFCURVE",
"264 253 OFFCURVE",
"280 241 CURVE",
"294 292 LINE",
"267 310 OFFCURVE",
"224 337 OFFCURVE",
"172 337 CURVE SMOOTH",
"89 337 OFFCURVE",
"29 286 OFFCURVE",
"29 205 CURVE SMOOTH"
);
},
{
closed = 1;
nodes = (
"536 256 LINE",
"488 312 OFFCURVE",
"443 333 OFFCURVE",
"396 333 CURVE SMOOTH",
"334 333 OFFCURVE",
"283 296 OFFCURVE",
"256 278 CURVE",
"270 227 LINE",
"286 239 OFFCURVE",
"339 282 OFFCURVE",
"392 282 CURVE SMOOTH",
"439 282 OFFCURVE",
"469 257 OFFCURVE",
"500 214 CURVE"
);
},
{
closed = 1;
nodes = (
"735 0 LINE",
"791 0 LINE",
"791 456 LINE",
"735 456 LINE"
);
},
{
closed = 1;
nodes = (
"396 456 LINE",
"396 408 LINE",
"889 408 LINE",
"889 456 LINE"
);
},
{
closed = 1;
nodes = (
"732 158 OFFCURVE",
"679 137 OFFCURVE",
"628 137 CURVE SMOOTH",
"587 137 OFFCURVE",
"550 155 OFFCURVE",
"525 182 CURVE",
"562 211 OFFCURVE",
"598 244 OFFCURVE",
"598 306 CURVE SMOOTH",
"598 356 OFFCURVE",
"570 414 OFFCURVE",
"516 456 CURVE",
"446 456 LINE",
"506 414 OFFCURVE",
"543 356 OFFCURVE",
"543 307 CURVE SMOOTH",
"543 258 OFFCURVE",
"497 230 OFFCURVE",
"465 213 CURVE",
"454 184 LINE",
"481 138 OFFCURVE",
"542 84 OFFCURVE",
"633 84 CURVE SMOOTH",
"705 84 OFFCURVE",
"758 127 OFFCURVE",
"758 127 CURVE",
"758 203 LINE"
);
}
);
width = 865;
}
);
leftMetricsKey = "k-deva";
},
{
color = 1;
glyphname = "k_ra-deva";
lastChange = "2014-08-07 08:07:52 +0530";
layers = (
{
anchors = (
{
name = bottom;
position = "{284, 5}";
},
{
name = top;
position = "{284, 447}";
}
);
background = {
paths = (
{
closed = 1;
nodes = (
"257 0 LINE",
"310 0 LINE",
"310 456 LINE",
"257 456 LINE"
);
},
{
closed = 1;
nodes = (
"-24 456 LINE",
"-24 408 LINE",
"573 408 LINE",
"573 456 LINE"
);
},
{
closed = 1;
nodes = (
"28 124 OFFCURVE",
"88 73 OFFCURVE",
"171 73 CURVE SMOOTH",
"233 73 OFFCURVE",
"266 100 OFFCURVE",
"293 118 CURVE",
"279 169 LINE",
"263 157 OFFCURVE",
"237 124 OFFCURVE",
"180 124 CURVE SMOOTH",
"121 124 OFFCURVE",
"84 151 OFFCURVE",
"84 205 CURVE SMOOTH",
"84 258 OFFCURVE",
"121 286 OFFCURVE",
"175 286 CURVE SMOOTH",
"227 286 OFFCURVE",
"263 253 OFFCURVE",
"279 241 CURVE",
"293 292 LINE",
"266 310 OFFCURVE",
"223 337 OFFCURVE",
"171 337 CURVE SMOOTH",
"88 337 OFFCURVE",
"28 286 OFFCURVE",
"28 205 CURVE SMOOTH"
);
},
{
closed = 1;
nodes = (
"514 280 OFFCURVE",
"460 333 OFFCURVE",
"377 333 CURVE SMOOTH",
"325 333 OFFCURVE",
"282 296 OFFCURVE",
"255 278 CURVE",
"269 227 LINE",
"285 239 OFFCURVE",
"327 282 OFFCURVE",
"373 282 CURVE SMOOTH",
"427 282 OFFCURVE",
"458 254 OFFCURVE",
"458 207 CURVE SMOOTH",
"458 156 OFFCURVE",
"421 128 OFFCURVE",
"392 101 CURVE",
"431 62 LINE",
"468 91 OFFCURVE",
"514 138 OFFCURVE",
"514 201 CURVE SMOOTH"
);
},
{
closed = 1;
nodes = (
"60 18 OFFCURVE",
"96 -21 OFFCURVE",
"96 -21 CURVE",
"303 125 LINE",
"273 161 LINE",
"60 18 LINE"
);
}
);
};
layerId = "CFA4B904-E3F1-48B6-A7F6-47DC1FF2A3E1";
name = Regular;
paths = (
{
closed = 1;
nodes = (
"257 0 LINE",
"310 0 LINE",
"310 456 LINE",
"257 456 LINE"
);
},
{
closed = 1;
nodes = (
"-24 456 LINE",
"-24 408 LINE",
"573 408 LINE",
"573 456 LINE"
);
},
{
closed = 1;
nodes = (
"28 128 OFFCURVE",
"88 77 OFFCURVE",
"171 77 CURVE SMOOTH",
"233 77 OFFCURVE",
"266 100 OFFCURVE",
"293 118 CURVE",
"279 169 LINE",
"263 157 OFFCURVE",
"237 124 OFFCURVE",
"180 124 CURVE SMOOTH",
"121 124 OFFCURVE",
"84 151 OFFCURVE",
"84 205 CURVE SMOOTH",
"84 258 OFFCURVE",
"121 286 OFFCURVE",
"175 286 CURVE SMOOTH",
"227 286 OFFCURVE",
"263 253 OFFCURVE",
"279 241 CURVE",
"293 292 LINE",
"266 310 OFFCURVE",
"223 337 OFFCURVE",
"171 337 CURVE SMOOTH",
"88 337 OFFCURVE",
"28 286 OFFCURVE",
"28 205 CURVE SMOOTH"
);
},
{
closed = 1;
nodes = (
"514 280 OFFCURVE",
"460 333 OFFCURVE",
"377 333 CURVE SMOOTH",
"325 333 OFFCURVE",
"282 296 OFFCURVE",
"255 278 CURVE",
"269 227 LINE",
"285 239 OFFCURVE",
"327 282 OFFCURVE",
"373 282 CURVE SMOOTH",
"427 282 OFFCURVE",
"458 254 OFFCURVE",
"458 207 CURVE SMOOTH",
"458 156 OFFCURVE",
"421 128 OFFCURVE",
"392 101 CURVE",
"431 62 LINE",
"468 91 OFFCURVE",
"514 138 OFFCURVE",
"514 201 CURVE SMOOTH"
);
},
{
closed = 1;
nodes = (
"60 18 OFFCURVE",
"96 -21 OFFCURVE",
"96 -21 CURVE",
"303 125 LINE",
"273 151 LINE",
"60 18 LINE"
);
}
);
width = 549;
}
);
leftMetricsKey = "k-deva";
},
{
color = 3;
glyphname = "k_sha-deva";
lastChange = "2014-08-15 13:11:58 +0530";
layers = (
{
anchors = (
{
name = bottom;
position = "{851, 5}";
},
{
name = top;
position = "{851, 447}";
}
);
background = {
paths = (
{
closed = 1;
nodes = (
"489 246 LINE",
"474 305 OFFCURVE",
"423 333 OFFCURVE",
"375 333 CURVE SMOOTH",
"314 333 OFFCURVE",
"283 296 OFFCURVE",
"256 278 CURVE",
"270 227 LINE",
"289 246 OFFCURVE",
"319 282 OFFCURVE",
"369 282 CURVE SMOOTH",
"399 282 OFFCURVE",
"437 273 OFFCURVE",
"447 214 CURVE"
);
}
);
};
layerId = "CFA4B904-E3F1-48B6-A7F6-47DC1FF2A3E1";
name = Regular;
paths = (
{
closed = 1;
nodes = (
"258 0 LINE",
"311 0 LINE",
"311 456 LINE",
"258 456 LINE"
);
},
{
closed = 1;
nodes = (
"-28 456 LINE",
"-28 408 LINE",
"447 408 LINE",
"447 456 LINE"
);
},
{
closed = 1;
nodes = (
"29 124 OFFCURVE",
"89 73 OFFCURVE",
"172 73 CURVE SMOOTH",
"234 73 OFFCURVE",
"267 100 OFFCURVE",
"294 118 CURVE",
"280 169 LINE",
"264 157 OFFCURVE",
"238 124 OFFCURVE",
"181 124 CURVE SMOOTH",
"122 124 OFFCURVE",
"85 151 OFFCURVE",
"85 205 CURVE SMOOTH",
"85 258 OFFCURVE",
"122 286 OFFCURVE",
"176 286 CURVE SMOOTH",
"228 286 OFFCURVE",
"264 253 OFFCURVE",
"280 241 CURVE",
"294 292 LINE",
"267 310 OFFCURVE",
"224 337 OFFCURVE",
"172 337 CURVE SMOOTH",
"89 337 OFFCURVE",
"29 286 OFFCURVE",
"29 205 CURVE SMOOTH"
);
},
{
closed = 1;
nodes = (
"492 239 LINE",
"473 308 OFFCURVE",
"423 333 OFFCURVE",
"375 333 CURVE SMOOTH",
"314 333 OFFCURVE",
"283 296 OFFCURVE",
"256 278 CURVE",
"270 227 LINE",
"289 246 OFFCURVE",
"319 282 OFFCURVE",
"369 282 CURVE SMOOTH",
"415 282 OFFCURVE",
"437 266 OFFCURVE",
"456 194 CURVE"
);
},
{
closed = 1;
nodes = (
"699 414 OFFCURVE",
"646 466 OFFCURVE",
"582 466 CURVE SMOOTH",
"523 466 OFFCURVE",
"479 425 OFFCURVE",
"479 368 CURVE SMOOTH",
"479 329 OFFCURVE",
"502 297 OFFCURVE",
"551 268 CURVE",
"580 311 LINE",
"556 326 OFFCURVE",
"532 343 OFFCURVE",
"532 368 CURVE SMOOTH",
"532 398 OFFCURVE",
"554 413 OFFCURVE",
"582 413 CURVE SMOOTH",
"618 413 OFFCURVE",
"643 379 OFFCURVE",
"646 329 CURVE SMOOTH",
"651 233 OFFCURVE",
"549 193 OFFCURVE",
"514 174 CURVE",
"556 137 LINE",
"619 175 OFFCURVE",
"699 223 OFFCURVE",
"699 332 CURVE SMOOTH"
);
},
{
closed = 1;
nodes = (
"452 155 OFFCURVE",
"483 130 OFFCURVE",
"527 131 CURVE",
"660 -15 LINE",
"660 -15 OFFCURVE",
"698 21 OFFCURVE",
"698 21 CURVE",
"492 239 LINE",
"465 230 OFFCURVE",
"452 211 OFFCURVE",
"452 191 CURVE SMOOTH"
);
},
{
closed = 1;
nodes = (
"731 456 LINE",
"731 408 LINE",
"977 408 LINE",
"977 456 LINE"
);
},
{
closed = 1;
nodes = (
"823 0 LINE",
"879 0 LINE",
"879 456 LINE",
"823 456 LINE"
);
}
);
width = 953;
}
);
leftMetricsKey = "k-deva";
},
